<svg width="414" height="428" viewBox="0 0 414 428" fill="none" xmlns="http://www.w3.org/2000/svg">
<path d="M49.637 274.145L34.804 274.424L27.289 274.536C24.779 274.583 22.257 274.574 19.74 274.591L19.296 274.594L19.294 274.145L19.24 261.512L19.238 261.01L19.74 261.012L34.688 261.075C39.671 261.08 44.653 261.187 49.636 261.239L49.911 261.242L49.909 261.512C49.89 263.651 49.823 265.78 49.778 267.887L49.637 274.145ZM49.637 274.145L49.495 267.77C49.45 265.667 49.383 263.584 49.364 261.512L49.637 261.785C44.654 261.836 39.672 261.944 34.689 261.949L19.741 262.012L20.24 261.513L20.186 274.146L19.74 273.7C22.206 273.718 24.667 273.708 27.14 273.755L34.573 273.867L49.637 274.145Z" fill="#EBEBEB"/>
<path d="M32.959 290.075L18.126 290.354L10.611 290.466C8.10103 290.513 5.57903 290.504 3.06203 290.521L2.61803 290.524L2.61603 290.075L2.56203 277.442L2.56003 276.94L3.06203 276.942L18.01 277.005C22.993 277.01 27.975 277.117 32.958 277.169L33.233 277.172L33.231 277.442C33.212 279.581 33.145 281.71 33.1 283.817L32.959 290.075ZM32.959 290.075L32.817 283.7C32.772 281.596 32.705 279.514 32.686 277.442L32.959 277.715C27.976 277.766 22.994 277.874 18.011 277.879L3.06303 277.942L3.56203 277.443L3.50803 290.076L3.06203 289.63C5.52803 289.648 7.98903 289.638 10.462 289.685L17.895 289.797L32.959 290.075Z" fill="#EBEBEB"/>
<path d="M32.959 16.714L18.126 16.993L10.611 17.105C8.10103 17.152 5.57903 17.142 3.06203 17.16L2.61803 17.163L2.61603 16.714L2.56203 4.081L2.56003 3.57899L3.06203 3.581L18.01 3.644C22.993 3.649 27.975 3.75599 32.958 3.80799L33.233 3.811L33.231 4.081C33.212 6.22 33.145 8.349 33.1 10.456L32.959 16.714ZM32.959 16.714L32.817 10.339C32.772 8.236 32.705 6.153 32.686 4.081L32.959 4.354C27.976 4.405 22.994 4.513 18.011 4.518L3.06303 4.58L3.56203 4.081L3.50803 16.714L3.06203 16.268C5.52803 16.286 7.98903 16.276 10.462 16.323L17.895 16.435L32.959 16.714Z" fill="#EBEBEB"/>
<path d="M410.937 16.714L396.104 16.993L388.589 17.105C386.079 17.152 383.557 17.142 381.04 17.16L380.596 17.163L380.594 16.714L380.54 4.081L380.538 3.57899L381.04 3.581L395.988 3.644C400.971 3.649 405.953 3.75599 410.936 3.80799L411.211 3.811L411.209 4.081C411.19 6.22 411.123 8.349 411.078 10.456L410.937 16.714ZM410.937 16.714L410.795 10.339C410.75 8.236 410.683 6.153 410.664 4.081L410.937 4.354C405.954 4.405 400.971 4.513 395.989 4.518L381.041 4.581L381.54 4.082L381.486 16.715L381.04 16.269C383.506 16.287 385.967 16.277 388.44 16.324L395.873 16.436L410.937 16.714Z" fill="#EBEBEB"/>
<path d="M394.26 32.644L379.427 32.923L371.912 33.035C369.402 33.082 366.88 33.072 364.363 33.09L363.919 33.093L363.917 32.644L363.863 20.011L363.861 19.509L364.363 19.511L379.311 19.574C384.294 19.579 389.276 19.686 394.259 19.738L394.534 19.741L394.532 20.011C394.513 22.15 394.446 24.279 394.401 26.386L394.26 32.644ZM394.26 32.644L394.118 26.269C394.073 24.166 394.006 22.083 393.987 20.011L394.26 20.284C389.277 20.335 384.295 20.443 379.312 20.448L364.364 20.511L364.863 20.012L364.809 32.645L364.363 32.199C366.829 32.217 369.29 32.207 371.763 32.254L379.196 32.366L394.26 32.644Z" fill="#EBEBEB"/>
<path d="M317.692 180.437L302.859 180.716L295.344 180.828C292.834 180.875 290.312 180.866 287.795 180.883L287.351 180.886L287.349 180.437L287.295 167.804L287.293 167.302L287.795 167.304L302.743 167.367C307.726 167.372 312.708 167.48 317.691 167.531L317.966 167.534L317.964 167.804C317.945 169.943 317.878 172.072 317.833 174.179L317.692 180.437ZM317.692 180.437L317.55 174.062C317.505 171.958 317.438 169.876 317.419 167.804L317.692 168.077C312.709 168.128 307.726 168.236 302.744 168.241L287.796 168.304L288.295 167.805L288.241 180.438L287.795 179.993C290.261 180.01 292.722 180.001 295.195 180.048L302.628 180.16L317.692 180.437Z" fill="#EBEBEB"/>
<path d="M301.014 196.367L286.181 196.646L278.666 196.758C276.156 196.805 273.634 196.795 271.117 196.813L270.673 196.816L270.671 196.367L270.617 183.734L270.615 183.232L271.117 183.234L286.065 183.297C291.048 183.302 296.03 183.41 301.013 183.461L301.288 183.464L301.286 183.734C301.267 185.873 301.2 188.002 301.155 190.109L301.014 196.367ZM301.014 196.367L300.872 189.992C300.827 187.889 300.76 185.806 300.741 183.734L301.014 184.007C296.031 184.058 291.049 184.166 286.066 184.171L271.118 184.234L271.617 183.735L271.563 196.368L271.117 195.922C273.583 195.94 276.044 195.93 278.517 195.977L285.95 196.089L301.014 196.367Z" fill="#EBEBEB"/>
<path d="M284.403 180.437L269.57 180.716L262.055 180.828C259.545 180.875 257.023 180.866 254.506 180.883L254.062 180.886L254.06 180.437L254.006 167.804L254.004 167.302L254.506 167.304L269.454 167.367C274.437 167.372 279.419 167.48 284.402 167.531L284.677 167.534L284.675 167.804C284.656 169.943 284.589 172.072 284.544 174.179L284.403 180.437ZM284.403 180.437L284.261 174.062C284.216 171.958 284.149 169.876 284.13 167.804L284.403 168.077C279.42 168.128 274.437 168.236 269.455 168.241L254.507 168.304L255.006 167.805L254.952 180.438L254.506 179.993C256.972 180.01 259.433 180.001 261.906 180.048L269.339 180.16L284.403 180.437Z" fill="#EBEBEB"/>
<path d="M410.937 290.075L396.104 290.354L388.589 290.466C386.079 290.513 383.557 290.504 381.04 290.521L380.596 290.524L380.594 290.075L380.54 277.442L380.538 276.94L381.04 276.942L395.988 277.005C400.971 277.01 405.954 277.117 410.936 277.169L411.211 277.172L411.209 277.442C411.19 279.581 411.123 281.71 411.078 283.817L410.937 290.075ZM410.937 290.075L410.795 283.7C410.75 281.596 410.683 279.514 410.664 277.442L410.937 277.715C405.954 277.766 400.972 277.874 395.989 277.879L381.041 277.942L381.54 277.443L381.486 290.076L381.04 289.63C383.506 289.648 385.967 289.638 388.44 289.685L395.873 289.797L410.937 290.075Z" fill="#EBEBEB"/>
<path d="M156.926 54.281L142.093 54.56L134.578 54.672C132.068 54.719 129.546 54.709 127.029 54.727L126.585 54.73L126.583 54.281L126.529 41.648L126.527 41.146L127.029 41.148L141.977 41.211C146.96 41.216 151.942 41.323 156.925 41.375L157.2 41.378L157.198 41.648C157.179 43.787 157.112 45.916 157.067 48.023L156.926 54.281ZM156.926 54.281L156.784 47.906C156.739 45.803 156.672 43.72 156.653 41.648L156.926 41.921C151.943 41.972 146.961 42.08 141.978 42.085L127.03 42.148L127.529 41.649L127.475 54.282L127.029 53.836C129.495 53.854 131.956 53.844 134.429 53.891L141.862 54.003L156.926 54.281Z" fill="#EBEBEB"/>
<path d="M380.225 137.971L386.112 128.48L383.205 126.68C382.35 126.15 381.887 125.184 381.973 124.182C382.02 123.628 382.038 123.071 382.026 122.512C382.004 121.509 382.528 120.576 383.412 120.102L386.425 118.486L381.145 108.641L378.133 110.257C377.249 110.731 376.182 110.651 375.359 110.078C374.9 109.759 374.426 109.465 373.939 109.198C373.057 108.715 372.508 107.794 372.54 106.79L372.648 103.372L361.485 103.025L361.382 106.455C361.352 107.461 360.735 108.336 359.825 108.766C359.578 108.883 359.333 109.006 359.091 109.136C358.848 109.266 358.61 109.402 358.377 109.543C357.52 110.061 356.455 110.091 355.604 109.564L352.676 107.75L346.789 117.241L349.701 119.048C350.555 119.579 351.018 120.546 350.931 121.548C350.883 122.099 350.865 122.655 350.876 123.211C350.897 124.212 350.373 125.145 349.49 125.618L346.476 127.234L351.756 137.079L354.77 135.463C355.653 134.989 356.719 135.069 357.542 135.64C357.999 135.957 358.472 136.249 358.958 136.514C359.841 136.996 360.391 137.917 360.36 138.922L360.255 142.348L371.418 142.695L371.525 139.268C371.556 138.266 372.171 137.394 373.077 136.965C373.325 136.848 373.572 136.723 373.817 136.592C374.059 136.462 374.298 136.326 374.532 136.185C375.394 135.665 376.463 135.635 377.319 136.166L380.225 137.971ZM370.774 130.923C366.322 133.311 360.782 131.638 358.394 127.186C356.006 122.734 357.674 117.186 362.127 114.798C366.579 112.41 372.131 114.086 374.519 118.538C376.906 122.991 375.226 128.536 370.774 130.923Z" fill="#EBEBEB"/>
<path d="M58.53 245.51L64.417 236.019L61.51 234.218C60.655 233.688 60.192 232.722 60.278 231.72C60.326 231.166 60.343 230.609 60.331 230.05C60.309 229.047 60.833 228.114 61.717 227.64L64.73 226.024L59.45 216.179L56.438 217.795C55.554 218.269 54.487 218.189 53.664 217.616C53.205 217.297 52.731 217.003 52.244 216.736C51.362 216.253 50.813 215.332 50.845 214.328L50.953 210.91L39.79 210.563L39.687 213.993C39.657 214.999 39.04 215.874 38.13 216.304C37.883 216.42 37.638 216.544 37.396 216.674C37.153 216.804 36.915 216.94 36.682 217.081C35.825 217.599 34.76 217.629 33.909 217.102L30.981 215.288L25.094 224.779L28.006 226.586C28.86 227.117 29.323 228.084 29.236 229.086C29.188 229.638 29.17 230.193 29.181 230.749C29.202 231.75 28.678 232.683 27.795 233.156L24.781 234.772L30.061 244.617L33.075 243.001C33.958 242.527 35.024 242.607 35.847 243.178C36.304 243.495 36.777 243.787 37.263 244.052C38.146 244.534 38.696 245.455 38.665 246.46L38.56 249.886L49.723 250.233L49.83 246.806C49.861 245.804 50.476 244.932 51.382 244.504C51.63 244.387 51.877 244.262 52.122 244.131C52.365 244.001 52.603 243.865 52.837 243.724C53.699 243.204 54.768 243.174 55.624 243.705L58.53 245.51ZM49.078 238.462C44.626 240.85 39.086 239.177 36.698 234.725C34.31 230.273 35.978 224.725 40.431 222.337C44.883 219.949 50.435 221.625 52.823 226.077C55.211 230.53 53.53 236.074 49.078 238.462Z" fill="#EBEBEB"/>
<path d="M172.868 63.738L168.958 56.961L166.884 58.159C166.274 58.512 165.524 58.478 164.934 58.093C164.608 57.88 164.27 57.685 163.921 57.507C163.295 57.189 162.892 56.556 162.892 55.854V53.46H155.066V55.855C155.066 56.557 154.663 57.19 154.037 57.508C153.688 57.685 153.35 57.881 153.024 58.094C152.434 58.478 151.684 58.513 151.074 58.16L149 56.962L145.09 63.739L147.173 64.938C147.784 65.29 148.12 65.96 148.084 66.664C148.074 66.855 148.069 67.047 148.069 67.24C148.069 67.433 148.074 67.625 148.084 67.816C148.12 68.517 147.786 69.184 147.179 69.535L145.09 70.742L149 77.519L151.08 76.32C151.69 75.968 152.441 76.003 153.031 76.388C153.356 76.6 153.692 76.795 154.04 76.972C154.665 77.291 155.067 77.923 155.067 78.625V81.021H162.893V78.625C162.893 77.923 163.295 77.291 163.92 76.972C164.267 76.795 164.604 76.6 164.928 76.388C165.518 76.003 166.269 75.968 166.879 76.32L168.959 77.519L172.869 70.742L170.789 69.542C170.18 69.191 169.846 68.523 169.881 67.821C169.891 67.629 169.895 67.436 169.895 67.241C169.895 67.048 169.89 66.856 169.881 66.665C169.845 65.961 170.181 65.29 170.792 64.938L172.868 63.738ZM165.388 67.24C165.388 70.779 162.521 73.646 158.982 73.646C155.443 73.646 152.57 70.779 152.57 67.24C152.57 63.701 155.443 60.828 158.982 60.828C162.521 60.828 165.388 63.701 165.388 67.24Z" fill="#EBEBEB"/>
<path d="M0.374023 340.143L52.03 339.9L103.687 339.812L207 339.644L310.313 339.811L361.969 339.899L413.626 340.143L361.969 340.388L310.313 340.476L207 340.642L103.687 340.475L52.03 340.386L0.374023 340.143Z" fill="#263238"/>
<path d="M207 427.115C289.322 427.115 356.057 417.679 356.057 406.04C356.057 394.401 289.322 384.965 207 384.965C124.678 384.965 57.943 394.401 57.943 406.04C57.943 417.679 124.678 427.115 207 427.115Z" fill="#EBEBEB"/>
<path d="M114.573 184.672L108.364 160.242L59.326 172.705L52.845 147.205L92.033 57.893L111.47 52.953L130.368 127.312L146.06 123.324L152.586 149.002L136.894 152.99L143.103 177.42L114.573 184.672ZM80.975 139.866L105.227 133.703L97.205 102.14L80.975 139.866Z" fill="#263238"/>
<path d="M255.021 103.118C255.021 111.214 253.793 118.665 251.341 125.473C248.886 132.281 245.513 138.168 241.22 143.136C236.925 148.104 231.866 151.968 226.042 154.727C220.214 157.487 213.866 158.867 206.998 158.867C200.127 158.867 193.751 157.487 187.863 154.727C181.975 151.967 176.884 148.103 172.592 143.136C168.297 138.168 164.956 132.281 162.565 125.473C160.173 118.665 158.977 111.214 158.977 103.118C158.977 95.023 160.173 87.571 162.565 80.764C164.957 73.956 168.297 68.069 172.592 63.101C176.884 58.133 181.975 54.241 187.863 51.418C193.751 48.598 200.127 47.186 206.998 47.186C213.866 47.186 220.213 48.598 226.042 51.418C231.866 54.241 236.925 58.133 241.22 63.101C245.513 68.069 248.886 73.956 251.341 80.764C253.793 87.571 255.021 95.023 255.021 103.118ZM225.398 103.118C225.398 94.534 223.679 87.571 220.246 82.235C216.81 76.9 212.396 74.232 206.999 74.232C201.356 74.232 196.848 76.9 193.476 82.235C190.101 87.571 188.416 94.534 188.416 103.118C188.416 111.705 190.101 118.637 193.476 123.909C196.848 129.184 201.356 131.821 206.999 131.821C212.396 131.821 216.81 129.185 220.246 123.909C223.68 118.637 225.398 111.705 225.398 103.118Z" fill="#263238"/>
<path d="M307.843 179.964L311.874 155.082L261.929 146.99L266.137 121.018L337.645 54.693L357.442 57.9L345.172 133.636L361.155 136.225L356.918 162.379L340.935 159.79L336.904 184.672L307.843 179.964ZM294.862 125.486L319.562 129.488L324.77 97.341L294.862 125.486Z" fill="#263238"/>
<path d="M165.675 29.461C163.574 29.461 161.669 29.05 159.959 28.229C158.248 27.408 156.781 26.317 155.556 24.957C154.33 23.598 153.381 22.042 152.708 20.292C152.035 18.542 151.698 16.751 151.698 14.919C151.698 13.007 152.054 11.176 152.768 9.42501C153.481 7.67501 154.465 6.12601 155.717 4.77901C156.969 3.43201 158.457 2.36201 160.181 1.56701C161.904 0.773009 163.776 0.376007 165.796 0.376007C167.87 0.376007 169.761 0.800006 171.472 1.64801C173.182 2.49601 174.643 3.60701 175.855 4.98101C177.067 6.35501 178.009 7.91701 178.683 9.66701C179.356 11.418 179.693 13.195 179.693 15C179.693 16.913 179.342 18.736 178.643 20.474C177.942 22.211 176.973 23.746 175.734 25.079C174.495 26.412 173.014 27.476 171.291 28.27C169.566 29.064 167.695 29.461 165.675 29.461ZM157.353 14.918C157.353 16.157 157.541 17.356 157.918 18.513C158.295 19.671 158.84 20.695 159.554 21.583C160.267 22.472 161.143 23.185 162.18 23.724C163.216 24.263 164.395 24.532 165.715 24.532C167.061 24.532 168.253 24.256 169.29 23.704C170.327 23.153 171.202 22.418 171.916 21.502C172.629 20.587 173.168 19.557 173.532 18.412C173.896 17.267 174.077 16.103 174.077 14.917C174.077 13.679 173.881 12.48 173.491 11.322C173.1 10.164 172.548 9.14101 171.835 8.25201C171.121 7.36301 170.246 6.65701 169.21 6.13101C168.173 5.60601 167.008 5.34301 165.716 5.34301C164.369 5.34301 163.171 5.61901 162.12 6.17101C161.07 6.72301 160.195 7.45001 159.495 8.35201C158.794 9.25501 158.263 10.278 157.899 11.422C157.535 12.569 157.353 13.733 157.353 14.918Z" fill="#263238"/>
<path d="M193.226 29.663C191.502 29.663 189.954 29.367 188.581 28.774C187.207 28.182 186.042 27.38 185.086 26.371C184.13 25.361 183.396 24.196 182.884 22.876C182.372 21.557 182.116 20.169 182.116 18.715C182.116 17.234 182.372 15.834 182.884 14.514C183.395 13.195 184.13 12.03 185.086 11.02C186.042 10.01 187.207 9.209 188.581 8.616C189.954 8.024 191.502 7.72701 193.226 7.72701C194.949 7.72701 196.491 8.024 197.852 8.616C199.211 9.209 200.37 10.01 201.326 11.02C202.282 12.03 203.016 13.195 203.528 14.514C204.039 15.834 204.295 17.234 204.295 18.715C204.295 20.169 204.039 21.557 203.528 22.876C203.016 24.196 202.289 25.36 201.347 26.371C200.404 27.381 199.246 28.183 197.873 28.774C196.498 29.366 194.949 29.663 193.226 29.663ZM187.691 18.715C187.691 19.658 187.833 20.513 188.115 21.28C188.398 22.048 188.788 22.714 189.286 23.28C189.784 23.845 190.37 24.283 191.043 24.593C191.716 24.903 192.443 25.058 193.225 25.058C194.006 25.058 194.733 24.903 195.406 24.593C196.079 24.284 196.665 23.846 197.163 23.28C197.661 22.714 198.052 22.041 198.334 21.26C198.617 20.479 198.758 19.618 198.758 18.675C198.758 17.76 198.616 16.912 198.334 16.13C198.051 15.349 197.661 14.676 197.163 14.11C196.664 13.544 196.078 13.107 195.406 12.797C194.733 12.487 194.006 12.332 193.225 12.332C192.443 12.332 191.716 12.494 191.043 12.817C190.37 13.14 189.784 13.585 189.286 14.15C188.787 14.716 188.397 15.389 188.115 16.17C187.832 16.952 187.691 17.8 187.691 18.715Z" fill="#263238"/>
<path d="M220.613 29.663C218.943 29.663 217.489 29.293 216.251 28.552C215.012 27.812 214.042 26.809 213.342 25.543V37.864H207.929V8.091H212.655V11.726C213.436 10.488 214.446 9.511 215.685 8.797C216.923 8.084 218.351 7.72701 219.966 7.72701C221.394 7.72701 222.713 8.017 223.925 8.596C225.137 9.175 226.181 9.956 227.056 10.939C227.931 11.922 228.618 13.08 229.117 14.413C229.615 15.746 229.864 17.154 229.864 18.635C229.864 20.17 229.635 21.611 229.177 22.957C228.719 24.304 228.079 25.476 227.258 26.472C226.436 27.469 225.46 28.249 224.329 28.815C223.199 29.38 221.96 29.663 220.613 29.663ZM218.796 25.058C219.604 25.058 220.351 24.883 221.038 24.533C221.724 24.183 222.31 23.712 222.795 23.119C223.279 22.527 223.656 21.84 223.926 21.058C224.196 20.277 224.33 19.47 224.33 18.635C224.33 17.746 224.182 16.918 223.886 16.151C223.589 15.383 223.179 14.717 222.654 14.151C222.129 13.586 221.509 13.141 220.796 12.818C220.082 12.495 219.308 12.333 218.474 12.333C217.962 12.333 217.437 12.421 216.899 12.596C216.36 12.771 215.862 13.02 215.404 13.344C214.946 13.667 214.536 14.045 214.172 14.475C213.809 14.906 213.532 15.378 213.344 15.889V20.858C213.829 22.07 214.57 23.073 215.566 23.867C216.56 24.661 217.638 25.058 218.796 25.058Z" fill="#263238"/>
<path d="M241.539 29.663C239.762 29.663 238.024 29.38 236.328 28.815C234.631 28.25 233.177 27.441 231.965 26.391L233.985 22.998C235.278 23.914 236.537 24.607 237.762 25.078C238.988 25.55 240.206 25.785 241.418 25.785C242.494 25.785 243.343 25.583 243.963 25.179C244.582 24.775 244.892 24.196 244.892 23.442C244.892 22.688 244.529 22.136 243.801 21.786C243.074 21.436 241.889 21.032 240.246 20.574C238.873 20.197 237.701 19.833 236.731 19.483C235.761 19.133 234.98 18.736 234.388 18.291C233.795 17.847 233.365 17.335 233.095 16.756C232.825 16.177 232.692 15.483 232.692 14.675C232.692 13.598 232.9 12.629 233.318 11.766C233.735 10.905 234.321 10.17 235.075 9.564C235.829 8.958 236.712 8.49401 237.721 8.17101C238.731 7.84801 239.827 7.686 241.013 7.686C242.602 7.686 244.089 7.915 245.477 8.373C246.864 8.831 248.136 9.571 249.294 10.595L247.112 13.867C246.035 13.059 244.992 12.467 243.981 12.09C242.971 11.713 241.968 11.525 240.972 11.525C240.056 11.525 239.288 11.714 238.669 12.09C238.049 12.467 237.739 13.073 237.739 13.908C237.739 14.285 237.813 14.595 237.962 14.837C238.109 15.079 238.346 15.295 238.669 15.483C238.992 15.672 239.416 15.854 239.941 16.028C240.466 16.204 241.119 16.385 241.9 16.573C243.354 16.95 244.599 17.327 245.636 17.704C246.673 18.081 247.521 18.512 248.181 18.996C248.841 19.481 249.326 20.04 249.636 20.672C249.945 21.305 250.1 22.066 250.1 22.955C250.1 25.029 249.333 26.665 247.797 27.863C246.266 29.064 244.178 29.663 241.539 29.663Z" fill="#263238"/>
<path d="M254.667 18.473V0.294006H260.08V18.473H254.667ZM254.667 29.259V23.159H260.08V29.259H254.667Z" fill="#263238"/>
<path d="M227.601 270.845H192.089V273.754H227.601V270.845Z" fill="#37474F"/>
<path d="M227.601 274.634H192.089V277.543H227.601V274.634Z" fill="#37474F"/>
<path d="M227.601 278.424H192.089V281.333H227.601V278.424Z" fill="#37474F"/>
<path d="M227.601 282.213H192.089V285.122H227.601V282.213Z" fill="#37474F"/>
<path d="M227.601 286.002H192.089V288.911H227.601V286.002Z" fill="#37474F"/>
<path d="M242.974 361.594H175.458V364.503H242.974V361.594Z" fill="#37474F"/>
<path d="M242.974 365.383H175.458V368.292H242.974V365.383Z" fill="#37474F"/>
<path d="M242.974 369.172H175.458V372.081H242.974V369.172Z" fill="#37474F"/>
<path d="M242.974 372.961H175.458V375.87H242.974V372.961Z" fill="#37474F"/>
<path d="M242.974 376.751H175.458V379.66H242.974V376.751Z" fill="#37474F"/>
<path d="M145.834 246.798C145.867 246.405 131.057 241.444 131.057 241.444L131.932 190.558L151.571 186.344L145.834 246.798Z" fill="#FFC727"/>
<path opacity="0.2" d="M145.834 246.798C145.867 246.405 131.057 241.444 131.057 241.444L131.932 190.558L151.571 186.344L145.834 246.798Z" fill="black"/>
<path d="M281.489 266.772C281.593 266.391 297.207 266.83 297.207 266.83L313.897 218.751L296.908 208.036L281.489 266.772Z" fill="#FFC727"/>
<path opacity="0.2" d="M281.489 266.772C281.593 266.391 297.207 266.83 297.207 266.83L313.897 218.751L296.908 208.036L281.489 266.772Z" fill="black"/>
<path d="M142.983 265.536C142.983 265.536 148.474 183.238 153.29 156.165C153.29 156.165 252.707 163.684 306.376 184.197C306.376 184.197 278.707 280.325 277.275 285.095C277.275 285.095 207.267 271.304 142.983 265.536Z" fill="#FFC727"/>
<path opacity="0.1" d="M231.722 167.155C230.106 177.064 228.47 186.97 226.777 196.866L221.653 226.545L221.377 226.126L254.688 234.039L271.326 238.071L287.945 242.183L271.238 238.444L254.55 234.626L221.209 226.838L220.872 226.759L220.933 226.418L226.238 196.771C228.021 186.891 229.862 177.021 231.722 167.155Z" fill="black"/>
<path opacity="0.1" d="M228.067 172.803C228.085 173.711 227.361 174.644 226.321 174.735C225.817 174.783 225.269 174.622 224.859 174.265C224.449 173.908 224.204 173.358 224.201 172.803C224.204 172.248 224.447 171.697 224.858 171.34C225.267 170.98 225.817 170.822 226.321 170.869C227.362 170.96 228.085 171.895 228.067 172.803ZM228.067 172.803C228.063 172.345 227.86 171.895 227.519 171.606C227.177 171.317 226.729 171.199 226.322 171.246C225.483 171.343 224.939 172.096 224.951 172.803C224.938 173.51 225.481 174.267 226.322 174.362C226.729 174.408 227.178 174.29 227.52 174.001C227.86 173.711 228.063 173.261 228.067 172.803Z" fill="black"/>
<path opacity="0.1" d="M226.321 185.048C226.339 185.956 225.615 186.89 224.575 186.98C224.071 187.028 223.523 186.867 223.113 186.51C222.703 186.153 222.458 185.603 222.455 185.048C222.458 184.493 222.701 183.942 223.112 183.585C223.521 183.225 224.071 183.067 224.575 183.114C225.617 183.206 226.34 184.141 226.321 185.048ZM226.321 185.048C226.317 184.59 226.114 184.14 225.773 183.851C225.431 183.562 224.983 183.444 224.576 183.491C223.737 183.588 223.193 184.341 223.205 185.048C223.192 185.755 223.735 186.512 224.576 186.607C224.983 186.653 225.432 186.535 225.774 186.245C226.115 185.957 226.317 185.506 226.321 185.048Z" fill="black"/>
<path opacity="0.1" d="M224.171 197.987C224.189 198.895 223.465 199.829 222.425 199.919C221.921 199.967 221.373 199.807 220.963 199.449C220.553 199.092 220.308 198.542 220.305 197.987C220.308 197.432 220.551 196.881 220.962 196.524C221.371 196.164 221.921 196.006 222.425 196.053C223.467 196.145 224.19 197.079 224.171 197.987ZM224.171 197.987C224.167 197.529 223.964 197.079 223.623 196.79C223.281 196.501 222.833 196.383 222.426 196.43C221.587 196.527 221.043 197.28 221.055 197.987C221.042 198.694 221.585 199.451 222.426 199.546C222.833 199.593 223.282 199.474 223.624 199.185C223.964 198.895 224.167 198.445 224.171 197.987Z" fill="black"/>
<path opacity="0.1" d="M222.021 210.926C222.04 211.834 221.315 212.767 220.275 212.858C219.771 212.905 219.223 212.745 218.813 212.388C218.403 212.031 218.158 211.481 218.155 210.926C218.157 210.371 218.402 209.82 218.812 209.463C219.221 209.103 219.771 208.945 220.275 208.992C221.317 209.083 222.04 210.018 222.021 210.926ZM222.021 210.926C222.017 210.468 221.814 210.018 221.472 209.729C221.13 209.44 220.682 209.322 220.275 209.369C219.436 209.466 218.892 210.219 218.904 210.926C218.891 211.633 219.434 212.39 220.275 212.485C220.682 212.531 221.131 212.413 221.473 212.124C221.814 211.834 222.017 211.384 222.021 210.926Z" fill="black"/>
<path opacity="0.1" d="M229.347 231.561C229.366 232.469 228.641 233.402 227.601 233.493C227.097 233.54 226.549 233.38 226.139 233.023C225.729 232.666 225.484 232.116 225.481 231.561C225.483 231.006 225.727 230.455 226.138 230.098C226.547 229.738 227.097 229.58 227.601 229.627C228.642 229.718 229.365 230.653 229.347 231.561ZM229.347 231.561C229.343 231.103 229.14 230.653 228.798 230.364C228.456 230.075 228.008 229.957 227.601 230.004C226.762 230.101 226.218 230.854 226.23 231.561C226.217 232.268 226.76 233.025 227.601 233.12C228.008 233.167 228.457 233.048 228.799 232.758C229.14 232.469 229.342 232.019 229.347 231.561Z" fill="black"/>
<path opacity="0.1" d="M241.56 234.54C241.579 235.448 240.854 236.382 239.814 236.472C239.31 236.519 238.762 236.359 238.352 236.002C237.942 235.645 237.697 235.095 237.694 234.54C237.697 233.985 237.941 233.434 238.351 233.077C238.76 232.717 239.31 232.559 239.814 232.606C240.856 232.698 241.579 233.632 241.56 234.54ZM241.56 234.54C241.556 234.082 241.353 233.632 241.012 233.343C240.67 233.054 240.222 232.936 239.815 232.983C238.976 233.08 238.432 233.833 238.444 234.54C238.431 235.247 238.974 236.004 239.815 236.099C240.222 236.145 240.671 236.027 241.013 235.737C241.353 235.448 241.556 234.998 241.56 234.54Z" fill="black"/>
<path opacity="0.1" d="M253.774 237.52C253.792 238.428 253.068 239.361 252.028 239.452C251.524 239.499 250.976 239.339 250.566 238.982C250.156 238.625 249.911 238.075 249.908 237.52C249.911 236.965 250.154 236.414 250.565 236.057C250.974 235.697 251.524 235.539 252.028 235.586C253.069 235.677 253.792 236.612 253.774 237.52ZM253.774 237.52C253.77 237.062 253.567 236.612 253.226 236.323C252.884 236.034 252.436 235.916 252.029 235.963C251.19 236.06 250.646 236.813 250.658 237.52C250.645 238.227 251.188 238.984 252.029 239.079C252.436 239.125 252.885 239.007 253.227 238.717C253.567 238.428 253.769 237.977 253.774 237.52Z" fill="black"/>
<path opacity="0.1" d="M265.987 240.499C266.006 241.407 265.281 242.34 264.241 242.431C263.737 242.478 263.189 242.319 262.779 241.961C262.369 241.604 262.124 241.054 262.121 240.499C262.124 239.944 262.367 239.393 262.778 239.036C263.187 238.676 263.737 238.518 264.241 238.565C265.283 238.656 266.005 239.591 265.987 240.499ZM265.987 240.499C265.983 240.041 265.78 239.591 265.439 239.302C265.097 239.013 264.649 238.895 264.242 238.942C263.403 239.039 262.859 239.792 262.871 240.499C262.858 241.206 263.401 241.963 264.242 242.058C264.649 242.104 265.098 241.986 265.44 241.697C265.78 241.407 265.983 240.957 265.987 240.499Z" fill="black"/>
<path opacity="0.1" d="M278.195 243.612C278.144 244.519 277.35 245.394 276.306 245.404C275.8 245.413 275.266 245.211 274.884 244.823C274.502 244.435 274.3 243.869 274.34 243.315C274.385 242.762 274.671 242.232 275.108 241.907C275.544 241.58 276.104 241.464 276.603 241.55C277.635 241.721 278.283 242.709 278.195 243.612ZM278.195 243.612C278.226 243.155 278.058 242.691 277.74 242.376C277.421 242.061 276.983 241.909 276.574 241.925C275.73 241.957 275.129 242.666 275.087 243.372C275.019 244.076 275.503 244.872 276.334 245.032C276.736 245.11 277.193 245.027 277.556 244.764C277.919 244.502 278.156 244.069 278.195 243.612Z" fill="black"/>
<path opacity="0.1" d="M219.871 223.865C219.889 224.773 219.165 225.707 218.125 225.797C217.621 225.845 217.073 225.685 216.663 225.327C216.253 224.97 216.008 224.42 216.005 223.865C216.008 223.31 216.252 222.759 216.662 222.402C217.071 222.042 217.621 221.883 218.125 221.931C219.167 222.022 219.89 222.957 219.871 223.865ZM219.871 223.865C219.867 223.407 219.664 222.957 219.322 222.668C218.98 222.379 218.532 222.261 218.125 222.308C217.286 222.405 216.742 223.158 216.754 223.865C216.741 224.572 217.284 225.329 218.125 225.424C218.532 225.47 218.981 225.352 219.322 225.062C219.665 224.773 219.867 224.323 219.871 223.865Z" fill="black"/>
<path opacity="0.2" d="M199.303 245.304C210.897 234.879 211.845 217.03 201.42 205.436C190.996 193.842 173.146 192.894 161.553 203.319C149.959 213.743 149.011 231.593 159.435 243.187C169.86 254.781 187.709 255.728 199.303 245.304Z" fill="black"/>
<path d="M201.593 232.327C206.02 220.633 200.128 207.565 188.434 203.138C176.74 198.712 163.672 204.603 159.246 216.297C154.819 227.991 160.711 241.06 172.405 245.486C184.099 249.913 197.167 244.021 201.593 232.327Z" fill="#263238"/>
<path d="M179.063 215.988L173.77 215.131L172.913 220.423L178.206 221.281L179.063 215.988Z" fill="#FFC727"/>
<path d="M174.627 209.838L169.334 208.981L168.477 214.274L173.77 215.131L174.627 209.838Z" fill="#FFC727"/>
<path d="M195.799 213.267L190.506 212.41L189.648 217.703L194.941 218.56L195.799 213.267Z" fill="#FFC727"/>
<path d="M171.217 230.889L165.924 230.032L165.067 235.325L170.359 236.182L171.217 230.889Z" fill="#FFC727"/>
<path d="M192.388 234.319L187.095 233.461L186.238 238.754L191.531 239.612L192.388 234.319Z" fill="#FFC727"/>
<path d="M177.367 226.455L172.075 225.597L171.217 230.89L176.51 231.747L177.367 226.455Z" fill="#FFC727"/>
<path d="M183.508 222.079L178.215 221.221L177.358 226.514L182.651 227.371L183.508 222.079Z" fill="#FFC727"/>
<path d="M189.649 217.703L184.356 216.845L183.499 222.138L188.792 222.995L189.649 217.703Z" fill="#FFC727"/>
<path d="M187.959 228.166L182.666 227.309L181.809 232.601L187.101 233.459L187.959 228.166Z" fill="#FFC727"/>
<path d="M278.028 254.021C287.91 241.961 286.144 224.173 274.084 214.291C262.024 204.409 244.237 206.175 234.355 218.235C224.473 230.295 226.238 248.083 238.299 257.965C250.359 267.847 268.146 266.081 278.028 254.021Z" fill="#FFC727"/>
<path opacity="0.2" d="M278.028 254.021C287.91 241.961 286.144 224.173 274.084 214.291C262.024 204.409 244.237 206.175 234.355 218.235C224.473 230.295 226.238 248.083 238.299 257.965C250.359 267.847 268.146 266.081 278.028 254.021Z" fill="black"/>
<path opacity="0.2" d="M283.66 242.672C283.53 243.228 283.382 243.765 283.215 244.302L228.187 232.565C228.317 231.583 228.493 230.601 228.724 229.61C232.328 214.445 247.548 205.07 262.723 208.673C277.889 212.277 287.264 227.497 283.66 242.672Z" fill="black"/>
<path d="M264.915 257.035C276.453 252.215 281.898 238.954 277.078 227.416C272.258 215.879 258.997 210.433 247.459 215.254C235.921 220.074 230.476 233.335 235.296 244.873C240.117 256.41 253.378 261.856 264.915 257.035Z" fill="#263238"/>
<path d="M261.891 223.77L256.674 222.531L250.503 248.496L255.72 249.736L261.891 223.77Z" fill="#FFC727"/>
<path d="M285.298 242.141L227.497 228.404C231.29 212.446 247.306 202.586 263.264 206.378C279.223 210.172 289.091 226.183 285.298 242.141Z" fill="#FFC727"/>
<path opacity="0.2" d="M285.298 242.141L227.497 228.404C231.29 212.446 247.306 202.586 263.264 206.378C279.223 210.172 289.091 226.183 285.298 242.141Z" fill="black"/>
<path opacity="0.1" d="M207.071 252.922C207.217 250.665 208.046 248.376 209.683 246.566C210.49 245.654 211.567 244.938 212.753 244.502C213.945 244.064 215.233 243.987 216.454 244.091C217.697 244.236 218.966 244.674 220.002 245.458C221.018 246.258 221.797 247.301 222.255 248.424C223.198 250.662 223.301 253.054 222.844 255.272C222.468 253.055 221.895 250.902 220.854 249.135C219.821 247.354 218.187 246.247 216.24 246.075C214.254 245.828 212.316 246.361 210.755 247.68C209.194 248.995 208.002 250.878 207.071 252.922Z" fill="black"/>
<path d="M150.716 195.34C150.95 192.324 151.289 189.322 151.575 186.313C151.896 183.309 152.226 180.306 152.591 177.309C152.938 174.309 153.329 171.315 153.713 168.319C154.089 165.323 154.523 162.335 154.925 159.342L155.032 158.543L155.842 158.594C162.356 159.004 168.856 159.53 175.347 160.198C178.592 160.531 181.833 160.908 185.07 161.324C188.301 161.788 191.537 162.216 194.749 162.804L175.232 161.596L155.735 160.335L156.652 159.587C156.209 162.574 155.797 165.565 155.328 168.548C154.866 171.532 154.411 174.517 153.913 177.496C153.433 180.477 152.918 183.454 152.393 186.429C151.834 189.399 151.327 192.377 150.716 195.34Z" fill="white"/>
<path d="M155.411 218.156C156.066 214.53 157.714 211.075 159.928 208.066C160.479 207.309 161.106 206.61 161.709 205.89C162.362 205.216 163.041 204.564 163.711 203.903C164.442 203.309 165.18 202.72 165.93 202.149C166.727 201.644 167.514 201.117 168.324 200.632C169.177 200.222 170.025 199.8 170.886 199.41L173.568 198.482L176.344 197.909C177.276 197.773 178.223 197.744 179.158 197.674C182.922 197.577 186.627 198.38 190.027 199.757C186.408 199.079 182.802 198.703 179.247 199.042C175.701 199.372 172.255 200.432 169.174 202.168C166.069 203.863 163.319 206.201 160.996 208.917C158.683 211.647 156.768 214.739 155.411 218.156Z" fill="white"/>
<path d="M233.287 225.782C234.437 222.281 236.546 219.087 239.154 216.412C239.804 215.739 240.522 215.133 241.219 214.503C241.958 213.926 242.721 213.374 243.476 212.811C244.282 212.323 245.094 211.842 245.916 211.38C246.775 210.99 247.627 210.576 248.497 210.208C249.399 209.92 250.297 209.619 251.203 209.352L253.988 208.803L256.817 208.619C257.759 208.612 258.7 208.715 259.636 208.774C263.378 209.198 266.935 210.505 270.113 212.338C266.622 211.167 263.103 210.296 259.535 210.142C255.977 209.98 252.418 210.554 249.127 211.848C245.818 213.098 242.771 215.034 240.095 217.403C237.425 219.788 235.102 222.585 233.287 225.782Z" fill="white"/>
<path d="M146.141 316.252C138.909 316.252 123.077 314.626 112.889 301.527C99.855 284.769 104.566 252.613 104.772 251.252L110.431 252.111C110.384 252.42 105.887 283.201 117.407 298.013C128.67 312.494 149.099 310.415 149.304 310.39L149.948 316.077C149.725 316.104 148.324 316.252 146.141 316.252Z" fill="#FFC727"/>
<path opacity="0.4" d="M146.141 316.252C138.909 316.252 123.077 314.626 112.889 301.527C99.855 284.769 104.566 252.613 104.772 251.252L110.431 252.111C110.384 252.42 105.887 283.201 117.407 298.013C128.67 312.494 149.099 310.415 149.304 310.39L149.948 316.077C149.725 316.104 148.324 316.252 146.141 316.252Z" fill="white"/>
<path d="M112.097 256.005C111.065 256.005 110.011 255.919 108.938 255.745C99.392 254.199 95.166 248.487 93.301 243.967C91.432 239.437 91 233.957 92.017 227.681L104.123 229.643C103.493 233.531 103.676 236.958 104.638 239.29C105.324 240.954 106.656 242.952 110.899 243.639C112.837 243.953 114.932 243.787 117.126 240.478C118.819 237.924 119.837 234.448 120.193 232.246L132.299 234.207C132.019 235.939 130.832 241.999 127.347 247.255C123.557 252.972 118.222 256.005 112.097 256.005Z" fill="#FFC727"/>
<path d="M158.1 332.633C158.079 332.372 147.844 330.737 147.844 330.737L142.876 297.332L155.273 292.435L158.1 332.633Z" fill="#FFC727"/>
<path opacity="0.2" d="M158.1 332.633C158.079 332.372 147.844 330.737 147.844 330.737L142.876 297.332L155.273 292.435L158.1 332.633Z" fill="black"/>
<path d="M259.296 332.695C259.323 332.435 269.592 331.026 269.592 331.026L275.297 297.739L263.011 292.569L259.296 332.695Z" fill="#FFC727"/>
<path opacity="0.2" d="M259.296 332.695C259.323 332.435 269.592 331.026 269.592 331.026L275.297 297.739L263.011 292.569L259.296 332.695Z" fill="black"/>
<path d="M153.841 284.955C153.841 284.955 236.627 281.415 264.592 286.076C264.592 286.076 256.38 366.182 255.936 367.736C255.936 367.736 173.585 367.514 160.712 367.736C160.712 367.736 153.735 314.469 153.841 284.955Z" fill="#FFC727"/>
<path opacity="0.2" d="M178.987 306.906C178.987 306.906 224.18 305.121 239.447 307.471C239.447 307.471 234.964 347.865 234.722 348.648C234.722 348.648 189.766 348.536 182.739 348.648C182.737 348.648 179.649 321.002 178.987 306.906Z" fill="black"/>
<path opacity="0.2" d="M185.164 348.631C184.129 348.631 183.309 348.644 182.735 348.651C182.735 348.651 179.651 321 178.984 306.904C178.984 306.904 180.012 306.864 181.807 306.804L185.164 348.631Z" fill="black"/>
<path d="M198.494 316.873C195.961 316.075 193.262 317.481 192.464 320.012C191.665 322.548 193.073 325.244 195.606 326.042C198.137 326.84 200.833 325.435 201.631 322.902C202.429 320.372 201.025 317.671 198.494 316.873ZM201.074 322.726C200.373 324.952 198.004 326.186 195.781 325.485C193.558 324.784 192.323 322.416 193.025 320.19C193.726 317.967 196.095 316.732 198.32 317.434C200.54 318.134 201.775 320.503 201.074 322.726ZM198.494 316.873C195.961 316.075 193.262 317.481 192.464 320.012C191.665 322.548 193.073 325.244 195.606 326.042C198.137 326.84 200.833 325.435 201.631 322.902C202.429 320.372 201.025 317.671 198.494 316.873ZM201.074 322.726C200.373 324.952 198.004 326.186 195.781 325.485C193.558 324.784 192.323 322.416 193.025 320.19C193.726 317.967 196.095 316.732 198.32 317.434C200.54 318.134 201.775 320.503 201.074 322.726ZM198.494 316.873C195.961 316.075 193.262 317.481 192.464 320.012C191.665 322.548 193.073 325.244 195.606 326.042C198.137 326.84 200.833 325.435 201.631 322.902C202.429 320.372 201.025 317.671 198.494 316.873ZM201.074 322.726C200.373 324.952 198.004 326.186 195.781 325.485C193.558 324.784 192.323 322.416 193.025 320.19C193.726 317.967 196.095 316.732 198.32 317.434C200.54 318.134 201.775 320.503 201.074 322.726ZM200.096 311.795C194.755 310.113 189.068 313.08 187.385 318.413C185.704 323.749 188.665 329.44 194.004 331.121C199.337 332.801 205.029 329.838 206.71 324.502C208.393 319.169 205.43 313.475 200.096 311.795ZM202.346 323.126C201.425 326.049 198.301 327.677 195.381 326.756C192.461 325.836 190.833 322.712 191.753 319.789C192.674 316.866 195.8 315.241 198.72 316.161C201.638 317.082 203.266 320.206 202.346 323.126ZM201.631 322.903C202.429 320.372 201.025 317.672 198.494 316.874C195.961 316.076 193.262 317.482 192.464 320.013C191.665 322.549 193.073 325.245 195.606 326.043C198.137 326.841 200.833 325.436 201.631 322.903ZM201.074 322.726C200.373 324.952 198.004 326.186 195.781 325.485C193.558 324.784 192.323 322.416 193.025 320.19C193.726 317.967 196.095 316.732 198.32 317.434C200.54 318.134 201.775 320.503 201.074 322.726ZM198.494 316.873C195.961 316.075 193.262 317.481 192.464 320.012C191.665 322.548 193.073 325.244 195.606 326.042C198.137 326.84 200.833 325.435 201.631 322.902C202.429 320.372 201.025 317.671 198.494 316.873ZM201.074 322.726C200.373 324.952 198.004 326.186 195.781 325.485C193.558 324.784 192.323 322.416 193.025 320.19C193.726 317.967 196.095 316.732 198.32 317.434C200.54 318.134 201.775 320.503 201.074 322.726ZM198.494 316.873C195.961 316.075 193.262 317.481 192.464 320.012C191.665 322.548 193.073 325.244 195.606 326.042C198.137 326.84 200.833 325.435 201.631 322.902C202.429 320.372 201.025 317.671 198.494 316.873ZM201.074 322.726C200.373 324.952 198.004 326.186 195.781 325.485C193.558 324.784 192.323 322.416 193.025 320.19C193.726 317.967 196.095 316.732 198.32 317.434C200.54 318.134 201.775 320.503 201.074 322.726Z" fill="#FFC727"/>
<path d="M195.988 331.305L192.273 330.134L191.649 332.829L194.954 333.87L195.988 331.305Z" fill="#FFC727"/>
<path d="M189.311 327.825L187.511 324.37L185.165 325.835L186.765 328.908L189.311 327.825Z" fill="#FFC727"/>
<path d="M187.05 320.642L188.22 316.927L185.526 316.304L184.484 319.608L187.05 320.642Z" fill="#FFC727"/>
<path d="M190.53 313.965L193.985 312.166L192.52 309.819L189.447 311.42L190.53 313.965Z" fill="#FFC727"/>
<path d="M197.712 311.704L201.428 312.875L202.051 310.18L198.747 309.139L197.712 311.704Z" fill="#FFC727"/>
<path d="M204.39 315.184L206.189 318.639L208.536 317.175L206.935 314.102L204.39 315.184Z" fill="#FFC727"/>
<path d="M206.651 322.367L205.48 326.082L208.175 326.706L209.216 323.401L206.651 322.367Z" fill="#FFC727"/>
<path d="M203.171 329.044L199.715 330.844L201.18 333.19L204.253 331.59L203.171 329.044Z" fill="#FFC727"/>
<path d="M214.835 331.012C213.337 330.036 211.332 330.461 210.357 331.957C209.38 333.457 209.806 335.46 211.304 336.436C212.801 337.411 214.803 336.987 215.779 335.489C216.754 333.993 216.332 331.987 214.835 331.012ZM215.45 335.274C214.593 336.591 212.833 336.963 211.518 336.106C210.203 335.25 209.831 333.49 210.688 332.174C211.544 330.859 213.304 330.487 214.62 331.344C215.934 332.2 216.306 333.959 215.45 335.274ZM214.835 331.012C213.337 330.036 211.332 330.461 210.357 331.957C209.38 333.457 209.806 335.46 211.304 336.436C212.801 337.411 214.803 336.987 215.779 335.489C216.754 333.993 216.332 331.987 214.835 331.012ZM215.45 335.274C214.593 336.591 212.833 336.963 211.518 336.106C210.203 335.25 209.831 333.49 210.688 332.174C211.544 330.859 213.304 330.487 214.62 331.344C215.934 332.2 216.306 333.959 215.45 335.274ZM214.835 331.012C213.337 330.036 211.332 330.461 210.357 331.957C209.38 333.457 209.806 335.46 211.304 336.436C212.801 337.411 214.803 336.987 215.779 335.489C216.754 333.993 216.332 331.987 214.835 331.012ZM215.45 335.274C214.593 336.591 212.833 336.963 211.518 336.106C210.203 335.25 209.831 333.49 210.688 332.174C211.544 330.859 213.304 330.487 214.62 331.344C215.934 332.2 216.306 333.959 215.45 335.274ZM216.792 328.009C213.632 325.953 209.408 326.848 207.352 330.003C205.297 333.16 206.188 337.386 209.346 339.441C212.501 341.495 216.728 340.602 218.783 337.446C220.839 334.291 219.947 330.063 216.792 328.009ZM216.202 335.764C215.076 337.493 212.756 337.984 211.029 336.859C209.302 335.734 208.81 333.414 209.936 331.685C211.062 329.956 213.383 329.467 215.11 330.592C216.836 331.716 217.327 334.036 216.202 335.764ZM215.779 335.489C216.754 333.992 216.332 331.988 214.835 331.013C213.337 330.037 211.332 330.462 210.357 331.958C209.38 333.458 209.806 335.461 211.304 336.437C212.801 337.412 214.803 336.987 215.779 335.489ZM215.45 335.274C214.593 336.591 212.833 336.963 211.518 336.106C210.203 335.25 209.831 333.49 210.688 332.174C211.544 330.859 213.304 330.487 214.62 331.344C215.934 332.2 216.306 333.959 215.45 335.274ZM214.835 331.012C213.337 330.036 211.332 330.461 210.357 331.957C209.38 333.457 209.806 335.46 211.304 336.436C212.801 337.411 214.803 336.987 215.779 335.489C216.754 333.993 216.332 331.987 214.835 331.012ZM215.45 335.274C214.593 336.591 212.833 336.963 211.518 336.106C210.203 335.25 209.831 333.49 210.688 332.174C211.544 330.859 213.304 330.487 214.62 331.344C215.934 332.2 216.306 333.959 215.45 335.274ZM214.835 331.012C213.337 330.036 211.332 330.461 210.357 331.957C209.38 333.457 209.806 335.46 211.304 336.436C212.801 337.411 214.803 336.987 215.779 335.489C216.754 333.993 216.332 331.987 214.835 331.012ZM215.45 335.274C214.593 336.591 212.833 336.963 211.518 336.106C210.203 335.25 209.831 333.49 210.688 332.174C211.544 330.859 213.304 330.487 214.62 331.344C215.934 332.2 216.306 333.959 215.45 335.274Z" fill="#DBDBDB"/>
<path d="M210.6 339.918L208.402 338.487L207.511 340.122L209.466 341.395L210.6 339.918Z" fill="#DBDBDB"/>
<path d="M206.899 336.454L206.357 333.888L204.57 334.414L205.053 336.696L206.899 336.454Z" fill="#DBDBDB"/>
<path d="M206.732 331.387L208.163 329.189L206.528 328.298L205.255 330.253L206.732 331.387Z" fill="#DBDBDB"/>
<path d="M210.196 327.686L212.762 327.144L212.236 325.358L209.954 325.84L210.196 327.686Z" fill="#DBDBDB"/>
<path d="M215.263 327.519L217.46 328.95L218.352 327.315L216.397 326.042L215.263 327.519Z" fill="#DBDBDB"/>
<path d="M218.964 330.983L219.506 333.549L221.292 333.023L220.81 330.741L218.964 330.983Z" fill="#DBDBDB"/>
<path d="M219.131 336.05L217.7 338.248L219.335 339.139L220.608 337.184L219.131 336.05Z" fill="#DBDBDB"/>
<path d="M215.667 339.751L213.101 340.293L213.626 342.079L215.909 341.597L215.667 339.751Z" fill="#DBDBDB"/>
<path d="M262.594 358.414L265.776 359.006L274.875 297.379L271.25 296.713L262.594 358.414Z" fill="#FFC727"/>
<path d="M234.721 348.648L239.446 307.471L271.25 296.713C271.25 296.713 262.594 359.08 262.594 358.414L234.721 348.648Z" fill="#FFC727"/>
<path opacity="0.4" d="M234.721 348.648L239.446 307.471L271.25 296.713C271.25 296.713 262.594 359.08 262.594 358.414L234.721 348.648Z" fill="white"/>
<path d="M157.64 309.139C157.122 305.728 156.842 302.289 156.629 298.847C156.531 297.125 156.487 295.401 156.449 293.677C156.415 291.953 156.385 290.227 156.436 288.502L156.45 288.049L156.891 288.025C163.209 287.686 169.523 287.271 175.845 286.995C182.165 286.683 188.485 286.4 194.81 286.202C188.505 286.773 182.197 287.259 175.887 287.717C169.579 288.21 163.264 288.564 156.953 288.994L157.407 288.517L157.381 293.667L157.441 298.819C157.45 300.538 157.481 302.256 157.531 303.975L157.64 309.139Z" fill="white"/>
<path d="M243.882 308.075C245.852 307.139 247.853 306.269 249.878 305.466C251.897 304.644 253.934 303.866 255.995 303.152C258.059 302.447 260.13 301.757 262.236 301.172C264.338 300.58 266.46 300.033 268.628 299.678L269.161 299.591L269.066 300.1C268.567 302.766 268.045 305.428 267.428 308.075C267.659 305.367 267.985 302.673 268.334 299.984L268.772 300.406C266.671 300.907 264.587 301.493 262.509 302.107C260.433 302.728 258.363 303.382 256.299 304.054L243.882 308.075Z" fill="white"/>
<path opacity="0.1" d="M171.403 285.122L171.939 295.421L172.397 305.723L173.191 326.331L173.812 346.945L174.06 357.254L174.23 367.566L173.693 357.267L173.235 346.965L172.442 326.357L171.823 305.743L171.574 295.434L171.403 285.122Z" fill="black"/>
<path opacity="0.1" d="M168.453 291.33C168.651 292.217 168.125 293.275 167.124 293.569C166.639 293.715 166.071 293.667 165.598 293.397C165.125 293.128 164.776 292.638 164.664 292.094C164.557 291.549 164.687 290.961 165.019 290.53C165.349 290.097 165.857 289.832 166.36 289.779C167.398 289.663 168.292 290.437 168.453 291.33ZM168.453 291.33C168.358 290.882 168.07 290.481 167.679 290.265C167.287 290.049 166.824 290.022 166.434 290.149C165.631 290.41 165.246 291.255 165.398 291.947C165.525 292.642 166.207 293.277 167.05 293.204C167.458 293.169 167.875 292.965 168.152 292.613C168.43 292.262 168.539 291.78 168.453 291.33Z" fill="black"/>
<path opacity="0.1" d="M169.162 303.679C169.36 304.566 168.834 305.624 167.833 305.918C167.348 306.064 166.78 306.016 166.307 305.746C165.834 305.477 165.485 304.987 165.373 304.443C165.266 303.898 165.396 303.31 165.728 302.879C166.058 302.446 166.566 302.181 167.069 302.128C168.107 302.012 169.001 302.786 169.162 303.679ZM169.162 303.679C169.067 303.231 168.779 302.83 168.388 302.614C167.996 302.398 167.533 302.371 167.143 302.498C166.34 302.759 165.955 303.605 166.107 304.296C166.234 304.991 166.916 305.626 167.759 305.553C168.167 305.518 168.584 305.313 168.862 304.962C169.139 304.611 169.249 304.129 169.162 303.679Z" fill="black"/>
<path opacity="0.1" d="M169.612 316.788C169.81 317.675 169.284 318.733 168.283 319.027C167.798 319.173 167.23 319.125 166.757 318.855C166.284 318.586 165.935 318.096 165.823 317.552C165.716 317.008 165.846 316.419 166.178 315.988C166.508 315.554 167.016 315.29 167.519 315.237C168.557 315.121 169.451 315.895 169.612 316.788ZM169.612 316.788C169.517 316.34 169.229 315.939 168.838 315.723C168.446 315.507 167.983 315.48 167.593 315.607C166.79 315.868 166.405 316.713 166.557 317.404C166.684 318.1 167.366 318.734 168.209 318.661C168.617 318.626 169.034 318.422 169.311 318.07C169.589 317.719 169.698 317.238 169.612 316.788Z" fill="black"/>
<path opacity="0.1" d="M170.062 329.896C170.26 330.783 169.734 331.841 168.733 332.135C168.248 332.281 167.68 332.233 167.207 331.963C166.734 331.694 166.385 331.204 166.273 330.66C166.166 330.115 166.296 329.527 166.628 329.096C166.958 328.663 167.465 328.398 167.969 328.345C169.007 328.229 169.901 329.003 170.062 329.896ZM170.062 329.896C169.967 329.448 169.68 329.047 169.288 328.831C168.896 328.615 168.433 328.588 168.043 328.715C167.24 328.976 166.855 329.821 167.007 330.513C167.134 331.208 167.816 331.843 168.659 331.77C169.067 331.735 169.484 331.531 169.761 331.179C170.039 330.828 170.148 330.346 170.062 329.896Z" fill="black"/>
<path opacity="0.1" d="M170.512 343.005C170.71 343.892 170.184 344.95 169.183 345.244C168.698 345.39 168.13 345.342 167.657 345.072C167.184 344.803 166.835 344.313 166.723 343.769C166.616 343.224 166.746 342.636 167.078 342.205C167.408 341.772 167.916 341.507 168.419 341.454C169.457 341.338 170.351 342.111 170.512 343.005ZM170.512 343.005C170.417 342.557 170.129 342.156 169.738 341.94C169.346 341.724 168.883 341.697 168.493 341.824C167.69 342.085 167.305 342.93 167.457 343.622C167.584 344.318 168.266 344.952 169.109 344.879C169.517 344.844 169.934 344.64 170.212 344.288C170.489 343.936 170.598 343.454 170.512 343.005Z" fill="black"/>
<path opacity="0.1" d="M170.962 356.113C171.16 357 170.634 358.058 169.633 358.352C169.148 358.498 168.58 358.45 168.107 358.18C167.634 357.911 167.285 357.421 167.173 356.877C167.066 356.333 167.196 355.744 167.528 355.313C167.858 354.879 168.365 354.615 168.869 354.562C169.907 354.446 170.8 355.22 170.962 356.113ZM170.962 356.113C170.867 355.665 170.579 355.264 170.188 355.048C169.796 354.832 169.333 354.805 168.943 354.932C168.14 355.193 167.755 356.038 167.907 356.73C168.034 357.426 168.716 358.06 169.559 357.987C169.967 357.952 170.384 357.747 170.661 357.396C170.939 357.044 171.048 356.563 170.962 356.113Z" fill="black"/>
<path d="M175.009 376.158L128.134 390.362L129.794 395.839L176.668 381.635L175.009 376.158Z" fill="#FFC727"/>
<path opacity="0.4" d="M175.009 376.158L128.134 390.362L129.794 395.839L176.668 381.635L175.009 376.158Z" fill="white"/>
<path d="M152.581 381.094L147.127 382.829L149.704 390.931L155.158 389.196L152.581 381.094Z" fill="#FFC727"/>
<path d="M129.427 403.863L117.331 351.484L80.821 360.14L98.799 411.187L129.427 403.863Z" fill="#FFC727"/>
<path d="M137.528 401.2L129.427 403.863L117.331 351.484L128.983 354.258L137.528 401.2Z" fill="#FFC727"/>
<path opacity="0.2" d="M137.528 401.2L129.427 403.863L117.331 351.484L128.983 354.258L137.528 401.2Z" fill="black"/>
<path d="M175.859 385.108C179.291 385.108 182.073 382.326 182.073 378.894C182.073 375.462 179.291 372.68 175.859 372.68C172.427 372.68 169.645 375.462 169.645 378.894C169.645 382.326 172.427 385.108 175.859 385.108Z" fill="#FFC727"/>
<path d="M239.802 376.006L238.131 381.48L284.976 395.782L286.648 390.309L239.802 376.006Z" fill="#FFC727"/>
<path opacity="0.4" d="M239.802 376.006L238.131 381.48L284.976 395.782L286.648 390.309L239.802 376.006Z" fill="white"/>
<path d="M262.262 380.967L259.668 389.063L265.118 390.809L267.712 382.714L262.262 380.967Z" fill="#FFC727"/>
<path d="M285.357 403.818L297.565 351.464L334.056 360.198L315.97 411.207L285.357 403.818Z" fill="#FFC727"/>
<path d="M277.262 401.137L285.357 403.818L297.565 351.464L285.907 354.214L277.262 401.137Z" fill="#FFC727"/>
<path opacity="0.2" d="M277.262 401.137L285.357 403.818L297.565 351.464L285.907 354.214L277.262 401.137Z" fill="black"/>
<path d="M232.764 378.737C232.757 382.169 235.533 384.957 238.965 384.965C242.397 384.972 245.185 382.196 245.193 378.764C245.2 375.332 242.424 372.544 238.992 372.536C235.559 372.528 232.771 375.305 232.764 378.737Z" fill="#FFC727"/>
<path d="M279.663 314.132C279.81 313.994 294.866 300.029 312.578 304.806C330.69 309.693 345.644 336.973 345.792 337.249L350.826 334.528C350.172 333.317 334.575 304.804 314.067 299.282C293.21 293.657 276.425 309.316 275.72 309.986L279.663 314.132Z" fill="#FFC727"/>
<path opacity="0.4" d="M279.663 314.132C279.81 313.994 294.866 300.029 312.578 304.806C330.69 309.693 345.644 336.973 345.792 337.249L350.826 334.528C350.172 333.317 334.575 304.804 314.067 299.282C293.21 293.657 276.425 309.316 275.72 309.986L279.663 314.132Z" fill="white"/>
<path d="M339.118 364.712L349.964 358.986C348.923 357.015 347.641 353.627 347.455 350.568C347.214 346.604 348.787 345.21 350.522 344.293C354.322 342.286 356.59 343.082 358.139 343.994C360.312 345.277 362.522 347.902 364.361 351.386L375.207 345.66C372.239 340.038 368.594 335.924 364.373 333.432C360.162 330.95 353.348 328.933 344.796 333.447C338.13 336.966 334.727 343.311 335.214 351.312C335.596 357.608 338.299 363.16 339.118 364.712Z" fill="#FFC727"/>
<path d="M281.949 295.022C284.3 293.398 286.706 291.868 289.121 290.352C291.53 288.827 293.979 287.369 296.428 285.911C298.889 284.474 301.351 283.039 303.853 281.67L307.607 279.62C308.877 278.968 310.129 278.287 311.415 277.661C310.245 278.482 309.042 279.247 307.856 280.042L304.244 282.332C301.834 283.857 299.386 285.315 296.936 286.771C294.474 288.207 292.012 289.642 289.51 291.01C287.014 292.39 284.509 293.753 281.949 295.022Z" fill="#263238"/>
<path d="M275.72 318.423C279.086 320.341 282.277 322.506 285.425 324.731C288.555 326.981 291.641 329.292 294.549 331.852C291.181 329.936 287.991 327.771 284.844 325.544C281.716 323.293 278.63 320.982 275.72 318.423Z" fill="#263238"/>
<path d="M281.249 315.545C283.847 316.334 286.405 317.226 288.956 318.133C291.512 319.029 294.04 319.999 296.567 320.969C299.086 321.961 301.604 322.955 304.094 324.021L307.828 325.623C309.059 326.191 310.303 326.727 311.523 327.324C310.221 326.939 308.941 326.493 307.65 326.08L303.815 324.738C301.259 323.841 298.731 322.872 296.205 321.901C293.687 320.908 291.168 319.914 288.679 318.847C286.185 317.79 283.698 316.719 281.249 315.545Z" fill="#263238"/>
<path d="M288.63 297.217C291.12 296.57 293.628 296.031 296.14 295.508C298.649 294.974 301.173 294.518 303.696 294.061C306.223 293.628 308.751 293.197 311.292 292.842L315.104 292.313C316.381 292.173 317.652 291.999 318.935 291.889C317.692 292.223 316.438 292.493 315.189 292.796L311.425 293.599C308.915 294.132 306.392 294.589 303.869 295.044C301.341 295.475 298.814 295.907 296.273 296.261C293.734 296.628 291.191 296.977 288.63 297.217Z" fill="#263238"/>
<path d="M228.622 312.787C229.044 310.764 229.723 308.792 230.601 306.912C231.48 305.034 232.556 303.233 233.906 301.632C235.26 300.048 236.926 298.651 238.931 297.878C240.936 297.131 243.231 297.137 245.242 297.94C247.277 298.733 248.882 300.443 249.747 302.409C250.196 303.391 250.477 304.444 250.593 305.521C250.694 306.596 250.651 307.714 250.223 308.788C250.005 309.316 249.664 309.849 249.118 310.204C248.854 310.388 248.531 310.493 248.214 310.542C247.902 310.587 247.582 310.573 247.218 310.447C246.549 310.162 246.214 309.624 245.926 309.139C245.669 308.635 245.471 308.119 245.336 307.598C244.774 305.511 244.717 303.388 244.816 301.289C245.114 297.108 246.212 292.926 248.465 289.328C249.602 287.55 251.028 285.913 252.801 284.717C254.551 283.513 256.6 282.684 258.692 282.444C259.721 282.195 260.784 282.218 261.835 282.167C262.362 282.111 262.885 282.239 263.41 282.266C263.931 282.335 264.465 282.326 264.972 282.477C267.05 282.85 269.003 283.684 270.827 284.693C272.64 285.738 274.255 287.08 275.729 288.536C277.19 290.007 278.519 291.616 279.587 293.388C277.222 290.013 274.177 287.083 270.587 285.121C268.78 284.182 266.871 283.411 264.86 283.099C264.369 282.962 263.854 282.986 263.352 282.93C262.847 282.915 262.344 282.8 261.838 282.868C260.829 282.942 259.813 282.937 258.828 283.202C256.812 283.486 254.942 284.297 253.296 285.427C251.642 286.559 250.308 288.112 249.236 289.812C247.113 293.251 246.073 297.313 245.814 301.349C245.701 303.366 245.752 305.428 246.256 307.344C246.497 308.26 246.93 309.292 247.561 309.581C247.642 309.589 247.696 309.632 247.794 309.635C247.892 309.627 247.997 309.649 248.09 309.625C248.28 309.594 248.465 309.543 248.624 309.429C248.952 309.223 249.212 308.857 249.387 308.437C249.738 307.587 249.802 306.579 249.714 305.608C249.616 304.631 249.366 303.661 248.962 302.761C248.171 300.962 246.768 299.408 244.95 298.646C243.142 297.878 241.025 297.816 239.148 298.469C237.262 299.146 235.633 300.446 234.275 301.953C231.55 305.003 229.713 308.818 228.622 312.787Z" fill="#263238"/>
<path d="M136.217 338.703C137.182 336.884 138.601 335.31 140.258 334.066C141.913 332.822 143.813 331.857 145.858 331.384C147.892 330.897 150.077 330.889 152.112 331.507C154.148 332.116 155.982 333.31 157.45 334.831C158.928 336.351 160.033 338.197 160.792 340.16C161.537 342.127 161.984 344.234 161.826 346.389C161.719 347.449 161.504 348.594 160.665 349.511C160.249 349.962 159.607 350.26 158.98 350.27C158.378 350.264 157.809 350.175 157.257 349.88C156.708 349.597 156.268 349.105 156.017 348.561C155.762 348.016 155.667 347.439 155.641 346.881C155.601 345.761 155.843 344.697 156.172 343.685C156.843 341.658 157.945 339.832 159.233 338.177C160.528 336.524 162.052 335.052 163.76 333.826C167.148 331.366 171.464 329.999 175.674 330.55C177.752 330.831 179.814 331.431 181.633 332.491C183.468 333.516 185.059 334.939 186.356 336.565C187.652 338.198 188.662 340.033 189.44 341.945C190.218 343.858 190.792 345.855 191.074 347.893C190.234 343.886 188.586 339.994 185.961 336.888C184.661 335.336 183.094 334.004 181.316 333.065C179.553 332.092 177.575 331.57 175.584 331.347C171.584 330.912 167.526 332.187 164.299 334.575C161.076 336.946 158.439 340.255 157.106 343.998C156.792 344.931 156.573 345.907 156.602 346.847C156.624 347.78 156.952 348.676 157.701 349.054C158.054 349.257 158.533 349.336 158.951 349.343C159.356 349.332 159.716 349.171 160.005 348.872C160.589 348.263 160.839 347.267 160.928 346.311C161.085 344.357 160.681 342.336 159.982 340.469C159.274 338.597 158.222 336.851 156.862 335.39C155.505 333.931 153.795 332.793 151.903 332.174C150.014 331.545 147.943 331.493 145.975 331.91C142.038 332.747 138.39 335.209 136.217 338.703Z" fill="#263238"/>
<path d="M89.953 97.208C89.84 93.093 88.967 88.95 87.052 85.34C86.093 83.552 84.821 81.9 83.151 80.793C81.484 79.711 79.414 79.266 77.475 79.58C75.528 79.886 73.795 81.061 72.597 82.618C71.99 83.396 71.515 84.277 71.187 85.203C70.869 86.125 70.691 87.119 70.829 88.028C70.898 88.477 71.063 88.894 71.333 89.173C71.461 89.322 71.628 89.415 71.805 89.491C71.89 89.536 71.997 89.54 72.09 89.571C72.186 89.591 72.248 89.562 72.329 89.574C73.01 89.444 73.678 88.545 74.13 87.713C75.077 85.973 75.619 83.982 75.99 81.997C76.701 78.016 76.661 73.823 75.42 69.977C74.786 68.07 73.86 66.243 72.524 64.75C71.195 63.26 69.573 62.026 67.683 61.269C66.79 60.777 65.802 60.54 64.84 60.226C64.365 60.04 63.849 60.032 63.355 59.925C62.854 59.86 62.36 59.714 61.85 59.729C59.823 59.552 57.785 59.845 55.806 60.326C51.851 61.375 48.195 63.493 45.093 66.206C46.553 64.741 48.227 63.495 49.997 62.415C51.776 61.353 53.664 60.436 55.674 59.853C57.685 59.308 59.782 58.964 61.888 59.098C62.417 59.072 62.932 59.209 63.455 59.266C63.971 59.364 64.51 59.365 65.008 59.545C66.016 59.846 67.055 60.077 67.994 60.564C69.968 61.296 71.76 62.59 73.172 64.177C74.608 65.761 75.602 67.691 76.282 69.689C77.611 73.72 77.679 78.044 76.97 82.175C76.566 84.237 76.003 86.285 74.96 88.178C74.704 88.652 74.388 89.106 74.019 89.534C73.624 89.936 73.17 90.379 72.453 90.496C72.069 90.531 71.756 90.468 71.463 90.35C71.167 90.226 70.878 90.048 70.666 89.806C70.221 89.331 70.016 88.732 69.931 88.168C69.771 87.024 69.996 85.928 70.351 84.907C70.72 83.888 71.245 82.933 71.915 82.087C73.224 80.385 75.191 79.107 77.356 78.823C79.501 78.523 81.731 79.065 83.5 80.27C85.262 81.499 86.547 83.254 87.484 85.115C88.413 86.992 89.027 88.998 89.433 91.031C89.837 93.065 90.026 95.142 89.953 97.208Z" fill="#263238"/>
<path d="M310.77 149.371C306.742 148.521 302.509 148.403 298.552 149.423C296.59 149.939 294.687 150.79 293.22 152.155C291.779 153.523 290.863 155.433 290.716 157.392C290.559 159.356 291.297 161.316 292.532 162.844C293.146 163.616 293.893 164.283 294.716 164.818C295.538 165.342 296.464 165.748 297.38 165.826C297.833 165.863 298.277 165.8 298.611 165.603C298.785 165.514 298.915 165.373 299.03 165.219C299.094 165.147 299.123 165.044 299.175 164.961C299.217 164.873 299.203 164.805 299.234 164.73C299.267 164.037 298.548 163.178 297.845 162.545C296.374 161.219 294.564 160.227 292.721 159.403C289.016 157.783 284.929 156.843 280.899 157.152C278.897 157.324 276.904 157.798 275.14 158.748C273.381 159.692 271.803 160.982 270.626 162.643C269.939 163.397 269.478 164.302 268.949 165.164C268.657 165.583 268.529 166.082 268.31 166.538C268.129 167.01 267.872 167.456 267.769 167.955C267.124 169.885 266.933 171.935 266.939 173.971C267.036 178.061 268.243 182.111 270.157 185.761C269.073 184 268.252 182.081 267.615 180.108C266.998 178.13 266.546 176.08 266.449 173.989C266.389 171.906 266.543 169.787 267.165 167.77C267.263 167.25 267.516 166.78 267.694 166.285C267.91 165.806 268.037 165.282 268.328 164.84C268.856 163.93 269.323 162.974 270.016 162.174C271.189 160.425 272.865 158.985 274.737 157.982C276.613 156.955 278.721 156.439 280.823 156.244C285.053 155.893 289.274 156.835 293.125 158.488C295.036 159.362 296.896 160.387 298.493 161.844C298.894 162.203 299.262 162.616 299.592 163.076C299.891 163.553 300.215 164.098 300.162 164.823C300.107 165.204 299.972 165.495 299.789 165.752C299.6 166.011 299.358 166.25 299.074 166.4C298.509 166.722 297.878 166.781 297.309 166.732C296.159 166.62 295.146 166.146 294.236 165.563C293.332 164.966 292.525 164.233 291.858 163.384C290.508 161.714 289.725 159.503 289.953 157.332C290.162 155.177 291.21 153.134 292.793 151.695C294.399 150.268 296.405 149.429 298.434 148.952C300.476 148.487 302.57 148.357 304.642 148.437C306.715 148.517 308.778 148.818 310.77 149.371Z" fill="#263238"/>
<path d="M248.86 84.671C248.176 82.302 248.084 79.768 248.469 77.321C248.852 74.874 249.681 72.467 251.035 70.359C252.369 68.249 254.23 66.424 256.481 65.261C258.726 64.089 261.284 63.58 263.802 63.657C266.327 63.725 268.809 64.379 271.094 65.421C273.369 66.478 275.507 67.906 277.162 69.87C277.951 70.859 278.713 72.012 278.759 73.46C278.779 74.175 278.489 74.939 277.976 75.457C277.468 75.943 276.913 76.338 276.214 76.541C275.526 76.752 274.761 76.7 274.106 76.45C273.447 76.202 272.892 75.795 272.411 75.345C271.452 74.431 270.773 73.325 270.212 72.189C269.098 69.904 268.512 67.426 268.23 64.939C267.955 62.448 268.026 59.919 268.459 57.448C269.295 52.52 271.835 47.761 275.88 44.713C277.885 43.216 280.142 42.004 282.578 41.387C284.998 40.726 287.544 40.609 290.012 40.91C292.485 41.216 294.885 41.933 297.154 42.912C299.423 43.892 301.589 45.114 303.544 46.614C299.482 43.866 294.813 41.898 289.956 41.418C287.539 41.172 285.073 41.337 282.753 42.02C280.418 42.66 278.275 43.869 276.373 45.347C274.493 46.852 272.893 48.703 271.724 50.808C270.545 52.908 269.775 55.229 269.368 57.607C268.589 62.355 269.092 67.412 271.097 71.759C271.614 72.828 272.247 73.855 273.073 74.648C273.883 75.438 274.952 75.956 275.953 75.639C276.445 75.511 276.929 75.172 277.307 74.814C277.661 74.451 277.845 73.981 277.839 73.464C277.826 72.414 277.193 71.343 276.463 70.442C274.948 68.622 272.901 67.227 270.729 66.209C268.545 65.196 266.171 64.577 263.772 64.468C261.376 64.358 258.946 64.819 256.797 65.884C254.643 66.938 252.821 68.639 251.485 70.653C248.817 74.687 247.771 79.864 248.86 84.671Z" fill="#263238"/>
<path d="M132.874 338.922C130.633 338.216 128.246 339.46 127.54 341.699C126.833 343.942 128.078 346.327 130.319 347.034C132.558 347.74 134.943 346.497 135.649 344.256C136.355 342.017 135.113 339.627 132.874 338.922ZM135.156 344.099C134.536 346.068 132.44 347.16 130.474 346.54C128.507 345.92 127.415 343.825 128.036 341.856C128.656 339.889 130.751 338.797 132.72 339.418C134.684 340.037 135.776 342.132 135.156 344.099ZM132.874 338.922C130.633 338.216 128.246 339.46 127.54 341.699C126.833 343.942 128.078 346.327 130.319 347.034C132.558 347.74 134.943 346.497 135.649 344.256C136.355 342.017 135.113 339.627 132.874 338.922ZM135.156 344.099C134.536 346.068 132.44 347.16 130.474 346.54C128.507 345.92 127.415 343.825 128.036 341.856C128.656 339.889 130.751 338.797 132.72 339.418C134.684 340.037 135.776 342.132 135.156 344.099ZM132.874 338.922C130.633 338.216 128.246 339.46 127.54 341.699C126.833 343.942 128.078 346.327 130.319 347.034C132.558 347.74 134.943 346.497 135.649 344.256C136.355 342.017 135.113 339.627 132.874 338.922ZM135.156 344.099C134.536 346.068 132.44 347.16 130.474 346.54C128.507 345.92 127.415 343.825 128.036 341.856C128.656 339.889 130.751 338.797 132.72 339.418C134.684 340.037 135.776 342.132 135.156 344.099ZM134.291 334.429C129.566 332.941 124.535 335.566 123.047 340.284C121.56 345.004 124.18 350.039 128.902 351.526C133.62 353.012 138.655 350.391 140.142 345.67C141.631 340.953 139.01 335.915 134.291 334.429ZM136.281 344.453C135.466 347.039 132.703 348.479 130.12 347.665C127.537 346.851 126.096 344.087 126.911 341.502C127.726 338.917 130.491 337.479 133.074 338.293C135.655 339.106 137.095 341.87 136.281 344.453ZM135.649 344.255C136.355 342.016 135.113 339.627 132.874 338.921C130.633 338.215 128.246 339.459 127.54 341.698C126.833 343.941 128.078 346.326 130.319 347.033C132.558 347.739 134.943 346.496 135.649 344.255ZM135.156 344.099C134.536 346.068 132.44 347.16 130.474 346.54C128.507 345.92 127.415 343.825 128.036 341.856C128.656 339.889 130.751 338.797 132.72 339.418C134.684 340.037 135.776 342.132 135.156 344.099ZM132.874 338.922C130.633 338.216 128.246 339.46 127.54 341.699C126.833 343.942 128.078 346.327 130.319 347.034C132.558 347.74 134.943 346.497 135.649 344.256C136.355 342.017 135.113 339.627 132.874 338.922ZM135.156 344.099C134.536 346.068 132.44 347.16 130.474 346.54C128.507 345.92 127.415 343.825 128.036 341.856C128.656 339.889 130.751 338.797 132.72 339.418C134.684 340.037 135.776 342.132 135.156 344.099ZM132.874 338.922C130.633 338.216 128.246 339.46 127.54 341.699C126.833 343.942 128.078 346.327 130.319 347.034C132.558 347.74 134.943 346.497 135.649 344.256C136.355 342.017 135.113 339.627 132.874 338.922ZM135.156 344.099C134.536 346.068 132.44 347.16 130.474 346.54C128.507 345.92 127.415 343.825 128.036 341.856C128.656 339.889 130.751 338.797 132.72 339.418C134.684 340.037 135.776 342.132 135.156 344.099Z" fill="#455A64"/>
<path d="M130.657 351.688L127.37 350.653L126.819 353.037L129.742 353.958L130.657 351.688Z" fill="#455A64"/>
<path d="M124.75 348.61L123.158 345.553L121.083 346.849L122.498 349.568L124.75 348.61Z" fill="#455A64"/>
<path d="M122.75 342.256L123.786 338.969L121.402 338.418L120.481 341.341L122.75 342.256Z" fill="#455A64"/>
<path d="M125.829 336.349L128.885 334.757L127.589 332.681L124.871 334.097L125.829 336.349Z" fill="#455A64"/>
<path d="M132.182 334.349L135.469 335.384L136.021 333.001L133.097 332.08L132.182 334.349Z" fill="#455A64"/>
<path d="M138.089 337.427L139.681 340.484L141.757 339.188L140.341 336.47L138.089 337.427Z" fill="#455A64"/>
<path d="M140.09 343.781L139.054 347.068L141.438 347.62L142.359 344.696L140.09 343.781Z" fill="#455A64"/>
<path d="M137.011 349.688L133.954 351.28L135.25 353.356L137.969 351.94L137.011 349.688Z" fill="#455A64"/>
<path d="M298.674 310.349C303.182 304.275 301.912 295.694 295.838 291.187C289.762 286.678 281.181 287.948 276.674 294.021C272.165 300.097 273.435 308.678 279.511 313.187C285.584 317.695 294.165 316.426 298.674 310.349ZM292.811 305.998C290.704 308.837 286.699 309.43 283.862 307.325C281.023 305.218 280.43 301.213 282.537 298.373C284.642 295.536 288.648 294.943 291.487 297.05C294.323 299.156 294.916 303.161 292.811 305.998Z" fill="#263238"/>
<path d="M281.963 314.299L277.733 311.16L275.745 314.328L279.507 317.12L281.963 314.299Z" fill="#263238"/>
<path d="M274.97 306.899L274.198 301.688L270.552 302.522L271.238 307.157L274.97 306.899Z" fill="#263238"/>
<path d="M275.257 296.721L278.397 292.491L275.229 290.503L272.437 294.265L275.257 296.721Z" fill="#263238"/>
<path d="M282.658 289.728L287.869 288.956L287.035 285.31L282.4 285.996L282.658 289.728Z" fill="#263238"/>
<path d="M292.836 290.015L297.066 293.155L299.054 289.987L295.292 287.195L292.836 290.015Z" fill="#263238"/>
<path d="M299.829 297.416L300.6 302.627L304.246 301.793L303.56 297.158L299.829 297.416Z" fill="#263238"/>
<path d="M299.542 307.594L296.402 311.824L299.57 313.812L302.362 310.05L299.542 307.594Z" fill="#263238"/>
<path d="M292.141 314.587L286.93 315.358L287.764 319.004L292.399 318.319L292.141 314.587Z" fill="#263238"/>
<path d="M282.767 302.843L285.677 306.513L290.311 305.825L292.031 301.472L289.124 297.804L284.49 298.488L282.767 302.843ZM288.283 300.965C288.943 301.455 289.08 302.382 288.59 303.042C288.102 303.699 287.173 303.839 286.513 303.349C285.856 302.861 285.718 301.929 286.206 301.272C286.696 300.613 287.626 300.478 288.283 300.965Z" fill="#263238"/>
<path d="M308.943 43.601C306.982 42.983 304.893 44.072 304.275 46.031C303.657 47.994 304.746 50.081 306.707 50.699C308.666 51.317 310.753 50.229 311.371 48.268C311.989 46.309 310.902 44.218 308.943 43.601ZM310.94 48.131C310.397 49.854 308.564 50.809 306.842 50.267C305.121 49.725 304.166 47.891 304.708 46.168C305.25 44.447 307.084 43.492 308.807 44.034C310.527 44.576 311.483 46.41 310.94 48.131ZM308.943 43.601C306.982 42.983 304.893 44.072 304.275 46.031C303.657 47.994 304.746 50.081 306.707 50.699C308.666 51.317 310.753 50.229 311.371 48.268C311.989 46.309 310.902 44.218 308.943 43.601ZM310.94 48.131C310.397 49.854 308.564 50.809 306.842 50.267C305.121 49.725 304.166 47.891 304.708 46.168C305.25 44.447 307.084 43.492 308.807 44.034C310.527 44.576 311.483 46.41 310.94 48.131ZM308.943 43.601C306.982 42.983 304.893 44.072 304.275 46.031C303.657 47.994 304.746 50.081 306.707 50.699C308.666 51.317 310.753 50.229 311.371 48.268C311.989 46.309 310.902 44.218 308.943 43.601ZM310.94 48.131C310.397 49.854 308.564 50.809 306.842 50.267C305.121 49.725 304.166 47.891 304.708 46.168C305.25 44.447 307.084 43.492 308.807 44.034C310.527 44.576 311.483 46.41 310.94 48.131ZM310.184 39.67C306.05 38.368 301.647 40.665 300.345 44.793C299.044 48.923 301.336 53.329 305.469 54.63C309.598 55.931 314.003 53.637 315.304 49.506C316.606 45.378 314.312 40.97 310.184 39.67ZM311.925 48.441C311.212 50.703 308.794 51.964 306.533 51.251C304.272 50.538 303.012 48.12 303.725 45.858C304.438 43.596 306.858 42.337 309.118 43.05C311.377 43.762 312.637 46.18 311.925 48.441ZM311.372 48.268C311.99 46.309 310.903 44.218 308.944 43.601C306.983 42.983 304.894 44.072 304.276 46.031C303.658 47.994 304.747 50.081 306.708 50.699C308.667 51.316 310.754 50.229 311.372 48.268ZM310.94 48.131C310.397 49.854 308.564 50.809 306.842 50.267C305.121 49.725 304.166 47.891 304.708 46.168C305.25 44.447 307.084 43.492 308.807 44.034C310.527 44.576 311.483 46.41 310.94 48.131ZM308.943 43.601C306.982 42.983 304.893 44.072 304.275 46.031C303.657 47.994 304.746 50.081 306.707 50.699C308.666 51.317 310.753 50.229 311.371 48.268C311.989 46.309 310.902 44.218 308.943 43.601ZM310.94 48.131C310.397 49.854 308.564 50.809 306.842 50.267C305.121 49.725 304.166 47.891 304.708 46.168C305.25 44.447 307.084 43.492 308.807 44.034C310.527 44.576 311.483 46.41 310.94 48.131ZM308.943 43.601C306.982 42.983 304.893 44.072 304.275 46.031C303.657 47.994 304.746 50.081 306.707 50.699C308.666 51.317 310.753 50.229 311.371 48.268C311.989 46.309 310.902 44.218 308.943 43.601ZM310.94 48.131C310.397 49.854 308.564 50.809 306.842 50.267C305.121 49.725 304.166 47.891 304.708 46.168C305.25 44.447 307.084 43.492 308.807 44.034C310.527 44.576 311.483 46.41 310.94 48.131Z" fill="#263238"/>
<path d="M307.003 54.772L304.127 53.866L303.645 55.952L306.203 56.758L307.003 54.772Z" fill="#263238"/>
<path d="M301.834 52.078L300.441 49.404L298.625 50.537L299.864 52.916L301.834 52.078Z" fill="#263238"/>
<path d="M300.084 46.518L300.991 43.642L298.905 43.16L298.099 45.718L300.084 46.518Z" fill="#263238"/>
<path d="M302.778 41.349L305.453 39.956L304.319 38.14L301.94 39.379L302.778 41.349Z" fill="#263238"/>
<path d="M308.338 39.599L311.214 40.505L311.697 38.419L309.139 37.613L308.338 39.599Z" fill="#263238"/>
<path d="M313.507 42.293L314.9 44.968L316.716 43.834L315.477 41.455L313.507 42.293Z" fill="#263238"/>
<path d="M315.257 47.853L314.351 50.729L316.437 51.212L317.243 48.654L315.257 47.853Z" fill="#263238"/>
<path d="M312.563 53.022L309.889 54.415L311.022 56.231L313.401 54.992L312.563 53.022Z" fill="#263238"/>
<path d="M270.728 186.466C268.767 185.848 266.678 186.937 266.06 188.896C265.442 190.859 266.531 192.946 268.492 193.564C270.451 194.182 272.538 193.094 273.156 191.133C273.773 189.174 272.687 187.083 270.728 186.466ZM272.724 190.996C272.181 192.719 270.348 193.674 268.627 193.132C266.906 192.59 265.951 190.756 266.493 189.033C267.035 187.312 268.869 186.357 270.592 186.899C272.311 187.441 273.267 189.275 272.724 190.996ZM270.728 186.466C268.767 185.848 266.678 186.937 266.06 188.896C265.442 190.859 266.531 192.946 268.492 193.564C270.451 194.182 272.538 193.094 273.156 191.133C273.773 189.174 272.687 187.083 270.728 186.466ZM272.724 190.996C272.181 192.719 270.348 193.674 268.627 193.132C266.906 192.59 265.951 190.756 266.493 189.033C267.035 187.312 268.869 186.357 270.592 186.899C272.311 187.441 273.267 189.275 272.724 190.996ZM270.728 186.466C268.767 185.848 266.678 186.937 266.06 188.896C265.442 190.859 266.531 192.946 268.492 193.564C270.451 194.182 272.538 193.094 273.156 191.133C273.773 189.174 272.687 187.083 270.728 186.466ZM272.724 190.996C272.181 192.719 270.348 193.674 268.627 193.132C266.906 192.59 265.951 190.756 266.493 189.033C267.035 187.312 268.869 186.357 270.592 186.899C272.311 187.441 273.267 189.275 272.724 190.996ZM271.968 182.535C267.834 181.233 263.431 183.53 262.129 187.658C260.828 191.789 263.12 196.194 267.253 197.495C271.382 198.796 275.787 196.502 277.088 192.371C278.39 188.243 276.096 183.835 271.968 182.535ZM273.709 191.306C272.996 193.568 270.578 194.829 268.317 194.116C266.057 193.404 264.796 190.985 265.509 188.723C266.222 186.461 268.642 185.202 270.902 185.915C273.161 186.627 274.421 189.045 273.709 191.306ZM273.156 191.133C273.773 189.174 272.687 187.083 270.728 186.466C268.767 185.848 266.678 186.937 266.06 188.896C265.442 190.859 266.531 192.946 268.492 193.564C270.451 194.182 272.538 193.094 273.156 191.133ZM272.724 190.996C272.181 192.719 270.348 193.674 268.627 193.132C266.906 192.59 265.951 190.756 266.493 189.033C267.035 187.312 268.869 186.357 270.592 186.899C272.311 187.441 273.267 189.275 272.724 190.996ZM270.728 186.466C268.767 185.848 266.678 186.937 266.06 188.896C265.442 190.859 266.531 192.946 268.492 193.564C270.451 194.182 272.538 193.094 273.156 191.133C273.773 189.174 272.687 187.083 270.728 186.466ZM272.724 190.996C272.181 192.719 270.348 193.674 268.627 193.132C266.906 192.59 265.951 190.756 266.493 189.033C267.035 187.312 268.869 186.357 270.592 186.899C272.311 187.441 273.267 189.275 272.724 190.996ZM270.728 186.466C268.767 185.848 266.678 186.937 266.06 188.896C265.442 190.859 266.531 192.946 268.492 193.564C270.451 194.182 272.538 193.094 273.156 191.133C273.773 189.174 272.687 187.083 270.728 186.466ZM272.724 190.996C272.181 192.719 270.348 193.674 268.627 193.132C266.906 192.59 265.951 190.756 266.493 189.033C267.035 187.312 268.869 186.357 270.592 186.899C272.311 187.441 273.267 189.275 272.724 190.996Z" fill="#263238"/>
<path d="M268.787 197.637L265.911 196.731L265.429 198.817L267.987 199.623L268.787 197.637Z" fill="#263238"/>
<path d="M263.618 194.943L262.226 192.269L260.409 193.402L261.648 195.781L263.618 194.943Z" fill="#263238"/>
<path d="M261.868 189.383L262.775 186.507L260.689 186.025L259.883 188.583L261.868 189.383Z" fill="#263238"/>
<path d="M264.562 184.214L267.237 182.822L266.103 181.005L263.724 182.244L264.562 184.214Z" fill="#263238"/>
<path d="M270.122 182.464L272.998 183.371L273.481 181.285L270.923 180.479L270.122 182.464Z" fill="#263238"/>
<path d="M275.291 185.158L276.684 187.833L278.5 186.699L277.261 184.32L275.291 185.158Z" fill="#263238"/>
<path d="M277.041 190.718L276.135 193.594L278.221 194.077L279.027 191.519L277.041 190.718Z" fill="#263238"/>
<path d="M274.347 195.887L271.673 197.28L272.806 199.096L275.185 197.857L274.347 195.887Z" fill="#263238"/>
<path d="M52.0211 73.993C53.5631 67.665 49.682 61.284 43.354 59.742C37.024 58.2 30.642 62.081 29.1 68.409C27.558 74.739 31.439 81.121 37.769 82.663C44.098 84.204 50.4791 80.323 52.0211 73.993ZM45.9131 72.505C45.1921 75.463 42.2141 77.275 39.2581 76.554C36.3001 75.833 34.4881 72.855 35.2091 69.897C35.9291 66.941 38.908 65.13 41.866 65.851C44.821 66.571 46.6331 69.549 45.9131 72.505Z" fill="#263238"/>
<path d="M40.088 82.723L35.681 81.649L35.165 84.828L39.084 85.783L40.088 82.723Z" fill="#263238"/>
<path d="M32.062 79.195L29.705 75.319L27.092 77.202L29.188 80.649L32.062 79.195Z" fill="#263238"/>
<path d="M28.881 71.024L29.955 66.618L26.776 66.101L25.821 70.021L28.881 71.024Z" fill="#263238"/>
<path d="M32.4101 62.998L36.2851 60.641L34.4031 58.028L30.9561 60.125L32.4101 62.998Z" fill="#263238"/>
<path d="M40.58 59.818L44.987 60.892L45.504 57.713L41.584 56.758L40.58 59.818Z" fill="#263238"/>
<path d="M48.606 63.346L50.963 67.222L53.576 65.339L51.48 61.892L48.606 63.346Z" fill="#263238"/>
<path d="M51.787 71.517L50.713 75.924L53.892 76.44L54.847 72.52L51.787 71.517Z" fill="#263238"/>
<path d="M48.2581 79.543L44.3831 81.9L46.2661 84.513L49.7131 82.416L48.2581 79.543Z" fill="#263238"/>
<path d="M36.8891 73.366L40.4261 75.303L43.8711 73.205L43.7781 69.176L40.243 67.24L36.7961 69.334L36.8891 73.366ZM40.6361 70.029C41.3241 70.196 41.7431 70.886 41.5751 71.574C41.4081 72.259 40.7181 72.681 40.0301 72.513C39.3451 72.346 38.9241 71.653 39.0911 70.968C39.2591 70.281 39.9511 69.862 40.6361 70.029Z" fill="#263238"/>
<path d="M318.59 195.938C315.9 191.842 314.388 187.235 314.388 182.365C314.388 165.169 333.271 151.227 356.55 151.227C379.829 151.227 398.695 165.17 398.695 182.365C398.695 199.56 379.829 213.503 356.55 213.503C345.262 213.503 335.029 210.233 327.469 204.888L312.946 208.581L318.59 195.938Z" fill="white"/>
<path d="M318.59 195.938C316.052 192.157 314.461 187.692 314.294 183.105C314.168 178.528 315.296 173.897 317.647 169.936C319.945 165.946 323.22 162.582 326.92 159.876C330.624 157.155 334.795 155.1 339.148 153.655C343.502 152.2 348.039 151.328 352.615 150.962C357.198 150.627 361.812 150.911 366.341 151.66C367.466 151.891 368.608 152.045 369.719 152.34L373.049 153.236L376.302 154.385C377.384 154.775 378.412 155.302 379.47 155.754C383.622 157.729 387.515 160.317 390.789 163.584C394.055 166.838 396.689 170.814 398.078 175.263C399.464 179.696 399.565 184.562 398.216 189.02C396.904 193.493 394.331 197.51 391.109 200.807C387.88 204.117 384.018 206.751 379.887 208.771C375.757 210.815 371.307 212.146 366.794 212.966C362.273 213.742 357.66 214.074 353.082 213.751C348.505 213.462 343.958 212.626 339.602 211.188C335.251 209.755 331.064 207.754 327.338 205.075L327.526 205.11L312.974 208.688L312.754 208.742L312.847 208.537L318.59 195.938ZM318.59 195.938L313.046 208.624L312.919 208.473L327.413 204.666L327.513 204.64L327.601 204.701C335.079 209.863 344.098 212.55 353.125 213.033C357.649 213.312 362.199 212.942 366.643 212.139C371.083 211.314 375.457 209.995 379.501 207.977C383.547 205.984 387.316 203.394 390.447 200.164C393.572 196.946 396.042 193.053 397.291 188.752C398.578 184.464 398.455 179.808 397.126 175.556C395.805 171.283 393.279 167.432 390.112 164.258C386.939 161.073 383.143 158.529 379.078 156.581C378.042 156.135 377.036 155.614 375.975 155.229L372.784 154.091L369.513 153.201C368.422 152.907 367.298 152.754 366.192 152.523C361.737 151.767 357.192 151.493 352.673 151.783C348.16 152.104 343.678 152.924 339.372 154.321C335.066 155.708 330.936 157.698 327.263 160.347C323.59 162.98 320.354 166.27 318.02 170.153C315.644 174.016 314.459 178.56 314.511 183.098C314.602 187.645 316.111 192.118 318.59 195.938Z" fill="#263238"/>
<path d="M334.861 187.463V189.778H325.426V176.19H334.689V178.506H328.068V181.778H333.79V183.922H328.068V187.462L334.861 187.463Z" fill="#263238"/>
<path d="M336.929 189.779V176.191H342.939C343.564 176.191 344.141 176.322 344.67 176.584C345.199 176.846 345.655 177.19 346.038 177.617C346.421 178.045 346.721 178.53 346.937 179.072C347.154 179.614 347.262 180.16 347.262 180.708C347.262 181.588 347.042 182.389 346.602 183.11C346.163 183.831 345.566 184.351 344.813 184.669L347.914 189.779H344.947L342.173 185.224H339.57V189.779H336.929ZM339.57 182.908H342.881C343.123 182.908 343.35 182.851 343.56 182.736C343.771 182.621 343.952 182.465 344.106 182.267C344.259 182.07 344.38 181.837 344.469 181.569C344.559 181.301 344.604 181.014 344.604 180.708C344.604 180.389 344.552 180.096 344.451 179.828C344.348 179.56 344.212 179.328 344.039 179.13C343.867 178.932 343.669 178.779 343.446 178.67C343.222 178.562 342.996 178.507 342.766 178.507H339.571V182.908H339.57Z" fill="#263238"/>
<path d="M349.654 189.779V176.191H355.664C356.289 176.191 356.866 176.322 357.395 176.584C357.924 176.846 358.38 177.19 358.763 177.617C359.146 178.045 359.446 178.53 359.662 179.072C359.879 179.614 359.987 180.16 359.987 180.708C359.987 181.588 359.767 182.389 359.327 183.11C358.888 183.831 358.291 184.351 357.538 184.669L360.638 189.779H357.671L354.896 185.224H352.294V189.779H349.654ZM352.296 182.908H355.606C355.848 182.908 356.075 182.851 356.285 182.736C356.496 182.621 356.677 182.465 356.831 182.267C356.984 182.07 357.105 181.837 357.194 181.569C357.284 181.301 357.329 181.014 357.329 180.708C357.329 180.389 357.277 180.096 357.176 179.828C357.073 179.56 356.937 179.328 356.764 179.13C356.592 178.932 356.394 178.779 356.171 178.67C355.947 178.562 355.721 178.507 355.491 178.507H352.296V182.908Z" fill="#263238"/>
<path d="M368.18 189.874C367.185 189.874 366.283 189.68 365.472 189.291C364.661 188.902 363.966 188.385 363.386 187.741C362.805 187.097 362.356 186.36 362.036 185.531C361.718 184.702 361.559 183.853 361.559 182.986C361.559 182.08 361.728 181.213 362.066 180.383C362.404 179.554 362.87 178.82 363.462 178.182C364.056 177.544 364.761 177.037 365.577 176.661C366.393 176.285 367.28 176.096 368.237 176.096C369.219 176.096 370.115 176.297 370.926 176.699C371.737 177.101 372.429 177.627 373.002 178.278C373.576 178.928 374.023 179.669 374.342 180.498C374.661 181.328 374.82 182.169 374.82 183.024C374.82 183.93 374.654 184.794 374.323 185.617C373.991 186.44 373.531 187.167 372.945 187.799C372.358 188.431 371.656 188.935 370.84 189.311C370.023 189.686 369.137 189.874 368.18 189.874ZM364.237 182.985C364.237 183.572 364.326 184.14 364.505 184.688C364.684 185.237 364.943 185.722 365.28 186.143C365.618 186.564 366.033 186.902 366.524 187.157C367.015 187.412 367.573 187.54 368.199 187.54C368.837 187.54 369.401 187.41 369.892 187.148C370.383 186.887 370.797 186.539 371.136 186.105C371.474 185.671 371.729 185.183 371.902 184.641C372.074 184.099 372.16 183.547 372.16 182.986C372.16 182.4 372.067 181.832 371.883 181.283C371.698 180.735 371.437 180.249 371.099 179.828C370.76 179.407 370.346 179.072 369.855 178.824C369.364 178.575 368.812 178.45 368.2 178.45C367.561 178.45 366.994 178.581 366.497 178.843C365.999 179.105 365.584 179.449 365.253 179.876C364.921 180.304 364.669 180.789 364.497 181.331C364.323 181.872 364.237 182.424 364.237 182.985Z" fill="#263238"/>
<path d="M376.849 189.779V176.191H382.859C383.484 176.191 384.061 176.322 384.59 176.584C385.119 176.846 385.575 177.19 385.958 177.617C386.341 178.045 386.641 178.53 386.857 179.072C387.074 179.614 387.182 180.16 387.182 180.708C387.182 181.588 386.962 182.389 386.522 183.11C386.083 183.831 385.486 184.351 384.733 184.669L387.834 189.779H384.867L382.093 185.224H379.49V189.779H376.849ZM379.49 182.908H382.801C383.043 182.908 383.27 182.851 383.48 182.736C383.691 182.621 383.873 182.465 384.026 182.267C384.179 182.07 384.3 181.837 384.389 181.569C384.479 181.301 384.524 181.014 384.524 180.708C384.524 180.389 384.472 180.096 384.371 179.828C384.268 179.56 384.132 179.328 383.959 179.13C383.787 178.932 383.589 178.779 383.366 178.67C383.142 178.562 382.916 178.507 382.686 178.507H379.491V182.908H379.49Z" fill="#263238"/>
</svg>
