<svg width="466" height="430" viewBox="0 0 466 430" fill="none" xmlns="http://www.w3.org/2000/svg">
<path d="M21.17 337.434C13.105 329.932 6.527 321.003 0 312.131C1.631 314.348 7.49 316.105 9.958 317.593C13.201 319.548 16.365 321.635 19.441 323.845C25.946 328.521 32.053 333.751 37.671 339.462C39.844 341.67 50.544 353.171 41.205 350.541C33.845 348.468 26.652 342.534 21.17 337.434Z" fill="#528589"/>
<path d="M45.2759 337.185C44.7499 328.896 45.8529 320.546 46.9549 312.255C46.6799 314.327 49.0769 318.263 49.6789 320.344C50.4699 323.078 51.1439 325.846 51.6989 328.64C52.8739 334.549 53.5179 340.572 53.6209 346.621C53.6609 348.96 53.5149 360.832 49.6009 354.655C46.5149 349.786 45.6339 342.82 45.2759 337.185Z" fill="#528589"/>
<path d="M56.6102 340.342C55.7612 329.36 56.9722 318.335 58.1812 307.388C57.8792 310.124 60.9982 315.385 61.8052 318.152C62.8662 321.787 63.7802 325.466 64.5442 329.175C66.1612 337.022 67.1092 345.006 67.3732 353.013C67.4752 356.109 67.5532 371.817 62.4662 363.556C58.4572 357.045 57.1882 347.807 56.6102 340.342Z" fill="#528589"/>
<path d="M71.2718 348.144C70.5608 335.03 72.5078 321.793 74.4498 308.647C73.9648 311.931 77.8008 318.12 78.7458 321.404C79.9868 325.718 81.0358 330.089 81.8918 334.501C83.7018 343.836 84.6448 353.358 84.7048 362.932C84.7278 366.634 84.2798 385.432 78.0098 375.722C73.0688 368.071 71.7558 357.059 71.2718 348.144Z" fill="#528589"/>
<path d="M88.6128 357.683C87.4438 341.11 89.4568 324.445 91.4678 307.897C90.9658 312.032 95.7138 319.937 96.9258 324.105C98.5178 329.581 99.8808 335.124 101.013 340.716C103.408 352.544 104.769 364.589 105.073 376.678C105.19 381.352 105.107 405.073 97.3568 392.663C91.2488 382.883 89.4078 368.949 88.6128 357.683Z" fill="#528589"/>
<path d="M107.442 368.516C108.612 351.943 112.945 335.726 117.259 319.624C116.181 323.647 119.772 332.141 120.386 336.438C121.193 342.083 121.764 347.763 122.1 353.458C122.811 365.506 122.466 377.622 121.069 389.633C120.529 394.277 117.116 417.751 111.185 404.376C106.512 393.836 106.647 379.782 107.442 368.516Z" fill="#528589"/>
<path d="M30.5529 354.023C22.3329 355.215 14.3899 358.014 6.50293 360.799C8.47293 360.103 12.8189 361.638 14.9789 361.799C17.8169 362.01 20.6649 362.099 23.5129 362.068C29.5379 362.001 35.5639 361.391 41.5039 360.246C43.8009 359.803 55.3889 357.216 48.5379 354.658C43.1389 352.642 36.1399 353.213 30.5529 354.023Z" fill="#528589"/>
<path d="M35.9748 364.465C25.0538 365.895 14.5138 369.35 4.0498 372.788C6.6648 371.929 12.4558 373.898 15.3298 374.118C19.1058 374.408 22.8938 374.544 26.6808 374.529C34.6918 374.495 42.7008 373.779 50.5898 372.389C53.6408 371.851 69.0288 368.694 59.8968 365.416C52.7008 362.833 43.3988 363.493 35.9748 364.465Z" fill="#528589"/>
<path d="M46.6298 377.206C33.6508 379.21 21.0978 383.841 8.63379 388.449C11.7478 387.298 18.5938 389.778 22.0018 390.026C26.4788 390.352 30.9718 390.479 35.4658 390.407C44.9728 390.256 54.4858 389.218 63.8668 387.306C67.4938 386.566 85.7968 382.257 75.0048 378.121C66.4988 374.861 55.4528 375.843 46.6298 377.206Z" fill="#528589"/>
<path d="M59.5348 392.211C43.0768 394.479 27.1838 399.881 11.4038 405.256C15.3468 403.913 24.0598 406.932 28.3888 407.259C34.0748 407.689 39.7798 407.881 45.4848 407.838C57.5528 407.746 69.6198 406.598 81.5118 404.406C86.1098 403.558 109.306 398.593 95.5658 393.564C84.7378 389.601 70.7228 390.669 59.5348 392.211Z" fill="#528589"/>
<path d="M74.012 408.406C58.035 412.963 43.058 420.543 28.189 428.08C31.904 426.197 40.955 427.962 45.287 427.678C50.977 427.305 56.653 426.695 62.295 425.851C74.231 424.066 86.016 421.234 97.483 417.394C101.917 415.909 124.185 407.736 109.875 404.686C98.599 402.283 84.873 405.308 74.012 408.406Z" fill="#528589"/>
<path d="M113.45 409.541L1.16895 314.321L115.96 406.474L113.45 409.541Z" fill="#36312E"/>
<path d="M50.9409 355.258C50.1599 353.087 49.5669 350.868 49.0649 348.631C48.5529 346.395 48.169 344.134 47.84 341.866C47.541 339.594 47.2979 337.313 47.1849 335.023C47.0619 332.733 47.0329 330.437 47.1989 328.136C47.6909 330.39 48.0629 332.642 48.4149 334.895C48.7769 337.146 49.084 339.399 49.409 341.651C49.704 343.907 50.0189 346.159 50.2789 348.424C50.5489 350.687 50.8019 352.956 50.9409 355.258Z" fill="#36312E"/>
<path d="M64.1102 366.929C62.7692 359.599 62.0132 352.198 61.4822 344.786C60.9982 337.37 60.7432 329.935 61.0792 322.491C61.9962 329.885 62.5352 337.279 63.0622 344.679C63.5412 352.08 64.0102 359.479 64.1102 366.929Z" fill="#36312E"/>
<path d="M81.262 380.2C79.634 371.565 78.482 362.875 77.448 354.172C76.461 345.463 75.594 336.74 75.207 327.961C76.839 336.595 77.99 345.285 79.021 353.989C80.005 362.698 80.872 371.421 81.262 380.2Z" fill="#36312E"/>
<path d="M99.891 393.769C99.213 390.888 98.673 387.979 98.118 385.071C97.627 382.153 97.182 379.227 96.763 376.296C95.939 370.432 95.385 364.536 94.93 358.636C94.082 346.83 93.747 335.005 93.897 323.174C95 334.958 95.62 346.753 96.51 358.519C96.924 364.405 97.435 370.28 97.969 376.156L98.398 380.561L98.883 384.961L99.368 389.365C99.559 390.829 99.731 392.297 99.891 393.769Z" fill="#36312E"/>
<path d="M113.183 406.769C112.301 396.417 112.349 386.001 112.963 375.63C113.624 365.262 114.855 354.918 117.005 344.754C116.097 355.099 115.159 365.398 114.544 375.728C113.883 386.054 113.549 396.39 113.183 406.769Z" fill="#36312E"/>
<path d="M17.7271 359.797C20.3111 358.724 22.9831 357.889 25.6901 357.199C28.3971 356.5 31.1481 355.983 33.9141 355.58C36.6851 355.205 39.4721 354.945 42.2671 354.872C45.0601 354.789 47.8581 354.858 50.6381 355.181L42.355 356.106C39.607 356.428 36.8661 356.752 34.1351 357.149C31.3991 357.517 28.675 357.96 25.944 358.405L17.7271 359.797Z" fill="#36312E"/>
<path d="M16.959 371.603C24.365 369.203 32.041 367.699 39.768 366.764C47.501 365.875 55.317 365.554 63.078 366.172C55.325 366.809 47.628 367.412 39.954 368.337C32.274 369.217 24.648 370.418 16.959 371.603Z" fill="#36312E"/>
<path d="M25.7739 385.825C34.4469 382.41 43.6349 380.307 52.9129 379.232C62.1959 378.202 71.6219 378.198 80.8389 379.592C71.5289 379.451 62.2789 379.745 53.0919 380.806C43.8969 381.822 34.8159 383.603 25.7739 385.825Z" fill="#36312E"/>
<path d="M26.1382 403.804C27.6482 403.39 29.1642 402.988 30.6862 402.606L35.2792 401.576L39.9112 400.733L44.5632 400.001C50.7772 399.09 57.0322 398.547 63.2812 398.079C69.5332 397.648 75.7822 397.293 82.0292 396.961C85.1522 396.795 88.2732 396.594 91.3932 396.374L96.0762 396.052C97.6342 395.909 99.1942 395.785 100.759 395.675C97.6792 396.263 94.5752 396.702 91.4702 397.147C88.3582 397.525 85.2412 397.863 82.1222 398.177C75.8832 398.796 69.6322 399.193 63.3952 399.659C57.1552 400.087 50.9282 400.586 44.7122 401.206L40.0552 401.72L35.4102 402.338L30.7692 403.016C29.2302 403.295 27.6872 403.556 26.1382 403.804Z" fill="#36312E"/>
<path d="M48.9702 422.206C51.5892 421.276 54.2392 420.449 56.8762 419.576L64.8402 417.145C70.1542 415.539 75.5102 414.08 80.8722 412.648C91.6122 409.843 102.413 407.26 113.344 405.257C102.709 408.479 91.9952 411.335 81.2752 414.18C75.9082 415.573 70.5472 416.991 65.1602 418.316L57.0832 420.321C54.3772 420.942 51.6872 421.62 48.9702 422.206Z" fill="#36312E"/>
<path d="M435.267 314.507C443.379 307.056 452.798 301.2 462.155 295.389C459.817 296.841 457.605 302.543 455.928 304.888C453.724 307.968 451.395 310.958 448.95 313.85C443.778 319.968 438.084 325.645 431.95 330.798C429.578 332.79 417.272 342.554 420.628 333.45C423.272 326.276 429.753 319.572 435.267 314.507Z" fill="#528589"/>
<path d="M433.622 338.558C441.927 338.684 450.164 340.44 458.343 342.19C456.299 341.753 452.187 343.833 450.066 344.27C447.279 344.844 444.466 345.298 441.637 345.632C435.653 346.339 429.599 346.508 423.561 346.136C421.226 345.992 409.402 344.914 415.867 341.497C420.963 338.804 427.977 338.472 433.622 338.558Z" fill="#528589"/>
<path d="M429.585 349.61C440.599 349.626 451.495 351.699 462.314 353.764C459.611 353.248 454.12 355.944 451.298 356.532C447.591 357.304 443.852 357.926 440.094 358.397C432.145 359.393 424.111 359.711 416.108 359.345C413.014 359.204 397.348 358.048 405.983 353.625C412.789 350.139 422.098 349.599 429.585 349.61Z" fill="#528589"/>
<path d="M420.656 363.614C433.785 363.935 446.829 366.916 459.781 369.884C456.545 369.142 450.074 372.481 446.726 373.165C442.328 374.063 437.889 374.766 433.422 375.272C423.974 376.343 414.407 376.535 404.857 375.844C401.164 375.577 382.46 373.653 392.632 368.165C400.649 363.84 411.731 363.395 420.656 363.614Z" fill="#528589"/>
<path d="M409.784 380.152C426.397 380.288 442.853 383.604 459.192 386.908C455.109 386.083 446.856 390.195 442.605 391.076C437.021 392.233 431.388 393.156 425.725 393.846C413.745 395.305 401.631 395.715 389.556 395.069C384.887 394.819 361.246 392.873 374.226 386.122C384.455 380.8 398.491 380.059 409.784 380.152Z" fill="#528589"/>
<path d="M397.506 398.072C413.936 400.539 429.762 406.134 445.476 411.699C441.55 410.308 432.8 413.221 428.468 413.496C422.777 413.857 417.07 413.98 411.366 413.868C399.3 413.63 387.248 412.335 375.383 410C370.796 409.097 347.662 403.85 361.461 398.989C372.337 395.157 386.338 396.394 397.506 398.072Z" fill="#528589"/>
<path d="M417.992 322.558C417.45 314.27 415.283 306.131 413.126 298.05C413.665 300.069 411.794 304.28 411.464 306.421C411.031 309.234 410.718 312.066 410.526 314.907C410.12 320.919 410.255 326.974 410.929 332.986C411.19 335.311 412.859 347.066 415.948 340.438C418.382 335.214 418.361 328.192 417.992 322.558Z" fill="#528589"/>
<path d="M407.157 327.144C406.589 316.144 403.972 305.366 401.367 294.664C402.018 297.338 399.601 302.957 399.155 305.805C398.569 309.547 398.136 313.312 397.854 317.088C397.258 325.077 397.343 333.117 398.11 341.092C398.406 344.175 400.346 359.764 404.33 350.918C407.471 343.946 407.544 334.621 407.157 327.144Z" fill="#528589"/>
<path d="M393.619 336.765C392.64 323.669 389.009 310.79 385.395 298.003C386.298 301.198 383.288 307.828 382.773 311.206C382.096 315.644 381.617 320.113 381.335 324.599C380.739 334.089 381.026 343.654 382.196 353.156C382.648 356.83 385.507 375.415 390.478 364.981C394.396 356.757 394.284 345.667 393.619 336.765Z" fill="#528589"/>
<path d="M377.646 348.452C376.677 331.866 372.54 315.598 368.422 299.445C369.451 303.481 365.757 311.931 365.091 316.22C364.216 321.855 363.576 327.527 363.171 333.218C362.315 345.256 362.512 357.376 363.763 369.403C364.247 374.054 367.375 397.567 373.468 384.265C378.269 373.782 378.305 359.726 377.646 348.452Z" fill="#528589"/>
<path d="M360.365 361.612C357.077 345.327 350.696 329.801 344.35 314.386C345.936 318.238 343.465 327.122 343.408 331.463C343.333 337.165 343.496 342.871 343.894 348.562C344.736 360.601 346.634 372.573 349.562 384.305C350.694 388.842 357.093 411.683 361.257 397.657C364.538 386.604 362.6 372.683 360.365 361.612Z" fill="#528589"/>
<path d="M356.136 400.84L459.88 296.384L358.996 403.582L356.136 400.84Z" fill="#36312E"/>
<path d="M415.16 342.786C417.385 342.178 419.644 341.761 421.913 341.436C424.182 341.101 426.466 340.896 428.753 340.746C431.042 340.626 433.334 340.563 435.627 340.63C437.919 340.687 440.211 340.839 442.492 341.185C440.207 341.498 437.932 341.692 435.659 341.866C433.387 342.05 431.116 342.18 428.846 342.326C426.574 342.443 424.304 342.58 422.026 342.661C419.748 342.755 417.466 342.829 415.16 342.786Z" fill="#36312E"/>
<path d="M402.492 354.998C409.905 354.237 417.342 354.064 424.773 354.117C432.204 354.217 439.636 354.546 447.031 355.466C439.588 355.799 432.174 355.756 424.756 355.701C417.339 355.597 409.926 355.484 402.492 354.998Z" fill="#36312E"/>
<path d="M387.915 371.055C396.651 370.11 405.405 369.644 414.163 369.297C422.923 368.997 431.687 368.817 440.469 369.122C431.733 370.071 422.98 370.536 414.221 370.88C405.461 371.176 396.696 371.356 387.915 371.055Z" fill="#36312E"/>
<path d="M372.924 388.561C375.849 388.112 378.791 387.802 381.735 387.476C384.683 387.215 387.635 387.002 390.589 386.814C396.499 386.453 402.421 386.363 408.338 386.373C420.174 386.455 431.989 387.049 443.772 388.128C431.938 388.302 420.13 387.994 408.331 387.957C402.431 387.908 396.534 387.956 390.634 388.027L386.209 388.109L381.785 388.247L377.357 388.385C375.881 388.461 374.404 388.517 372.924 388.561Z" fill="#36312E"/>
<path d="M358.921 400.791C369.31 400.725 379.691 401.591 389.981 403.017C400.265 404.49 410.48 406.53 420.445 409.471C410.203 407.753 400.01 406.01 389.76 404.586C379.516 403.115 369.238 401.97 358.921 400.791Z" fill="#36312E"/>
<path d="M413.244 309.318C414.111 311.978 414.734 314.707 415.208 317.461C415.692 320.214 415.991 322.998 416.177 325.787C416.333 328.579 416.374 331.378 416.227 334.169C416.09 336.96 415.802 339.744 415.262 342.49L414.991 334.16C414.886 331.396 414.778 328.637 414.597 325.883C414.445 323.127 414.218 320.376 413.988 317.619L413.244 309.318Z" fill="#36312E"/>
<path d="M401.534 307.626C403.345 315.197 404.241 322.968 404.567 330.745C404.846 338.524 404.552 346.341 403.327 354.029C403.301 346.249 403.304 338.529 402.984 330.806C402.711 323.081 402.112 315.384 401.534 307.626Z" fill="#36312E"/>
<path d="M386.665 315.296C389.388 324.21 390.763 333.535 391.106 342.869C391.404 352.204 390.667 361.602 388.554 370.68C389.426 361.41 389.859 352.166 389.523 342.923C389.231 333.679 388.17 324.485 386.665 315.296Z" fill="#36312E"/>
<path d="M368.712 314.247C369.006 315.785 369.287 317.328 369.549 318.875L370.215 323.535L370.692 328.219L371.056 332.914C371.477 339.18 371.526 345.459 371.502 351.725C371.441 357.992 371.304 364.249 371.144 370.503C371.064 373.63 371.019 376.756 370.994 379.884L370.947 384.578C370.967 386.142 370.968 387.708 370.955 389.276C370.611 386.159 370.417 383.03 370.217 379.9C370.085 376.768 369.993 373.634 369.925 370.5C369.798 364.232 369.893 357.969 369.918 351.715C369.981 345.46 369.973 339.213 369.843 332.969L369.696 328.286L369.445 323.607L369.133 318.927C368.977 317.37 368.838 315.811 368.712 314.247Z" fill="#36312E"/>
<path d="M348.574 335.563C349.295 338.248 349.911 340.954 350.574 343.651L352.372 351.781C353.555 357.205 354.59 362.659 355.597 368.117C357.55 379.044 359.277 390.014 360.415 401.07C358.038 390.215 356.033 379.309 354.038 368.399C353.071 362.939 352.078 357.484 351.18 352.009L349.816 343.8C349.41 341.054 348.945 338.318 348.574 335.563Z" fill="#36312E"/>
<path d="M385.361 296.391C377.569 290.995 367.411 290.039 357.736 290.459C354.528 290.598 351.239 290.89 348.276 292.243C346.04 293.263 344.092 294.842 342.26 296.498C329.365 308.15 320.989 324.695 319.379 341.69C319.136 344.259 319.05 346.904 319.868 349.307C320.662 351.638 322.247 353.573 323.733 355.516C328.724 362.041 332.895 369.206 336.126 376.802C337.976 381.151 339.588 385.755 342.798 389.189C345.982 392.595 350.433 394.516 354.83 396.166C359.905 398.071 365.081 399.732 370.334 401.142C374.425 402.24 381.675 404.032 385.898 403.134C388.167 402.652 390.309 401.654 392.428 400.665C399.227 397.491 403.142 393.437 409.145 388.883C422.577 378.693 425.741 365.825 429.586 349.611C430.246 346.826 430.8 343.898 430.061 341.192C429.484 339.082 428.162 337.281 426.705 335.678C422.982 331.583 423.07 325.333 418.537 322.208C414.371 319.336 410.704 315.526 406.375 312.952C403.179 311.051 400.019 309.891 397.177 307.368C393.152 303.795 389.818 299.478 385.361 296.391Z" fill="#712200"/>
<path d="M369.165 334.549C374.394 331.586 380.845 330.864 386.6 332.596C384.398 326.453 377.294 322.518 370.918 323.912C367.66 324.624 364.757 326.523 362.355 328.836C359.884 331.215 357.836 334.128 356.935 337.438C356.115 340.451 355.811 346.378 359.724 345.03C362.047 344.23 365.928 336.383 369.165 334.549Z" fill="#BF2200"/>
<path d="M389.327 344.967C386.831 350.618 381.016 354.649 374.849 355.003C379.991 358.196 387.314 358.406 391.704 354.24C393.666 352.378 394.876 349.866 395.843 347.34C397.019 344.268 397.907 340.903 397.108 337.712C396.183 334.019 392.099 329.504 388.23 329.01C390.405 334.292 391.788 339.393 389.327 344.967Z" fill="#9C2200"/>
<path d="M369.275 354.775C371.903 359.726 377.607 362.864 383.196 362.433C379.003 364.127 374.396 364.783 369.897 364.325C367.693 364.101 365.378 363.54 363.842 361.942C363.019 361.086 362.484 359.993 362.096 358.871C360.787 355.091 361.079 350.785 362.886 347.216C364.078 344.862 366.14 342.305 368.598 341.28C369 343.173 367.677 345.691 367.647 347.83C367.613 350.232 368.146 352.648 369.275 354.775Z" fill="#9C2200"/>
<path d="M374.073 322.344C367.47 322.783 361.203 326.735 357.96 332.504C355.389 337.078 354.718 342.442 354.097 347.652C351.516 343.6 349.841 338.975 349.228 334.211C348.697 330.083 348.985 325.76 350.732 321.983C354.376 314.11 363.61 310.216 372.277 309.829C375.067 309.704 377.903 309.873 380.565 310.719C387.155 312.813 392.143 319.659 392.209 326.58C392.265 332.485 388.174 326.643 385.49 325.084C382.06 323.089 378.039 322.08 374.073 322.344Z" fill="#9C2200"/>
<path d="M407.068 345.011C407.163 354.191 402.563 363.297 395.119 368.668C393.172 370.073 391.058 371.228 388.95 372.38C387.728 373.048 386.421 373.735 385.031 373.649C382.441 373.488 380.833 370.847 379.678 368.523C383.907 364.259 389.681 361.742 393.747 357.321C400.396 350.091 400.95 338.023 394.99 330.215C394.565 329.658 394.102 329.103 393.903 328.432C393.712 327.787 393.784 327.099 393.769 326.426C393.732 324.761 391.043 320.539 393.728 320.693C395.479 320.793 399.043 325.333 400.082 326.558C404.419 331.67 406.999 338.294 407.068 345.011Z" fill="#BF2200"/>
<path d="M360.769 362.804C357.072 358.904 355.622 353.009 357.088 347.84C355.379 349.518 352.342 348.935 350.634 347.257C348.925 345.578 348.206 343.163 347.552 340.858C346.523 337.234 345.495 333.611 344.466 329.988C342.04 336.42 339.703 343.087 339.902 349.958C340.161 358.926 345.062 367.634 352.593 372.509C360.124 377.384 370.076 378.289 378.364 374.853C378.988 374.594 375.507 372.504 375.45 372.319C374.856 370.39 378.509 368.902 374.914 367.71C372.629 366.952 369.861 367.668 367.433 366.908C364.917 366.121 362.586 364.721 360.769 362.804Z" fill="#BF2200"/>
<path d="M380.273 305.693C370.225 303.02 359.257 307.268 351.751 314.463C344.245 321.658 339.71 331.402 336.37 341.248C334.599 335.596 333.708 329.669 333.74 323.746C333.755 320.994 333.993 318.151 335.275 315.716C336.192 313.975 337.592 312.539 339.049 311.216C343.043 307.59 347.581 304.624 352.098 301.674C355.906 299.188 359.903 296.631 364.425 296.149C368.32 295.733 372.215 296.913 375.809 298.468C380.053 300.304 384.062 302.685 387.705 305.534C388.157 305.887 388.653 306.386 388.507 306.94C388.326 307.626 387.387 307.696 386.685 307.597C383.305 307.12 379.997 306.135 376.907 304.685" fill="#BF2200"/>
<path d="M415.824 327.079C417.389 328.604 418.948 330.188 419.978 332.115C421.295 334.577 421.663 337.442 421.644 340.234C421.574 351.015 416.116 361.098 409.307 369.458C407.04 372.241 404.558 374.934 401.457 376.743C398.053 378.729 394.108 379.536 390.244 380.312C386.744 381.015 382.995 381.697 379.702 380.319C389.036 376.068 398.633 371.631 405.601 364.104C407.411 362.149 409.039 359.97 409.978 357.477C411.253 354.09 411.177 350.338 410.647 346.758C409.301 337.666 405.151 329.235 399.802 321.844C398.49 320.032 392.155 314.332 392.634 312.243C393.68 307.687 400.706 314.009 401.848 314.898C406.726 318.698 411.394 322.766 415.824 327.079Z" fill="#9C2200"/>
<path d="M343.948 369.279C349.768 376.101 359.242 378.26 368.033 380.031C375.597 381.555 383.192 383.084 390.895 383.521C380.904 387.214 369.812 389.23 359.614 386.154C352.598 384.038 346.384 379.57 341.773 373.874C339.826 371.47 338.156 368.856 336.523 366.228C334.639 363.196 332.795 360.127 331.337 356.869C326.407 345.855 326.226 332.81 330.848 321.665C333.919 329.436 331.978 337.977 335.975 345.462C337.889 349.047 337.578 353.391 338.453 357.333C339.412 361.656 341.045 365.877 343.948 369.279Z" fill="#9C2200"/>
<path d="M383.91 335.639C384.624 335.673 385.377 335.728 385.968 336.129C387.151 336.932 387.137 338.669 386.833 340.066C386.038 343.719 384.138 347.1 381.555 349.803C380.802 350.591 379.963 351.342 378.939 351.718C377.916 352.094 376.669 352.028 375.851 351.307C375.073 350.621 374.828 349.478 374.987 348.452C375.146 347.427 375.649 346.491 376.169 345.594C377.11 343.972 378.133 342.398 379.234 340.88C379.247 340.335 378.386 340.415 377.92 340.697C376.951 341.282 375.983 341.866 375.014 342.451C374.275 342.897 373.167 343.275 372.684 342.56C371.457 340.745 373.924 337.148 375.475 336.457C377.982 335.342 381.241 335.509 383.91 335.639Z" fill="#BF2200"/>
<path d="M400.959 379.014C391.077 385.775 379.475 389.779 367.648 391.647C374.029 394.257 380.792 395.932 387.653 396.601C389.666 396.797 391.716 396.906 393.694 396.486C396.724 395.844 399.362 394.015 401.753 392.046C411.804 383.769 419.073 372.172 422.144 359.519C422.366 358.605 423.348 355.559 422.722 354.767C421.608 353.359 420.971 356.042 420.506 356.982C419.021 359.988 417.225 362.843 415.204 365.517C411.242 370.758 406.377 375.307 400.959 379.014Z" fill="#BF2200"/>
<path d="M63.5679 51.9864L130.568 51.4864L111.943 15.2374L81.3179 4.36245L61.7739 2.54144L63.5679 51.9864Z" fill="#F1D7AB"/>
<path d="M62.7088 51.9865C70.8169 51.9865 77.3898 40.9055 77.3898 27.2365C77.3898 13.5674 70.8169 2.48645 62.7088 2.48645C54.6007 2.48645 48.0278 13.5674 48.0278 27.2365C48.0278 40.9055 54.6007 51.9865 62.7088 51.9865Z" fill="#E68F64"/>
<path d="M61.0857 2.63544C59.6847 3.45644 58.6367 4.72844 57.8087 6.08744C56.9687 7.44844 56.3197 8.91944 55.7837 10.4274C54.6917 13.4354 54.0627 16.5964 53.7917 19.7704C53.2317 26.1144 54.0607 32.5984 56.2767 38.5124C56.8407 39.9734 57.5257 41.3784 58.4387 42.5574C59.3287 43.7234 60.5247 44.6664 61.8267 44.9184C62.4707 45.0444 63.1017 44.9814 63.6847 44.7304C64.2757 44.4704 64.8587 44.0314 65.3927 43.5064C66.4767 42.4744 67.3637 41.2214 68.0797 39.8664C69.5107 37.1424 70.2957 34.0574 70.7407 30.9474C71.1717 27.8324 71.2757 24.6344 71.0677 21.4974C70.8747 18.3684 70.3177 15.2404 69.0837 12.4354C68.4757 11.0704 67.6317 9.76044 66.5337 9.18744C65.4697 8.61744 64.0657 8.90043 62.9637 9.73643C61.8627 10.5494 61.0337 11.8604 60.4267 13.2384C59.8127 14.6304 59.4007 16.1474 59.0877 17.6814C58.4847 20.7534 58.3327 23.9274 58.6297 27.0604C58.7827 28.6264 59.0537 30.1834 59.4497 31.7064C59.6427 32.4694 59.8767 33.2214 60.1397 33.9634C60.3927 34.7074 60.6807 35.4264 61.0817 35.9624C61.4957 36.5044 61.9427 36.7014 62.5047 36.5064C63.0677 36.3184 63.5477 35.7844 63.8947 35.1424C64.5827 33.8374 64.8997 32.2404 65.1197 30.6914C65.3387 29.1234 65.4107 27.5204 65.4737 25.9114C65.5347 24.3044 65.5757 22.7014 65.4477 21.1114C65.3197 19.5244 65.0317 17.9394 64.3887 16.4814C63.7657 15.0424 62.8047 13.6194 61.2997 12.9664C62.8467 13.5234 63.9327 14.9164 64.6617 16.3544C65.3977 17.8214 65.7677 19.4444 65.9737 21.0584C66.1807 22.6784 66.2147 24.3084 66.2277 25.9244C66.2387 27.5384 66.2437 29.1664 66.0927 30.8044C65.9137 32.4414 65.6557 34.0804 64.8887 35.6694C64.4967 36.4384 63.8897 37.2524 62.9147 37.6294C62.4387 37.8154 61.8467 37.8614 61.3137 37.6664C60.7797 37.4764 60.3887 37.1104 60.0897 36.7454C59.5037 35.9974 59.1837 35.1944 58.8907 34.4274C58.5927 33.6564 58.3247 32.8744 58.0997 32.0804C57.6387 30.4944 57.3087 28.8714 57.1017 27.2334C56.6827 23.9574 56.7607 20.6094 57.3917 17.3494C57.7077 15.7234 58.1267 14.1024 58.7997 12.5334C59.4797 10.9784 60.3807 9.42644 61.8737 8.28144C62.6127 7.72944 63.4767 7.29344 64.4457 7.11944C65.4067 6.93144 66.4787 7.07144 67.3807 7.52744C68.2807 7.98344 68.9607 8.67144 69.5037 9.38544C70.0497 10.1054 70.4667 10.8724 70.8247 11.6494C72.2207 14.7534 72.8327 18.0784 73.0617 21.3714C73.2477 24.6714 73.1097 27.9554 72.6287 31.2264C72.1287 34.4824 71.2827 37.7424 69.6817 40.7284C68.8787 42.2134 67.8707 43.6214 66.6037 44.8034C65.9817 45.3954 65.2637 45.9584 64.3727 46.3434C63.4717 46.7304 62.4247 46.8164 61.4897 46.6164C59.5987 46.2134 58.1307 44.9624 57.1087 43.5684C56.0827 42.1614 55.3947 40.6074 54.8407 39.0484C52.7097 32.8124 52.0497 26.1534 52.8227 19.6714C53.2497 16.4374 54.0417 13.2454 55.2927 10.2414C55.9077 8.73844 56.6327 7.27044 57.5577 5.92844C58.4837 4.59344 59.6357 3.36644 61.0857 2.63544Z" fill="#50191B"/>
<path d="M363.122 348.592L351.178 344.77L362.034 341.717C361.756 339.693 361.51 337.632 361.29 335.542L352.701 334.111L360.811 330.448C355.632 267.397 374.009 178.104 382.893 116.315L368.691 111.77L384.127 107.428C384.303 106.109 384.475 104.802 384.64 103.514L370.214 101.11L385.764 94.0884C387.075 82.1494 387.715 71.8924 387.32 63.9134C383.813 -6.80958 342.896 0.418429 323.355 0.0634286C303.814 -0.292571 61.7739 2.54143 61.7739 2.54143C61.7739 2.54143 103.068 1.98742 106.78 63.9124C107.773 80.4794 105.989 102.765 102.976 127.932L117.417 133.09L101.882 136.769C101.642 138.659 101.397 140.559 101.147 142.475L111.326 144.511L100.439 147.825C95.8289 182.263 89.8149 220.339 85.8009 255.812L96.0959 259.489L85.1089 262.091C84.8329 264.667 84.5649 267.231 84.3149 269.772L90.0049 270.91L84.0319 272.728C80.2559 312.418 79.8629 347.314 88.0759 367.845C111.456 426.294 159.714 424.661 179.083 425.406L404.762 404.487C380.769 399.11 368.392 378.035 363.122 348.592Z" fill="white"/>
<path d="M149.776 422.797C149.776 422.797 224.514 434.522 304.726 426.5C384.938 418.479 398.136 413.904 403.716 410.068C406.454 408.186 409.787 398.761 408.708 388.665C407.587 378.184 401.899 367.027 396.392 365.428C385.581 362.289 330.827 369.962 280.957 372.752C231.086 375.542 159.941 372.403 159.941 372.403L149.776 422.797Z" fill="#F1D7AB"/>
<path d="M169.782 400.934C172.558 387.19 168.2 374.713 160.047 373.066C151.895 371.419 143.035 381.226 140.258 394.971C137.482 408.715 141.841 421.192 149.993 422.839C158.146 424.486 167.006 414.679 169.782 400.934Z" fill="#E68F64"/>
<path d="M158.387 372.888C156.812 373.428 155.498 374.493 154.388 375.691C153.266 376.888 152.313 378.235 151.468 379.643C149.757 382.445 148.48 385.496 147.561 388.632C145.706 394.898 145.221 401.588 146.245 407.988C146.515 409.573 146.918 411.126 147.598 412.5C148.257 413.857 149.27 415.052 150.536 415.573C151.161 415.832 151.814 415.898 152.455 415.763C153.106 415.621 153.783 415.296 154.428 414.876C155.73 414.057 156.879 412.976 157.875 411.757C159.87 409.305 161.288 406.361 162.367 403.323C163.434 400.277 164.188 397.082 164.618 393.883C165.059 390.695 165.135 387.435 164.462 384.359C164.127 382.861 163.545 381.368 162.548 380.561C161.585 379.764 160.105 379.766 158.822 380.385C157.544 380.982 156.443 382.135 155.551 383.399C154.65 384.676 153.926 386.119 153.301 387.599C152.07 390.568 151.273 393.731 150.936 396.944C150.772 398.551 150.729 400.172 150.818 401.785C150.858 402.592 150.94 403.397 151.054 404.196C151.158 404.996 151.302 405.778 151.597 406.402C151.903 407.035 152.323 407.33 152.934 407.247C153.544 407.171 154.137 406.729 154.617 406.152C155.576 404.977 156.218 403.434 156.754 401.92C157.292 400.387 157.689 398.79 158.078 397.184C158.465 395.58 158.831 393.976 159.024 392.351C159.217 390.729 159.248 389.076 158.897 387.478C158.562 385.904 157.882 384.279 156.502 383.317C157.943 384.193 158.751 385.814 159.191 387.407C159.632 389.031 159.673 390.738 159.552 392.401C159.43 394.071 159.132 395.717 158.816 397.344C158.498 398.969 158.171 400.606 157.686 402.222C157.174 403.83 156.58 405.426 155.488 406.863C154.938 407.555 154.165 408.248 153.114 408.427C152.6 408.517 152 408.443 151.508 408.141C151.013 407.843 150.696 407.399 150.47 406.972C150.035 406.104 149.876 405.233 149.738 404.403C149.595 403.568 149.485 402.727 149.42 401.883C149.28 400.196 149.278 398.498 149.403 396.81C149.648 393.433 150.407 390.085 151.703 386.937C152.351 385.367 153.101 383.824 154.095 382.385C155.093 380.962 156.313 379.587 158.041 378.742C158.894 378.338 159.847 378.076 160.853 378.099C161.853 378.105 162.896 378.462 163.707 379.1C164.515 379.738 165.057 380.565 165.458 381.391C165.859 382.223 166.122 383.078 166.325 383.931C167.098 387.331 167.037 390.796 166.598 394.151C166.115 397.505 165.311 400.778 164.163 403.967C163 407.137 161.488 410.241 159.275 412.916C158.167 414.244 156.869 415.453 155.359 416.384C154.615 416.853 153.78 417.271 152.81 417.476C151.83 417.681 150.765 417.555 149.869 417.166C148.056 416.38 146.838 414.829 146.094 413.223C145.35 411.603 144.973 409.902 144.732 408.224C143.854 401.525 144.541 394.697 146.632 388.338C147.716 385.174 149.159 382.125 151.024 379.358C151.947 377.972 152.973 376.643 154.174 375.48C155.374 374.33 156.78 373.33 158.387 372.888Z" fill="#50191B"/>
<path d="M105.918 152.554C106.094 155.523 106.074 158.477 105.985 161.425C105.908 164.374 105.714 167.313 105.498 170.251C105.244 173.186 104.966 176.118 104.572 179.042C104.19 181.967 103.737 184.885 103.086 187.788C102.907 184.819 102.926 181.865 103.016 178.917C103.094 175.968 103.287 173.029 103.506 170.091C103.762 167.156 104.04 164.224 104.435 161.301C104.817 158.375 105.269 155.456 105.918 152.554Z" fill="#E68F64"/>
<path d="M102.381 195.119C102.636 196.036 102.696 196.91 102.72 197.775C102.73 198.638 102.674 199.487 102.56 200.328C102.447 201.169 102.274 202.002 102.033 202.83C101.78 203.658 101.487 204.483 100.993 205.298C100.652 204.407 100.531 203.528 100.47 202.654C100.421 201.78 100.46 200.914 100.579 200.058C100.697 199.202 100.891 198.356 101.172 197.528C101.466 196.701 101.817 195.886 102.381 195.119Z" fill="#E68F64"/>
<path d="M112.79 176.664C112.891 178.153 112.829 179.593 112.727 181.022C112.625 182.45 112.483 183.866 112.291 185.274C112.106 186.683 111.864 188.085 111.584 189.489C111.303 190.894 110.979 192.298 110.483 193.706C110.147 192.25 110.039 190.792 110.03 189.34C110.023 187.888 110.11 186.439 110.309 185.005C110.502 183.57 110.801 182.15 111.195 180.752C111.59 179.355 112.081 177.978 112.79 176.664Z" fill="#E68F64"/>
<path d="M107.376 209.32C107.833 210.131 108.057 210.976 108.207 211.824C108.344 212.673 108.378 213.53 108.319 214.38C108.261 215.23 108.107 216.074 107.851 216.895C107.584 217.714 107.242 218.518 106.674 219.257C106.42 218.361 106.343 217.521 106.292 216.691C106.253 215.862 106.266 215.049 106.325 214.239C106.383 213.429 106.485 212.622 106.64 211.807C106.808 210.991 107 210.17 107.376 209.32Z" fill="#E68F64"/>
<path d="M103.303 219.253C103.662 220.167 103.812 221.068 103.914 221.965C104.003 222.862 104.015 223.753 103.959 224.641C103.903 225.529 103.778 226.412 103.575 227.289C103.36 228.166 103.095 229.04 102.619 229.901C102.258 228.987 102.106 228.086 102.005 227.188C101.916 226.291 101.904 225.4 101.963 224.512C102.021 223.625 102.146 222.742 102.349 221.864C102.567 220.988 102.831 220.114 103.303 219.253Z" fill="#E68F64"/>
<path d="M95.6616 358.909C97.0846 362.975 98.6226 366.955 100.383 370.828C102.155 374.693 104.105 378.466 106.306 382.091C108.474 385.735 110.889 389.229 113.469 392.609C116.061 395.982 118.851 399.21 121.77 402.378C118.293 399.83 115.13 396.847 112.265 393.602C109.388 390.363 106.841 386.83 104.593 383.121C102.377 379.392 100.455 375.485 98.9466 371.423C97.4276 367.368 96.2796 363.175 95.6616 358.909Z" fill="#E68F64"/>
<path d="M116.119 392.027C116.901 392.159 117.544 392.449 118.157 392.774C118.761 393.109 119.312 393.503 119.82 393.948C120.328 394.392 120.789 394.889 121.2 395.444C121.602 396.008 121.971 396.611 122.201 397.371C121.418 397.24 120.773 396.952 120.162 396.626C119.558 396.291 119.006 395.897 118.501 395.45C117.995 395.004 117.533 394.507 117.123 393.952C116.721 393.387 116.351 392.785 116.119 392.027Z" fill="#E68F64"/>
<path d="M125.979 402.734C126.752 402.687 127.424 402.823 128.073 403.001C128.715 403.19 129.32 403.448 129.891 403.764C130.463 404.08 131.001 404.457 131.501 404.903C131.995 405.359 132.465 405.859 132.833 406.542C132.058 406.591 131.386 406.456 130.738 406.277C130.096 406.088 129.491 405.83 128.921 405.512C128.35 405.194 127.812 404.817 127.312 404.371C126.818 403.914 126.348 403.416 125.979 402.734Z" fill="#E68F64"/>
<path d="M124.111 391.265C124.778 391.253 125.316 391.407 125.826 391.598C126.328 391.8 126.781 392.063 127.194 392.38C127.607 392.697 127.977 393.069 128.3 393.503C128.615 393.946 128.9 394.429 129.056 395.079C128.388 395.093 127.848 394.94 127.339 394.748C126.837 394.546 126.383 394.283 125.972 393.964C125.561 393.645 125.19 393.273 124.868 392.839C124.554 392.395 124.269 391.913 124.111 391.265Z" fill="#E68F64"/>
<path d="M354.076 275.555C354.214 279.544 354.219 283.512 354.218 287.478L354.186 299.362L354.093 311.245C354.052 315.21 354.003 319.178 353.819 323.166C353.171 319.226 352.784 315.26 352.532 311.287C352.267 307.314 352.183 303.332 352.187 299.351C352.228 295.37 352.356 291.39 352.664 287.419C352.96 283.449 353.388 279.487 354.076 275.555Z" fill="#E68F64"/>
<path d="M348.049 312.873C348.338 316.948 348.481 321.009 348.607 325.068L348.918 337.237C348.981 341.293 349.071 345.348 349.096 349.409C349.133 353.47 349.151 357.534 349.023 361.617C348.321 357.592 347.868 353.54 347.537 349.48C347.194 345.42 347.018 341.35 346.92 337.278C346.859 333.205 346.871 329.131 347.053 325.061C347.221 320.99 347.511 316.923 348.049 312.873Z" fill="#E68F64"/>
<path d="M341.121 333.813C341.591 334.71 341.852 335.618 342.065 336.53C342.265 337.442 342.387 338.359 342.442 339.28C342.498 340.201 342.483 341.125 342.391 342.055C342.287 342.985 342.132 343.918 341.768 344.863C341.296 343.967 341.033 343.058 340.821 342.147C340.621 341.235 340.499 340.318 340.446 339.397C340.393 338.476 340.408 337.552 340.5 336.622C340.605 335.691 340.759 334.758 341.121 333.813Z" fill="#E68F64"/>
<path d="M341.881 315.917C342.298 316.742 342.505 317.567 342.665 318.392C342.812 319.217 342.88 320.042 342.881 320.867C342.883 321.692 342.814 322.517 342.668 323.342C342.51 324.167 342.301 324.992 341.882 325.817C341.463 324.992 341.254 324.167 341.096 323.342C340.949 322.517 340.881 321.692 340.882 320.867C340.883 320.042 340.951 319.217 341.098 318.392C341.257 317.566 341.465 316.741 341.881 315.917Z" fill="#E68F64"/>
<path d="M352.841 10.6174C357.95 13.6124 362.409 17.7654 366.002 22.5424C369.627 27.3094 372.425 32.6774 374.505 38.2834C376.551 43.9044 377.902 49.7494 378.675 55.6404C379.476 61.5314 379.692 67.4704 379.544 73.3804C378.915 67.5004 378.18 61.6534 377.133 55.8854C376.059 50.1254 374.653 44.4354 372.628 38.9724C370.639 33.5044 368.008 28.2704 364.739 23.4504C361.449 18.6514 357.51 14.2544 352.841 10.6174Z" fill="#E68F64"/>
<path d="M369.924 49.7164C370.775 52.6514 371.372 55.6384 371.838 58.6434C372.317 61.6474 372.618 64.6754 372.835 67.7084C373.014 70.7434 373.107 73.7854 373.021 76.8264C372.947 79.8664 372.74 82.9054 372.273 85.9254C371.908 82.8924 371.679 79.8754 371.46 76.8634L370.84 67.8374L370.292 58.8074C370.12 55.7914 369.956 52.7714 369.924 49.7164Z" fill="#E68F64"/>
<path d="M360.961 30.6865C361.739 31.1145 362.336 31.6815 362.877 32.2865C363.407 32.8985 363.857 33.5665 364.229 34.2745C364.602 34.9815 364.896 35.7315 365.098 36.5155C365.29 37.3045 365.416 38.1185 365.323 39.0025C364.64 38.4345 364.14 37.8105 363.672 37.1775C363.215 36.5395 362.814 35.8835 362.458 35.2025C362.102 34.5225 361.79 33.8195 361.526 33.0805C361.272 32.3355 361.042 31.5705 360.961 30.6865Z" fill="#E68F64"/>
<path d="M338.47 8.98145C340.145 9.42245 341.713 10.1584 343.184 11.0504C344.655 11.9424 346.034 12.9934 347.282 14.1824C348.535 15.3664 349.651 16.6934 350.617 18.1174C351.581 19.5414 352.394 21.0714 352.915 22.7244C351.684 21.5084 350.554 20.2884 349.404 19.0994C348.255 17.9104 347.087 16.7634 345.904 15.6314C344.717 14.5044 343.511 13.3954 342.268 12.3064C341.022 11.2154 339.747 10.1474 338.47 8.98145Z" fill="#E68F64"/>
<path d="M372.041 130.481C372.225 135.332 372.179 140.177 372.032 145.016C371.897 149.857 371.614 154.69 371.276 159.519C370.901 164.345 370.468 169.167 369.888 173.975C369.32 178.784 368.65 183.582 367.75 188.352C367.821 183.498 368.058 178.666 368.333 173.839C368.596 169.011 368.943 164.191 369.283 159.371C369.66 154.554 370.028 149.736 370.481 144.921C370.921 140.107 371.399 135.293 372.041 130.481Z" fill="#E68F64"/>
<path d="M363.163 181.885C363.706 183.951 364.012 186.047 364.206 188.149C364.413 190.251 364.462 192.362 364.447 194.47C364.395 196.578 364.276 198.686 364 200.78C363.736 202.874 363.361 204.958 362.747 207.006C362.531 204.88 362.471 202.784 362.441 200.693C362.399 198.602 362.431 196.52 362.448 194.437C362.502 192.355 362.539 190.273 362.651 188.184C362.751 186.095 362.879 184.002 363.163 181.885Z" fill="#E68F64"/>
<path d="M22.5889 89.4514L10.9849 39.4854L14.5349 38.6614C18.7069 47.9584 28.8909 53.9724 33.2549 63.1814C37.2139 71.5364 36.1019 82.0624 30.4849 89.4054" fill="#EFB954"/>
<path d="M25.0468 88.8804L13.4428 38.9144L9.89283 39.7384C10.2458 49.9224 3.75383 59.8094 3.89383 69.9984C4.02183 79.2434 9.65883 88.2024 17.9378 92.3174" fill="#EFB954"/>
<path d="M19.3363 75.9015L21.9995 75.2831L13.548 38.8878L10.8848 39.5062L19.3363 75.9015Z" fill="#50191B"/>
<path d="M14.8908 76.2545C15.5808 79.2275 18.5508 81.0775 21.5238 80.3875C24.4968 79.6975 26.3468 76.7275 25.6568 73.7545C24.9668 70.7815 21.9968 68.9315 19.0238 69.6215C16.0508 70.3125 14.1998 73.2825 14.8908 76.2545Z" fill="#50191B"/>
<path d="M39.4638 197.429L57.8008 193.171C56.6098 188.243 55.4198 183.199 54.2448 178.133L36.0278 182.364C37.2068 187.428 38.3608 192.481 39.4638 197.429Z" fill="#EFB954"/>
<path d="M49.4548 252.074L72.9148 246.626C71.2268 241.471 69.6458 236.527 68.2028 231.856L47.1758 236.739C47.9388 241.569 48.6988 246.703 49.4548 252.074Z" fill="#EFB954"/>
<path d="M69.2856 396.013C77.2836 430.451 126.545 419.011 118.547 384.573C112.179 357.153 88.2296 293.395 72.9146 246.627L49.4546 252.075C56.3176 300.806 62.9176 368.593 69.2856 396.013Z" fill="#D75A19"/>
<path d="M44.1329 219.396C45.1529 224.509 46.1669 230.356 47.1759 236.74L68.2029 231.857C66.2949 225.682 64.6279 219.986 63.2909 214.947C61.5039 208.213 59.6529 200.833 57.8019 193.17L39.4639 197.429C41.1789 205.123 42.7699 212.564 44.1329 219.396Z" fill="#7CA5C5"/>
<path d="M37.6036 101.235L27.3406 103.618L17.0776 106.001C17.0776 106.001 23.4586 130.223 30.4916 159.131L48.9756 154.839C42.5506 125.79 37.6036 101.235 37.6036 101.235Z" fill="#D75A19"/>
<path d="M34.1016 174.157C34.7476 176.886 35.3916 179.626 36.0286 182.363L54.2456 178.132C53.6106 175.394 52.9816 172.652 52.3586 169.917L34.1016 174.157Z" fill="#D75A19"/>
<path d="M48.9767 154.839L30.4927 159.131C31.6867 164.037 32.8987 169.077 34.1017 174.157L52.3587 169.917C51.1997 164.827 50.0667 159.769 48.9767 154.839Z" fill="#EFB954"/>
<g opacity="0.24">
<path d="M88.1407 395.263C78.2757 386.799 73.8047 373.722 70.8067 361.074C64.9727 336.457 63.1187 311.105 60.3327 285.96C53.5277 224.535 41.0317 163.745 23.0907 104.605L17.0767 106.002C17.0767 106.002 23.4577 130.224 30.4907 159.132C31.6847 164.038 32.8967 169.078 34.0997 174.158C34.7457 176.887 35.3897 179.627 36.0267 182.364C37.2047 187.429 38.3597 192.482 39.4627 197.43C41.1777 205.124 42.7687 212.565 44.1317 219.397C45.1517 224.51 46.1657 230.357 47.1747 236.741C47.9377 241.57 48.6977 246.704 49.4537 252.076C56.3167 300.808 62.9167 368.595 69.2837 396.014C75.6017 423.221 107.669 421.789 116.916 403.008C106.765 404.506 95.9557 401.968 88.1407 395.263Z" fill="#50191B"/>
</g>
<path d="M37.8088 85.4721L11.0464 91.6867L14.0058 104.431L40.7682 98.2162L37.8088 85.4721Z" fill="#7CA5C5"/>
<path d="M15.0617 111.886L43.1077 105.373C45.7077 104.769 47.3267 102.172 46.7227 99.5715C46.1187 96.9715 43.5217 95.3525 40.9207 95.9565L12.8747 102.469C10.2747 103.073 8.65569 105.671 9.25969 108.271C9.86369 110.872 12.4617 112.49 15.0617 111.886Z" fill="#EFB954"/>
<path d="M18.2227 47.2784C20.0117 49.4104 21.9537 51.2854 23.9327 53.1874C25.9157 55.0784 27.9017 57.0344 29.6357 59.2894C31.3337 61.5484 32.7387 64.1924 33.2597 67.0344C33.8127 69.8504 33.6337 72.7994 32.6407 75.4054C32.8127 72.6304 32.5207 69.9344 31.7457 67.4114C30.9697 64.8884 29.6627 62.6074 28.0417 60.4944C26.4507 58.3574 24.5677 56.3764 22.7967 54.2484C21.0187 52.1374 19.3067 49.8534 18.2227 47.2784Z" fill="#F2EDE2"/>
<path d="M32.0816 78.4564C32.4056 79.0194 32.5006 79.5674 32.5296 80.1064C32.5456 80.6424 32.4646 81.1654 32.3016 81.6604C32.1396 82.1554 31.8926 82.6234 31.5596 83.0444C31.2166 83.4604 30.8116 83.8434 30.2136 84.1004C30.0616 83.4694 30.0696 82.9464 30.1066 82.4434C30.1536 81.9454 30.2536 81.4804 30.4036 81.0324C30.5536 80.5834 30.7506 80.1504 31.0096 79.7234C31.2806 79.2964 31.5846 78.8724 32.0816 78.4564Z" fill="#F2EDE2"/>
<path d="M12.4028 105.08C14.5448 104.371 16.7118 103.768 18.8828 103.182C21.0508 102.585 23.2368 102.064 25.4228 101.543C27.6138 101.046 29.8058 100.55 32.0148 100.13L35.3298 99.5045C36.4428 99.3315 37.5488 99.1245 38.6688 98.9805C37.5998 99.3455 36.5168 99.6465 35.4408 99.9815L32.1888 100.879C30.0208 101.476 27.8348 101.997 25.6488 102.516C23.4568 103.012 21.2658 103.508 19.0558 103.927C16.8488 104.358 14.6378 104.772 12.4028 105.08Z" fill="#F2EDE2"/>
<path d="M65.3179 239.154C69.4599 249.487 73.3209 259.915 77.0839 270.377C78.9919 275.599 80.7979 280.855 82.6519 286.095L88.0609 301.866L93.3169 317.689C95.0149 322.982 96.7659 328.256 98.4109 333.567C101.756 344.169 105.001 354.805 107.963 365.537C103.818 355.205 99.9549 344.777 96.1929 334.316C94.2839 329.095 92.4819 323.838 90.6259 318.598L85.2209 302.826L79.9689 287.002C78.2689 281.71 76.5209 276.434 74.8759 271.124C71.5299 260.52 68.2839 249.884 65.3179 239.154Z" fill="#F2EDE2"/>
<path d="M62.255 227.395C60.365 223.134 58.798 218.769 57.372 214.362C56.634 212.165 56.008 209.937 55.342 207.72C54.711 205.493 54.131 203.253 53.536 201.016C52.997 198.765 52.453 196.515 51.95 194.256C51.489 191.987 50.982 189.729 50.594 187.444C49.763 182.887 49.079 178.3 48.731 173.651C50.301 178.04 51.619 182.472 52.874 186.915C53.533 189.129 54.09 191.367 54.711 193.588L56.444 200.283L58.082 207.002C58.589 209.253 59.153 211.488 59.622 213.75C60.619 218.259 61.557 222.787 62.255 227.395Z" fill="#F2EDE2"/>
<path d="M122.723 287.687C115.955 283 107.131 282.17 98.7271 282.534C95.9401 282.655 93.0841 282.909 90.5101 284.083C88.5681 284.969 86.8761 286.341 85.2841 287.779C74.0831 297.901 66.8071 312.272 65.4091 327.035C65.1981 329.267 65.1231 331.564 65.8331 333.651C66.5231 335.676 67.9001 337.357 69.1901 339.044C73.5251 344.712 77.1481 350.936 79.9551 357.534C81.5621 361.311 82.9631 365.311 85.7511 368.294C88.5171 371.253 92.3831 372.921 96.2031 374.354C100.612 376.008 105.108 377.451 109.67 378.676C113.224 379.63 119.521 381.186 123.19 380.406C125.161 379.987 127.022 379.121 128.862 378.262C134.768 375.505 138.169 371.983 143.383 368.028C155.051 359.176 157.799 347.999 161.139 333.915C161.713 331.496 162.194 328.952 161.551 326.602C161.05 324.769 159.901 323.205 158.636 321.813C155.402 318.256 155.479 312.827 151.541 310.112C147.922 307.617 144.736 304.308 140.977 302.072C138.201 300.421 135.456 299.413 132.987 297.222C129.491 294.118 126.595 290.368 122.723 287.687Z" fill="#712200"/>
<path d="M108.654 320.832C113.196 318.258 118.8 317.631 123.799 319.136C121.886 313.799 115.715 310.382 110.177 311.592C107.347 312.21 104.826 313.86 102.739 315.87C100.592 317.937 98.8141 320.467 98.0311 323.343C97.3191 325.96 97.0551 331.109 100.454 329.938C102.472 329.241 105.843 322.425 108.654 320.832Z" fill="#BF2200"/>
<path d="M126.168 329.882C124 334.791 118.949 338.293 113.591 338.6C118.058 341.373 124.419 341.556 128.232 337.937C129.936 336.32 130.987 334.138 131.827 331.943C132.849 329.275 133.62 326.352 132.926 323.58C132.123 320.372 128.575 316.45 125.214 316.021C127.105 320.608 128.306 325.04 126.168 329.882Z" fill="#9C2200"/>
<path d="M108.75 338.401C111.033 342.701 115.988 345.427 120.842 345.053C117.2 346.525 113.198 347.094 109.29 346.697C107.375 346.502 105.364 346.015 104.031 344.627C103.317 343.884 102.852 342.934 102.514 341.959C101.377 338.676 101.631 334.935 103.2 331.835C104.235 329.79 106.027 327.569 108.162 326.679C108.511 328.323 107.362 330.511 107.336 332.369C107.307 334.456 107.77 336.554 108.75 338.401Z" fill="#9C2200"/>
<path d="M112.918 310.23C107.182 310.612 101.738 314.044 98.9222 319.055C96.6892 323.028 96.1062 327.687 95.5662 332.213C93.3242 328.693 91.8692 324.676 91.3362 320.537C90.8752 316.952 91.1242 313.196 92.6432 309.915C95.8082 303.076 103.83 299.694 111.358 299.357C113.782 299.249 116.245 299.395 118.557 300.13C124.282 301.949 128.614 307.896 128.671 313.907C128.72 319.036 125.166 313.962 122.834 312.607C119.856 310.877 116.363 310.001 112.918 310.23Z" fill="#9C2200"/>
<path d="M141.579 329.92C141.661 337.894 137.666 345.804 131.199 350.47C129.507 351.691 127.671 352.694 125.84 353.694C124.779 354.274 123.643 354.871 122.436 354.796C120.186 354.656 118.789 352.362 117.786 350.343C121.46 346.639 126.475 344.453 130.007 340.613C135.783 334.333 136.264 323.85 131.087 317.067C130.718 316.583 130.316 316.101 130.143 315.518C129.977 314.958 130.04 314.36 130.027 313.776C129.995 312.329 127.659 308.662 129.992 308.796C131.513 308.883 134.609 312.826 135.512 313.891C139.278 318.331 141.519 324.085 141.579 329.92Z" fill="#BF2200"/>
<path d="M101.362 345.376C98.1513 341.989 96.8913 336.868 98.1643 332.377C96.6793 333.835 94.0413 333.329 92.5563 331.87C91.0723 330.412 90.4483 328.314 89.8803 326.312C88.9863 323.165 88.0933 320.017 87.1993 316.869C85.0923 322.456 83.0623 328.247 83.2343 334.216C83.4593 342.006 87.7163 349.571 94.2583 353.805C100.8 358.039 109.445 358.826 116.644 355.841C117.186 355.616 114.162 353.8 114.113 353.64C113.597 351.964 116.769 350.672 113.647 349.636C111.662 348.977 109.259 349.599 107.15 348.94C104.965 348.257 102.94 347.041 101.362 345.376Z" fill="#BF2200"/>
<path d="M118.303 295.766C109.575 293.444 100.048 297.134 93.5281 303.384C87.0081 309.634 83.0691 318.098 80.1671 326.651C78.6281 321.741 77.8551 316.593 77.8831 311.448C77.8961 309.057 78.1031 306.588 79.2161 304.473C80.0121 302.96 81.2291 301.714 82.4951 300.565C85.9641 297.415 89.9061 294.838 93.8301 292.276C97.1381 290.116 100.61 287.896 104.538 287.476C107.921 287.115 111.305 288.139 114.427 289.49C118.114 291.085 121.596 293.153 124.76 295.628C125.152 295.935 125.583 296.368 125.456 296.849C125.299 297.445 124.483 297.506 123.873 297.419C120.937 297.005 118.064 296.149 115.379 294.889" fill="#BF2200"/>
<path d="M149.184 314.343C150.544 315.667 151.897 317.044 152.793 318.718C153.937 320.856 154.256 323.345 154.24 325.77C154.179 335.135 149.438 343.894 143.523 351.155C141.554 353.573 139.397 355.912 136.704 357.483C133.747 359.208 130.321 359.909 126.964 360.583C123.924 361.194 120.667 361.787 117.807 360.589C125.915 356.896 134.251 353.042 140.304 346.504C141.876 344.806 143.29 342.913 144.106 340.748C145.214 337.806 145.148 334.547 144.687 331.437C143.518 323.539 139.913 316.215 135.267 309.795C134.128 308.221 128.624 303.269 129.041 301.455C129.949 297.498 136.053 302.989 137.044 303.761C141.282 307.063 145.336 310.597 149.184 314.343Z" fill="#9C2200"/>
<path d="M86.7501 351C91.8061 356.926 100.035 358.801 107.671 360.34C114.241 361.664 120.838 362.992 127.53 363.372C118.852 366.58 109.216 368.331 100.358 365.659C94.2641 363.821 88.8661 359.94 84.8601 354.992C83.1691 352.903 81.7181 350.633 80.3001 348.351C78.6641 345.717 77.0621 343.051 75.7951 340.221C71.5131 330.654 71.3561 319.323 75.3701 309.641C78.0381 316.391 76.3521 323.811 79.8231 330.312C81.4861 333.426 81.2161 337.2 81.9751 340.624C82.8101 344.378 84.2281 348.045 86.7501 351Z" fill="#9C2200"/>
<path d="M121.463 321.779C122.083 321.809 122.737 321.856 123.25 322.205C124.278 322.902 124.265 324.411 124.001 325.625C123.311 328.798 121.66 331.736 119.416 334.083C118.762 334.768 118.033 335.42 117.144 335.747C116.255 336.074 115.172 336.016 114.462 335.39C113.786 334.794 113.574 333.801 113.712 332.91C113.85 332.02 114.287 331.207 114.739 330.427C115.556 329.018 116.445 327.651 117.402 326.332C117.413 325.859 116.666 325.928 116.26 326.173C115.419 326.681 114.577 327.189 113.736 327.696C113.094 328.083 112.132 328.412 111.712 327.791C110.647 326.214 112.789 323.09 114.136 322.49C116.313 321.521 119.144 321.666 121.463 321.779Z" fill="#BF2200"/>
<path d="M136.272 359.456C127.688 365.329 117.61 368.807 107.337 370.43C112.88 372.697 118.754 374.152 124.715 374.733C126.463 374.904 128.244 374.998 129.962 374.634C132.594 374.076 134.885 372.487 136.962 370.777C145.692 363.587 152.007 353.514 154.675 342.523C154.868 341.729 155.721 339.083 155.177 338.396C154.209 337.173 153.656 339.503 153.252 340.32C151.962 342.931 150.402 345.411 148.646 347.734C145.205 352.285 140.979 356.236 136.272 359.456Z" fill="#BF2200"/>
<path d="M216.45 332.109C211.074 328.386 204.064 327.726 197.389 328.016C195.175 328.112 192.906 328.313 190.861 329.247C189.319 329.951 187.974 331.04 186.71 332.183C177.812 340.223 172.033 351.639 170.922 363.365C170.754 365.138 170.695 366.963 171.259 368.621C171.807 370.23 172.901 371.565 173.926 372.905C177.37 377.407 180.248 382.351 182.477 387.592C183.753 390.593 184.866 393.769 187.081 396.139C189.278 398.489 192.349 399.815 195.383 400.953C198.885 402.267 202.456 403.413 206.08 404.386C208.903 405.144 213.905 406.38 216.819 405.76C218.385 405.427 219.863 404.739 221.325 404.057C226.016 401.867 228.718 399.07 232.86 395.927C242.128 388.896 244.311 380.017 246.965 368.829C247.421 366.907 247.803 364.887 247.292 363.02C246.894 361.564 245.982 360.322 244.976 359.216C242.407 356.391 242.468 352.078 239.34 349.921C236.465 347.939 233.935 345.31 230.948 343.534C228.743 342.223 226.562 341.422 224.601 339.681C221.826 337.218 219.525 334.239 216.45 332.109Z" fill="#712200"/>
<path d="M205.274 358.438C208.882 356.394 213.333 355.895 217.304 357.09C215.785 352.851 210.883 350.136 206.483 351.098C204.235 351.589 202.232 352.9 200.574 354.496C198.869 356.138 197.456 358.147 196.834 360.432C196.268 362.511 196.059 366.601 198.758 365.67C200.363 365.118 203.041 359.703 205.274 358.438Z" fill="#BF2200"/>
<path d="M219.186 365.627C217.464 369.526 213.452 372.308 209.196 372.552C212.744 374.755 217.797 374.9 220.826 372.025C222.18 370.74 223.014 369.007 223.682 367.264C224.494 365.144 225.106 362.823 224.555 360.621C223.917 358.073 221.099 354.958 218.429 354.617C219.93 358.26 220.884 361.78 219.186 365.627Z" fill="#9C2200"/>
<path d="M205.351 372.394C207.164 375.81 211.1 377.975 214.956 377.678C212.063 378.847 208.884 379.299 205.78 378.983C204.259 378.828 202.662 378.441 201.602 377.339C201.034 376.749 200.665 375.994 200.397 375.22C199.494 372.612 199.695 369.641 200.942 367.178C201.764 365.554 203.188 363.79 204.884 363.082C205.162 364.388 204.249 366.126 204.228 367.602C204.204 369.259 204.572 370.926 205.351 372.394Z" fill="#9C2200"/>
<path d="M208.661 350.016C204.105 350.319 199.78 353.046 197.543 357.026C195.769 360.182 195.306 363.883 194.877 367.478C193.096 364.682 191.94 361.491 191.517 358.204C191.15 355.356 191.349 352.373 192.555 349.767C195.069 344.335 201.441 341.648 207.421 341.38C209.346 341.294 211.303 341.41 213.14 341.994C217.687 343.439 221.128 348.163 221.174 352.938C221.213 357.013 218.39 352.981 216.538 351.906C214.172 350.53 211.398 349.834 208.661 350.016Z" fill="#9C2200"/>
<path d="M231.428 365.657C231.493 371.991 228.32 378.274 223.183 381.981C221.839 382.95 220.381 383.748 218.927 384.542C218.084 385.003 217.182 385.477 216.223 385.418C214.436 385.307 213.326 383.484 212.53 381.881C215.448 378.939 219.432 377.202 222.237 374.152C226.825 369.163 227.207 360.836 223.095 355.449C222.802 355.065 222.482 354.682 222.345 354.219C222.213 353.774 222.263 353.299 222.253 352.835C222.227 351.686 220.372 348.773 222.225 348.879C223.433 348.948 225.892 352.08 226.61 352.926C229.6 356.451 231.38 361.022 231.428 365.657Z" fill="#BF2200"/>
<path d="M199.482 377.934C196.931 375.243 195.931 371.176 196.942 367.609C195.763 368.767 193.667 368.365 192.488 367.206C191.309 366.047 190.814 364.381 190.362 362.791C189.652 360.291 188.942 357.791 188.233 355.291C186.559 359.729 184.947 364.329 185.084 369.07C185.263 375.258 188.644 381.267 193.841 384.63C199.038 387.994 205.904 388.618 211.623 386.247C212.053 386.069 209.652 384.626 209.612 384.499C209.202 383.168 211.722 382.142 209.241 381.319C207.664 380.796 205.755 381.29 204.08 380.766C202.344 380.223 200.736 379.256 199.482 377.934Z" fill="#BF2200"/>
<path d="M212.939 338.527C206.006 336.682 198.438 339.614 193.259 344.578C188.08 349.542 184.951 356.266 182.646 363.06C181.424 359.16 180.809 355.071 180.832 350.984C180.842 349.085 181.007 347.124 181.891 345.443C182.523 344.241 183.49 343.251 184.495 342.338C187.251 339.836 190.382 337.789 193.499 335.754C196.127 334.038 198.885 332.275 202.005 331.941C204.692 331.654 207.38 332.468 209.86 333.541C212.789 334.808 215.554 336.451 218.068 338.417C218.38 338.661 218.722 339.005 218.621 339.387C218.496 339.861 217.849 339.909 217.364 339.84C215.032 339.511 212.749 338.831 210.617 337.83" fill="#BF2200"/>
<path d="M237.469 353.284C238.549 354.336 239.624 355.429 240.335 356.759C241.244 358.458 241.497 360.435 241.485 362.361C241.437 369.8 237.67 376.757 232.972 382.526C231.408 384.447 229.695 386.304 227.556 387.553C225.207 388.923 222.485 389.48 219.819 390.016C217.404 390.501 214.817 390.972 212.545 390.021C218.986 387.088 225.607 384.026 230.415 378.833C231.664 377.484 232.787 375.981 233.435 374.26C234.315 371.923 234.262 369.334 233.897 366.864C232.969 360.59 230.105 354.773 226.414 349.673C225.509 348.423 221.137 344.49 221.468 343.049C222.189 339.906 227.038 344.267 227.825 344.881C231.191 347.5 234.412 350.307 237.469 353.284Z" fill="#9C2200"/>
<path d="M187.875 382.401C191.891 387.108 198.428 388.598 204.494 389.82C209.713 390.872 214.954 391.927 220.269 392.228C213.375 394.776 205.722 396.167 198.685 394.045C193.844 392.585 189.556 389.502 186.375 385.572C185.032 383.913 183.879 382.11 182.753 380.297C181.453 378.205 180.181 376.087 179.174 373.839C175.773 366.24 175.648 357.239 178.837 349.548C180.956 354.91 179.617 360.804 182.374 365.968C183.695 368.442 183.48 371.439 184.084 374.159C184.745 377.141 185.872 380.054 187.875 382.401Z" fill="#9C2200"/>
<path d="M215.449 359.19C215.941 359.213 216.461 359.251 216.869 359.528C217.685 360.082 217.675 361.281 217.466 362.245C216.918 364.766 215.607 367.099 213.824 368.964C213.304 369.508 212.725 370.026 212.019 370.286C211.313 370.546 210.453 370.5 209.888 370.002C209.351 369.529 209.182 368.74 209.292 368.032C209.402 367.325 209.749 366.679 210.108 366.06C210.757 364.941 211.463 363.855 212.223 362.807C212.232 362.431 211.638 362.486 211.316 362.681C210.648 363.084 209.979 363.488 209.311 363.891C208.801 364.199 208.037 364.46 207.703 363.967C206.857 362.714 208.559 360.233 209.629 359.756C211.358 358.985 213.607 359.1 215.449 359.19Z" fill="#BF2200"/>
<path d="M227.213 389.118C220.395 393.783 212.389 396.546 204.228 397.835C208.631 399.636 213.297 400.792 218.032 401.253C219.421 401.388 220.835 401.463 222.2 401.174C224.291 400.731 226.111 399.469 227.761 398.11C234.696 392.399 239.712 384.397 241.831 375.667C241.984 375.036 242.662 372.935 242.23 372.388C241.461 371.417 241.022 373.268 240.701 373.916C239.676 375.99 238.437 377.96 237.042 379.805C234.308 383.422 230.951 386.56 227.213 389.118Z" fill="#BF2200"/>
<path d="M132.927 132.007C147.138 123.202 173.462 132.944 190.057 130.927C196.792 130.108 203.369 126.976 210.082 127.963C214.616 128.63 218.651 131.115 222.984 132.607C229.581 134.879 236.722 134.805 243.699 134.706C281.993 134.165 320.287 133.623 358.582 133.082" stroke="#50191B" stroke-miterlimit="10" stroke-linecap="round"/>
<path d="M130.786 150.29C147.905 145.882 165.942 145.079 183.385 147.947C192.917 149.514 202.405 152.173 212.052 151.677C218.639 151.338 225.115 149.529 231.711 149.571C241.056 149.631 250.216 153.406 259.518 152.505C265.767 151.9 271.735 149.2 278.014 149.141C283.195 149.092 288.201 150.843 293.296 151.784C310.222 154.912 339.857 148.857 356.916 151.147" stroke="#50191B" stroke-miterlimit="10" stroke-linecap="round"/>
<path d="M126.88 170.844C130.864 167.693 136.25 166.387 141.235 167.361C144.85 168.068 148.16 169.883 151.735 170.771C161.406 173.173 171.255 168.58 181.063 166.816C193.47 164.585 206.176 166.926 218.649 168.757C259.38 174.734 320.783 175.737 361.648 170.758" stroke="#50191B" stroke-miterlimit="10" stroke-linecap="round"/>
<path d="M125.73 192.528C136.063 188.072 147.482 186.159 158.703 187.004C171.723 187.985 184.44 192.6 197.483 191.972C206.034 191.56 214.321 188.903 222.828 187.939C232.661 186.825 242.593 187.99 252.42 189.155C264.068 190.535 275.716 191.916 287.364 193.296C301.63 194.987 363.533 191.4 363.533 191.4" stroke="#50191B" stroke-miterlimit="10" stroke-linecap="round"/>
<path d="M121.709 213.125C142.369 211.088 163.292 209.057 183.808 212.233C190.775 213.311 197.665 214.987 204.697 215.489C214.009 216.153 223.325 214.744 232.634 214.056C243.552 213.248 254.515 213.431 265.461 213.614C283.834 213.921 341.246 215.759 359.618 216.066" stroke="#50191B" stroke-miterlimit="10" stroke-linecap="round"/>
<path d="M117.926 235.338C131.242 226.847 148.507 234.216 164.288 234.811C170.953 235.062 177.596 234.038 184.26 233.761C193.225 233.389 202.182 234.37 211.127 235.068C244.691 237.687 324.629 233.657 358.267 232.293" stroke="#50191B" stroke-miterlimit="10" stroke-linecap="round"/>
<path d="M115.95 260.535C139.064 249.971 165.978 259.416 191.368 258.315C204.187 257.759 216.978 254.457 229.709 256.05C237.707 257.051 245.353 259.955 253.304 261.276C268.594 263.817 338.408 260.021 353.533 256.638" stroke="#50191B" stroke-miterlimit="10" stroke-linecap="round"/>
<path d="M134.731 281.428C149.43 278.671 164.508 278.853 179.456 279.325C216.876 280.507 305.444 283.855 342.714 280.306" stroke="#50191B" stroke-miterlimit="10" stroke-linecap="round"/>
<path d="M159.863 304.913C176.411 297.315 195.436 305.523 213.535 307.52C237.588 310.173 301.61 303.857 325.808 303.974" stroke="#50191B" stroke-miterlimit="10" stroke-linecap="round"/>
<path d="M227.817 329.622C248.937 321.995 304.353 330.764 326.485 326.966" stroke="#50191B" stroke-miterlimit="10" stroke-linecap="round"/>
<path d="M444.716 72.7464C433.26 69.9834 421.992 76.4804 413.739 84.1564C413.095 84.7554 412.477 85.3754 411.852 85.9894C411.074 95.1554 410.85 104.388 411.199 113.624C409.967 105.667 408.991 97.6834 408.26 89.6884C407.421 90.6014 406.601 91.5304 405.794 92.4694C405.311 101.589 405.035 110.728 404.978 119.877C402.763 113.247 401.124 106.459 400.079 99.6104C391.005 111.8 383.749 125.446 375.812 138.457C370.23 147.607 364.23 156.565 358.401 165.605C355.569 179.901 354.085 194.5 353.996 209.165C352.269 198.702 351.221 188.162 350.845 177.628C350.142 178.786 349.448 179.949 348.76 181.115C347.827 194.009 347.194 206.936 346.878 219.883C344.456 211.166 342.818 202.277 341.971 193.35C338.505 200.073 332.461 223.518 331.436 231.038C326.775 265.247 323.276 266.706 325.806 293.546C322.604 281.929 319.401 270.312 316.199 258.696C314.838 282.371 315.588 307.69 328.886 328.226C317.769 314.569 311.022 297.707 309.86 280.675C304.725 299.071 309.33 320.124 321.873 335.598C325.475 340.041 329.602 344.073 333.149 348.557C335.768 351.867 342.173 360.093 342.173 360.093C342.173 360.093 361.413 350.469 366.835 345.815C382.971 331.964 395.18 313.912 401.935 293.916C394.354 302.21 385.589 309.481 375.943 315.476C388.644 301.598 398.325 285.122 404.232 267.329C397.184 275.519 390.136 283.709 383.088 291.899C391.747 263.532 403.443 236.144 417.935 210.3C419.588 207.351 421.281 204.419 422.996 201.495C414.243 206.456 405.048 210.819 395.924 215.135C407.952 206.575 419.636 197.574 430.944 188.156C431.946 186.488 432.947 184.819 433.945 183.149C425.106 187.918 416.004 192.255 406.681 196.132C419.258 186.764 431.511 176.998 443.425 166.864C451.143 153.071 458.022 138.921 462.478 123.751C465.264 114.265 467.06 104.128 464.655 94.3354C462.251 84.5394 454.82 75.1834 444.716 72.7464Z" fill="#253A4E"/>
<path d="M444.386 71.0374C432.93 68.2744 421.662 74.7714 413.409 82.4474C412.765 83.0464 412.147 83.6664 411.522 84.2804C410.744 93.4464 410.52 102.679 410.869 111.915C409.637 103.958 408.661 95.9744 407.93 87.9794C407.091 88.8924 406.271 89.8214 405.464 90.7604C404.981 99.8804 404.705 109.018 404.648 118.168C402.432 111.538 400.794 104.75 399.749 97.9014C390.675 110.091 383.419 123.737 375.482 136.748C369.9 145.898 363.9 154.856 358.071 163.896C355.239 178.192 353.755 192.791 353.666 207.456C351.939 196.993 350.891 186.453 350.515 175.919C349.812 177.077 349.118 178.24 348.43 179.406C347.497 192.3 346.864 205.227 346.548 218.174C344.126 209.457 342.489 200.568 341.641 191.641C338.175 198.364 332.131 221.809 331.106 229.329C326.445 263.538 322.946 264.997 325.476 291.837C322.274 280.22 319.071 268.603 315.869 256.987C314.508 280.662 315.258 305.981 328.556 326.517C317.439 312.86 310.692 295.998 309.529 278.966C304.394 297.362 308.999 318.415 321.542 333.889C325.144 338.332 329.271 342.364 332.818 346.848C335.437 350.158 341.842 358.384 341.842 358.384C341.842 358.384 361.082 348.76 366.504 344.106C382.64 330.256 394.849 312.203 401.604 292.207C394.023 300.501 385.258 307.772 375.612 313.767C388.313 299.889 397.994 283.413 403.901 265.62C396.853 273.81 389.805 282 382.757 290.19C391.416 261.823 403.112 234.435 417.604 208.591C419.258 205.642 420.951 202.71 422.665 199.786C413.912 204.747 404.717 209.11 395.593 213.426C407.621 204.866 419.304 195.865 430.613 186.447C431.615 184.779 432.616 183.11 433.614 181.44C424.775 186.21 415.673 190.546 406.35 194.423C418.927 185.055 431.18 175.289 443.094 165.155C450.811 151.362 457.691 137.212 462.147 122.042C464.934 112.556 466.729 102.419 464.324 92.6264C461.921 82.8314 454.49 73.4744 444.386 71.0374Z" fill="#7CA5C5"/>
<path opacity="0.36" d="M340.572 344.364C335.78 337.21 332.376 329.131 330.604 320.705C333.308 325.106 336.406 329.264 339.848 333.114C330.487 311.083 328.044 286.171 332.948 262.742C333.723 274.455 335.807 286.081 339.15 297.334C338.883 277.487 339.547 257.627 341.139 237.843C344.572 247.983 346.156 258.747 345.789 269.446C347.714 252.38 349.639 235.313 351.564 218.247C354.752 226.946 356.058 236.33 355.367 245.57C358.686 208.132 370.532 171.045 392.416 140.488C387.705 150.09 385.351 160.838 385.617 171.53C394.173 149.376 406.513 128.69 421.941 110.636C420.998 113.439 420.056 116.242 419.113 119.044C425.657 105.921 433.039 93.2174 441.2 81.0334C435.889 107.521 430.191 134.92 414.346 156.801C421.55 150.139 428.754 143.476 435.958 136.813C424.813 160.433 410.669 182.637 393.974 202.722C396.787 201.176 399.6 199.631 402.413 198.085C393.889 208.082 386.031 218.645 378.906 229.683C383.817 227.157 388.395 223.985 392.485 220.274C383.272 239.042 374.06 257.809 364.847 276.577C370 272.55 374.556 267.759 378.321 262.411C374.312 279.556 367.375 296.013 357.9 310.854C361.961 306.356 366.513 302.301 371.448 298.783C367.484 308.502 362.325 317.732 356.123 326.199C361.078 323.065 366.032 319.931 370.987 316.797C365.172 330.782 355.287 343.046 342.857 351.7" fill="#4C6E91"/>
<path d="M327.471 416.956C331.175 392.889 340.027 340.161 345.342 316.389C350.657 292.621 356.942 269.057 364.546 245.917C372.149 222.783 381.077 200.071 391.654 178.146C402.225 156.225 414.457 135.096 428.515 115.256C414.773 135.317 402.896 156.607 392.698 178.64C382.494 200.678 373.955 223.454 366.746 246.621C359.536 269.794 353.648 293.361 348.729 317.118C343.811 340.879 338.026 378.874 334.715 402.915L327.471 416.956Z" fill="#50191B"/>
<path d="M327.059 414.819C330.763 390.753 339.615 338.024 344.93 314.252C350.245 290.484 356.53 266.92 364.134 243.78C371.737 220.646 380.665 197.934 391.242 176.009C401.813 154.088 414.045 132.959 428.103 113.119C414.361 133.18 402.484 154.47 392.286 176.503C382.082 198.541 373.543 221.317 366.334 244.484C359.123 267.657 353.236 291.224 348.317 314.981C343.399 338.742 337.614 376.737 334.302 400.778L327.059 414.819Z" fill="#E68F64"/>
<path d="M371.194 212.561L370.375 208.814L369.672 205.041L369.116 201.242L368.678 197.426C368.176 192.328 368.041 187.196 368.181 182.074C368.374 176.954 368.847 171.841 369.679 166.787L370.366 163.008L371.169 159.253L372.118 155.534L373.18 151.848L372.274 155.573L371.484 159.321L370.776 163.083L370.181 166.863C369.456 171.912 368.981 176.997 368.84 182.094C368.646 187.19 368.789 192.295 369.181 197.381L369.528 201.192L369.989 204.992L370.533 208.784L371.194 212.561Z" fill="#F2EDE2"/>
<path d="M376.925 193.066L376.382 189.356L375.947 185.63L375.654 181.889L375.472 178.139C375.307 173.135 375.49 168.12 375.926 163.131C376.416 158.147 377.163 153.185 378.247 148.297L379.118 144.645L380.096 141.022L381.211 137.44L382.43 133.894L381.366 137.486L380.408 141.106L379.524 144.742L378.744 148.401C377.767 153.291 377.019 158.226 376.582 163.192C376.093 168.153 375.92 173.141 375.977 178.128L376.069 181.868L376.267 185.605L376.541 189.34L376.925 193.066Z" fill="#F2EDE2"/>
<path d="M393.091 162.39C392.684 159.437 392.435 156.463 392.284 153.484C392.131 150.505 392.125 147.519 392.172 144.536C392.273 141.554 392.432 138.573 392.732 135.605C393.033 132.637 393.431 129.68 393.987 126.751C393.703 129.718 393.432 132.68 393.238 135.647C393.043 138.613 392.88 141.581 392.831 144.552C392.729 147.522 392.745 150.494 392.789 153.467C392.834 156.441 392.955 159.413 393.091 162.39Z" fill="#F2EDE2"/>
<path d="M398.469 155.191C398.256 152.795 398.17 150.391 398.15 147.986C398.128 145.58 398.22 143.176 398.334 140.773C398.502 138.373 398.695 135.974 398.998 133.588C399.301 131.202 399.669 128.824 400.164 126.471C399.941 128.865 399.7 131.252 399.503 133.641C399.305 136.03 399.107 138.418 398.992 140.812C398.823 143.202 398.741 145.597 398.655 147.993C398.569 150.389 398.528 152.788 398.469 155.191Z" fill="#F2EDE2"/>
<path d="M416.801 127.151C417.305 123.494 417.934 119.857 418.627 116.232C419.318 112.606 420.121 109.002 420.945 105.404C421.82 101.818 422.721 98.2374 423.726 94.6864C424.732 91.1354 425.801 87.6014 426.99 84.1074L424.216 94.8174C423.313 98.3914 422.409 101.963 421.586 105.555C420.71 109.135 419.919 112.734 419.122 116.333L416.801 127.151Z" fill="#F2EDE2"/>
<path d="M430.943 112.115C432.045 110.026 433.208 107.974 434.381 105.928C435.553 103.881 436.775 101.865 437.97 99.8324C439.21 97.8274 440.426 95.8064 441.689 93.8154C442.953 91.8234 444.225 89.8384 445.561 87.8904C444.46 89.9804 443.297 92.0314 442.124 94.0784C440.951 96.1244 439.731 98.1414 438.534 100.174C437.292 102.179 436.078 104.2 434.814 106.191C433.55 108.181 432.277 110.167 430.943 112.115Z" fill="#F2EDE2"/>
<path d="M430.821 124.838C432.932 122.798 435.051 120.772 437.138 118.715C439.224 116.657 441.312 114.603 443.337 112.486C445.401 110.407 447.404 108.27 449.407 106.131C451.411 103.993 453.382 101.824 455.37 99.6635C453.592 102 451.713 104.257 449.783 106.471C447.853 108.685 445.84 110.825 443.808 112.945C441.738 115.028 439.651 117.096 437.485 119.079C435.321 121.066 433.112 123.002 430.821 124.838Z" fill="#F2EDE2"/>
<path d="M419.084 138.593C422.085 137.291 425.031 135.88 427.89 134.313C430.747 132.745 433.541 131.062 436.212 129.197C438.912 127.375 441.489 125.376 443.979 123.273C446.47 121.17 448.846 118.929 451.141 116.598C449.048 119.115 446.748 121.46 444.313 123.656C441.876 125.852 439.276 127.864 436.585 129.742C433.864 131.575 431.052 133.28 428.126 134.762C425.201 136.243 422.185 137.545 419.084 138.593Z" fill="#F2EDE2"/>
<path d="M407.899 164.143C409.77 163.045 411.626 161.923 413.466 160.778C415.311 159.64 417.144 158.485 418.959 157.304C422.588 154.939 426.176 152.511 429.669 149.95C433.192 147.432 436.621 144.783 440.001 142.074C441.691 140.719 443.361 139.339 445.018 137.942C446.681 136.552 448.327 135.14 449.954 133.706C448.399 135.219 446.825 136.712 445.23 138.185C443.615 139.635 441.977 141.06 440.323 142.466C437.001 145.264 433.559 147.916 430.055 150.484C426.52 153.008 422.926 155.451 419.229 157.731C417.376 158.863 415.511 159.974 413.629 161.054C411.732 162.109 409.822 163.138 407.899 164.143Z" fill="#F2EDE2"/>
<path d="M397.864 180.397C399.755 179.431 401.634 178.445 403.503 177.44C405.377 176.444 407.242 175.435 409.095 174.403C412.8 172.339 416.482 170.234 420.092 168.01C423.73 165.832 427.297 163.538 430.837 161.203C432.607 160.035 434.364 158.846 436.111 157.643C437.865 156.449 439.607 155.237 441.338 154.006C439.673 155.323 437.993 156.623 436.299 157.906C434.588 159.165 432.861 160.402 431.122 161.624C427.634 164.052 424.054 166.347 420.434 168.575C416.786 170.757 413.1 172.876 409.336 174.849C407.45 175.828 405.556 176.791 403.649 177.727C401.729 178.637 399.801 179.527 397.864 180.397Z" fill="#F2EDE2"/>
<path d="M395.812 190.055L400.878 187.115C402.554 186.12 404.235 185.135 405.873 184.081C407.54 183.072 409.165 181.999 410.795 180.93L415.665 177.676C414.203 178.978 412.661 180.186 411.085 181.347C409.508 182.507 407.87 183.583 406.222 184.641C404.546 185.654 402.861 186.653 401.124 187.557C399.388 188.462 397.625 189.314 395.812 190.055Z" fill="#F2EDE2"/>
<path d="M377.832 235.388C379.736 234.024 381.666 232.705 383.59 231.377L389.37 227.409L395.164 223.463C397.1 222.153 399.03 220.833 400.992 219.555C399.192 221.054 397.334 222.479 395.458 223.877C393.581 225.275 391.659 226.612 389.742 227.954C387.794 229.252 385.853 230.56 383.868 231.8C381.884 233.04 379.882 234.254 377.832 235.388Z" fill="#F2EDE2"/>
<path d="M371.599 250.149L377.504 245.752C379.468 244.283 381.445 242.835 383.383 241.333C385.353 239.874 387.284 238.364 389.228 236.871L395.062 232.379C393.281 234.074 391.428 235.688 389.546 237.267C387.663 238.846 385.724 240.355 383.781 241.859C381.806 243.32 379.829 244.78 377.798 246.163C375.767 247.547 373.712 248.893 371.599 250.149Z" fill="#F2EDE2"/>
<path d="M365.979 264.549C367.984 262.694 370.035 260.895 372.094 259.104C374.151 257.312 376.247 255.566 378.322 253.794C380.431 252.063 382.521 250.311 384.647 248.601C386.773 246.891 388.906 245.19 391.087 243.545C389.083 245.4 387.031 247.2 384.973 248.991C382.914 250.782 380.82 252.53 378.745 254.3C376.635 256.029 374.546 257.783 372.419 259.492C370.291 261.201 368.158 262.903 365.979 264.549Z" fill="#F2EDE2"/>
<path d="M362.406 289.551C363.791 288.033 365.227 286.568 366.67 285.11C368.112 283.651 369.595 282.235 371.055 280.796C372.552 279.395 374.03 277.974 375.546 276.592C377.062 275.211 378.586 273.837 380.16 272.516C378.775 274.034 377.34 275.5 375.897 276.958C374.454 278.416 372.972 279.833 371.511 281.271C370.012 282.671 368.536 284.094 367.019 285.474C365.504 286.856 363.98 288.23 362.406 289.551Z" fill="#F2EDE2"/>
<path d="M361.327 299.128C362.109 298.134 362.942 297.191 363.783 296.256C364.623 295.32 365.506 294.425 366.365 293.507C367.262 292.627 368.139 291.726 369.056 290.865C369.973 290.004 370.897 289.15 371.874 288.347C371.093 289.341 370.259 290.284 369.418 291.219C368.577 292.154 367.696 293.051 366.836 293.967C365.937 294.846 365.062 295.748 364.144 296.608C363.228 297.47 362.303 298.324 361.327 299.128Z" fill="#F2EDE2"/>
<path d="M357.051 316.651C359.399 314.304 361.796 312.011 364.201 309.725L371.47 302.928L378.842 296.244C381.318 294.036 383.802 291.836 386.335 289.691C383.987 292.039 381.59 294.332 379.186 296.618L371.916 303.414L364.543 310.097C362.067 312.305 359.584 314.504 357.051 316.651Z" fill="#F2EDE2"/>
<path d="M351.742 336.63C352.878 335.612 354.04 334.634 355.192 333.646C356.344 332.657 357.516 331.696 358.652 330.692L362.116 327.743C363.274 326.762 364.424 325.769 365.61 324.81C364.615 325.966 363.549 327.055 362.458 328.118C361.367 329.181 360.222 330.186 359.08 331.193C357.903 332.16 356.731 333.133 355.507 334.04C354.285 334.95 353.041 335.83 351.742 336.63Z" fill="#F2EDE2"/>
<path d="M354.27 341.552C356.626 339.863 358.983 338.185 361.309 336.466C363.634 334.746 365.956 333.023 368.22 331.225C370.517 329.469 372.758 327.642 374.994 325.808C377.231 323.974 379.435 322.1 381.651 320.23C379.622 322.301 377.497 324.275 375.323 326.194C373.149 328.113 370.897 329.943 368.625 331.745C366.32 333.505 363.996 335.241 361.602 336.878C359.208 338.515 356.774 340.091 354.27 341.552Z" fill="#F2EDE2"/>
<path d="M360.056 203.823C360.316 205.909 360.559 207.99 360.847 210.064C361.137 212.138 361.423 214.211 361.797 216.27C362.118 218.338 362.522 220.391 362.928 222.445C363.333 224.5 363.783 226.546 364.217 228.603C363.518 226.62 362.943 224.596 362.432 222.556C361.922 220.516 361.521 218.449 361.147 216.379C360.826 214.3 360.528 212.217 360.345 210.121C360.162 208.027 360.044 205.926 360.056 203.823Z" fill="#F2EDE2"/>
<path d="M344.693 225.898L346.307 233.444C346.853 235.954 347.397 238.463 348.082 240.933C348.715 243.417 349.484 245.862 350.366 248.266C351.247 250.672 352.282 253.021 353.465 255.309C352.044 253.158 350.881 250.838 349.893 248.451C348.905 246.062 348.133 243.59 347.445 241.102C346.809 238.6 346.253 236.08 345.811 233.541C345.369 231.002 344.994 228.456 344.693 225.898Z" fill="#F2EDE2"/>
<path d="M337.167 222.206L336.807 225.551L336.56 228.903L336.392 232.257L336.333 235.613C336.323 240.088 336.549 244.563 337.098 249.002C337.594 253.447 338.408 257.853 339.456 262.203L340.29 265.455L341.23 268.679L342.246 271.883L343.37 275.054L342.094 271.938L340.922 268.779L339.888 265.571L338.962 262.328C337.807 257.981 336.992 253.545 336.442 249.079C335.945 244.607 335.708 240.103 335.827 235.606L335.976 232.237L336.239 228.877L336.647 225.532L337.167 222.206Z" fill="#F2EDE2"/>
<path d="M332.329 283.011C332.832 284.558 333.318 286.101 333.846 287.63C334.375 289.157 334.899 290.684 335.506 292.181C336.063 293.697 336.698 295.181 337.333 296.667C337.968 298.154 338.645 299.624 339.31 301.108C338.405 299.755 337.61 298.333 336.873 296.881C336.137 295.428 335.501 293.927 334.891 292.417C334.331 290.888 333.792 289.349 333.363 287.778C332.933 286.208 332.567 284.621 332.329 283.011Z" fill="#F2EDE2"/>
<path d="M320.687 287.53C321.478 290.622 322.435 293.662 323.602 296.617C324.77 299.571 326.104 302.459 327.672 305.219C329.193 308.005 330.943 310.662 332.84 313.21C334.737 315.759 336.816 318.174 339.026 320.476C336.624 318.371 334.433 316.024 332.437 313.52C330.441 311.015 328.677 308.328 327.095 305.54C325.56 302.727 324.204 299.813 323.128 296.795C322.052 293.779 321.211 290.68 320.687 287.53Z" fill="#F2EDE2"/>
<path d="M318.23 319.085C319.223 320.861 320.241 322.612 321.337 324.312C322.433 326.011 323.567 327.685 324.809 329.278C326.009 330.903 327.312 332.449 328.653 333.962C329.994 335.477 331.405 336.93 332.845 338.367C331.223 337.137 329.711 335.763 328.282 334.309C326.852 332.854 325.537 331.288 324.284 329.677C323.073 328.034 321.919 326.346 320.906 324.575C319.89 322.805 318.977 320.978 318.23 319.085Z" fill="#F2EDE2"/>
<g opacity="0.31">
<path d="M464.326 92.6234C462.971 87.1064 460.02 81.7284 455.896 77.6484C458.633 91.0854 456.478 105.527 451.437 118.42C445.092 134.646 434.548 148.846 423.728 162.502C412.908 176.158 401.609 189.607 393.395 204.972C387.043 216.853 382.651 229.678 378.808 242.59C384.148 239.363 389.488 236.136 394.828 232.909C387.973 242.284 381.118 251.66 374.263 261.035C376.509 260.063 378.755 259.09 381 258.118C374.804 279.395 367.209 300.265 358.279 320.547C361.515 318.487 364.752 316.427 367.988 314.367C365.005 320.034 361.338 325.341 357.094 330.136C360.017 329.772 362.796 328.34 364.787 326.169C361.432 336.415 356.193 346.035 349.444 354.441C355.453 351.239 363.337 346.825 366.505 344.105C382.641 330.254 394.85 312.202 401.605 292.206C394.024 300.5 385.259 307.771 375.613 313.766C388.314 299.889 397.995 283.412 403.902 265.619C396.854 273.809 389.806 281.999 382.758 290.189C391.417 261.822 403.113 234.434 417.605 208.59C419.258 205.641 420.951 202.709 422.666 199.785C413.913 204.746 404.718 209.109 395.594 213.425C407.622 204.865 419.306 195.864 430.614 186.446C431.616 184.778 432.617 183.109 433.615 181.439C424.776 186.209 415.674 190.545 406.351 194.422C418.928 185.054 431.181 175.288 443.095 165.154C450.812 151.361 457.692 137.211 462.148 122.041C464.936 112.554 466.732 102.416 464.326 92.6234Z" fill="#F2EDE2"/>
</g>
<path d="M136.656 77.7849V34.1104H151.413C154.839 34.1104 157.64 34.7289 159.815 35.9657C162.005 37.1884 163.625 38.8447 164.677 40.9345C165.73 43.0244 166.256 45.356 166.256 47.9293C166.256 50.5025 165.73 52.8412 164.677 54.9453C163.64 57.0494 162.033 58.727 159.858 59.9781C157.683 61.215 154.896 61.8334 151.498 61.8334H140.921V57.1419H151.328C153.674 57.1419 155.557 56.7367 156.979 55.9263C158.401 55.1159 159.431 54.0212 160.071 52.6422C160.725 51.2489 161.052 49.678 161.052 47.9293C161.052 46.1806 160.725 44.6167 160.071 43.2377C159.431 41.8587 158.394 40.7782 156.958 39.9962C155.522 39.2001 153.617 38.802 151.242 38.802H141.945V77.7849H136.656ZM187.048 78.4673C184.091 78.4673 181.496 77.7635 179.264 76.356C177.046 74.9486 175.312 72.9795 174.061 70.4489C172.824 67.9183 172.205 64.9612 172.205 61.5775C172.205 58.1655 172.824 55.187 174.061 52.6422C175.312 50.0974 177.046 48.1212 179.264 46.7137C181.496 45.3063 184.091 44.6025 187.048 44.6025C190.005 44.6025 192.592 45.3063 194.81 46.7137C197.042 48.1212 198.777 50.0974 200.014 52.6422C201.265 55.187 201.89 58.1655 201.89 61.5775C201.89 64.9612 201.265 67.9183 200.014 70.4489C198.777 72.9795 197.042 74.9486 194.81 76.356C192.592 77.7635 190.005 78.4673 187.048 78.4673ZM187.048 73.9463C189.294 73.9463 191.142 73.3705 192.592 72.2189C194.043 71.0673 195.116 69.5532 195.813 67.6766C196.509 65.8 196.858 63.767 196.858 61.5775C196.858 59.3881 196.509 57.348 195.813 55.4572C195.116 53.5663 194.043 52.038 192.592 50.8722C191.142 49.7064 189.294 49.1235 187.048 49.1235C184.802 49.1235 182.953 49.7064 181.503 50.8722C180.053 52.038 178.98 53.5663 178.283 55.4572C177.586 57.348 177.238 59.3881 177.238 61.5775C177.238 63.767 177.586 65.8 178.283 67.6766C178.98 69.5532 180.053 71.0673 181.503 72.2189C182.953 73.3705 184.802 73.9463 187.048 73.9463ZM223.306 78.4673C220.15 78.4673 217.428 77.7706 215.139 76.3774C212.864 74.9699 211.108 73.008 209.871 70.4916C208.649 67.9609 208.037 65.018 208.037 61.6628C208.037 58.3076 208.649 55.3505 209.871 52.7915C211.108 50.2182 212.828 48.2136 215.032 46.7777C217.25 45.3276 219.837 44.6025 222.795 44.6025C224.501 44.6025 226.185 44.8869 227.849 45.4555C229.512 46.0242 231.026 46.9483 232.391 48.2278C233.756 49.4931 234.843 51.1707 235.654 53.2606C236.464 55.3505 236.869 57.9238 236.869 60.9804V63.113H211.62V58.7626H231.751C231.751 56.9144 231.382 55.2652 230.642 53.8151C229.917 52.365 228.879 51.2205 227.529 50.3817C226.192 49.5429 224.614 49.1235 222.795 49.1235C220.79 49.1235 219.055 49.6211 217.591 50.6163C216.141 51.5973 215.025 52.8768 214.243 54.4549C213.461 56.0329 213.07 57.7248 213.07 59.5303V62.4306C213.07 64.9043 213.497 67.0013 214.35 68.7216C215.217 70.4276 216.418 71.7284 217.954 72.6241C219.489 73.5056 221.273 73.9463 223.306 73.9463C224.629 73.9463 225.823 73.7615 226.889 73.3918C227.969 73.008 228.901 72.4393 229.683 71.6858C230.465 70.9181 231.069 69.9655 231.495 68.8282L236.357 70.193C235.846 71.8422 234.986 73.2923 233.777 74.5434C232.569 75.7803 231.076 76.747 229.299 77.4436C227.522 78.1261 225.524 78.4673 223.306 78.4673ZM258.77 45.029V49.2941H241.795V45.029H258.77ZM246.743 37.1813H251.776V68.4017C251.776 69.8234 251.982 70.8896 252.394 71.6005C252.821 72.2971 253.361 72.7663 254.015 73.008C254.683 73.2354 255.387 73.3492 256.126 73.3492C256.681 73.3492 257.136 73.3207 257.491 73.2639C257.846 73.1928 258.131 73.1359 258.344 73.0933L259.368 77.6142C259.026 77.7422 258.55 77.8702 257.939 77.9981C257.327 78.1403 256.553 78.2114 255.614 78.2114C254.193 78.2114 252.799 77.9057 251.435 77.2944C250.084 76.683 248.961 75.7518 248.065 74.5007C247.184 73.2496 246.743 71.6716 246.743 69.7665V37.1813ZM266.341 77.7849V45.029H271.203V49.9765H271.544C272.142 48.3558 273.222 47.0407 274.786 46.0313C276.35 45.0219 278.113 44.5172 280.075 44.5172C280.444 44.5172 280.906 44.5243 281.461 44.5385C282.015 44.5528 282.435 44.5741 282.719 44.6025V49.7206C282.548 49.678 282.157 49.614 281.546 49.5287C280.949 49.4292 280.316 49.3794 279.648 49.3794C278.056 49.3794 276.634 49.7135 275.383 50.3817C274.146 51.0357 273.165 51.9456 272.44 53.1114C271.729 54.2629 271.374 55.578 271.374 57.0566V77.7849H266.341ZM292.923 90.0683C292.07 90.0683 291.31 89.9972 290.641 89.855C289.973 89.7271 289.511 89.5991 289.255 89.4712L290.535 85.0355C291.757 85.3483 292.838 85.462 293.776 85.3767C294.714 85.2914 295.546 84.872 296.271 84.1185C297.01 83.3792 297.686 82.1779 298.297 80.5145L299.235 77.9555L287.123 45.029H292.582L301.624 71.1313H301.965L311.007 45.029H316.466L302.562 82.5617C301.937 84.2536 301.162 85.6539 300.238 86.7628C299.314 87.886 298.24 88.7177 297.018 89.2579C295.809 89.7982 294.444 90.0683 292.923 90.0683Z" fill="#4C6E91"/>
<path d="M346.981 105.992C338.15 105.269 329.312 104.694 320.467 104.243C311.626 103.743 302.78 103.331 293.931 102.998C276.234 102.333 258.533 101.794 240.824 101.581C223.119 101.215 205.411 101.168 187.707 101.397C178.855 101.515 170.005 101.741 161.161 102.136C152.316 102.497 143.47 102.985 134.669 104C152.202 101.3 169.966 100.557 187.674 99.9065C205.398 99.3675 223.132 99.4295 240.857 99.6445C258.579 100.02 276.301 100.53 294.002 101.515C302.851 102.029 311.696 102.605 320.532 103.301C329.36 104.07 338.194 104.834 346.981 105.992Z" fill="#50191B"/>
<path d="M347.479 101.507C338.648 100.784 329.81 100.209 320.965 99.7584C312.124 99.2594 303.278 98.8464 294.429 98.5134C276.732 97.8484 259.031 97.3094 241.322 97.0964C223.617 96.7304 205.909 96.6834 188.205 96.9124C179.353 97.0304 170.503 97.2564 161.659 97.6514C152.814 98.0124 143.969 98.5004 135.167 99.5154C152.7 96.8154 170.464 96.0724 188.172 95.4214C205.896 94.8824 223.63 94.9444 241.354 95.1594C259.076 95.5354 276.798 96.0454 294.499 97.0304C303.348 97.5444 312.193 98.1204 321.029 98.8164C329.859 99.5854 338.692 100.349 347.479 101.507Z" fill="#50191B"/>
</svg>
