<?xml version="1.0" encoding="utf-8"?>
<!-- Generator: Adobe Illustrator 27.5.0, SVG Export Plug-In . SVG Version: 6.00 Build 0)  -->
<svg version="1.1" xmlns="http://www.w3.org/2000/svg" xmlns:xlink="http://www.w3.org/1999/xlink" x="0px" y="0px"
	 viewBox="0 0 500 500" style="enable-background:new 0 0 500 500;" xml:space="preserve">
<g id="Background_Simple">
	<g>
		<path style="fill:#92E3A9;" d="M471.339,263.108c16.637-106.421-72.142-213.687-188.71-227.009
			c-1.451-0.166-2.904-0.321-4.358-0.466c-81.45-8.09-155.901,54.127-177.189,101.581c-21.288,47.454-76.999,92.597-56.349,180.552
			c20.649,87.955,76.747,134.819,208.273,148.689c131.526,13.87,155.793-23.747,190.708-105.923
			C455.814,332.056,465.875,298.056,471.339,263.108z"/>
		<path style="opacity:0.8;fill:#FFFFFF;" d="M471.339,263.108c16.637-106.421-72.142-213.687-188.71-227.009
			c-1.451-0.166-2.904-0.321-4.358-0.466c-81.45-8.09-155.901,54.127-177.189,101.581c-21.288,47.454-76.999,92.597-56.349,180.552
			c20.649,87.955,76.747,134.819,208.273,148.689c131.526,13.87,155.793-23.747,190.708-105.923
			C455.814,332.056,465.875,298.056,471.339,263.108z"/>
	</g>
</g>
<g id="Clouds">
	<path style="fill:none;stroke:#263238;stroke-linecap:round;stroke-linejoin:round;stroke-miterlimit:10;" d="M222.074,260.819
		c0,0-4.342-25.329-26.776-30.395c-22.434-5.066-29.671,5.789-34.013,15.197s-7.96,0.724-20.987,0
		c-13.026-0.724-17.368,8.684-20.263,14.474c-2.895,5.789-4.342,1.447-14.474,2.171c-10.132,0.724-13.026,7.237-13.75,10.132
		c-0.724,2.895,166.447,0,166.447,0s0-9.408-10.132-15.921C237.995,249.964,228.588,262.99,222.074,260.819z"/>
	<path style="fill:none;stroke:#263238;stroke-linecap:round;stroke-linejoin:round;stroke-miterlimit:10;" d="M394.589,317.685
		c0,0-2.735-15.955-16.867-19.146c-14.132-3.191-18.69,3.647-21.425,9.573c-2.735,5.926-5.014,0.456-13.22,0
		c-8.206-0.456-10.941,5.47-12.764,9.117c-1.823,3.647-2.735,0.912-9.117,1.368c-6.382,0.456-8.205,4.559-8.661,6.382
		c-0.456,1.823,104.848,0,104.848,0s0-5.926-6.382-10.029C404.617,310.847,398.691,319.053,394.589,317.685z"/>
	<path style="fill:none;stroke:#263238;stroke-linecap:round;stroke-linejoin:round;stroke-miterlimit:10;" d="M147.089,99.857
		c0,0-2.735-15.955-16.867-19.146c-14.132-3.191-18.69,3.647-21.425,9.573c-2.735,5.926-5.014,0.456-13.22,0
		c-8.206-0.456-10.941,5.47-12.764,9.117c-1.823,3.647-2.735,0.912-9.117,1.368c-6.382,0.456-8.205,4.559-8.661,6.382
		c-0.456,1.823,104.848,0,104.848,0s0-5.926-6.382-10.029C157.118,93.019,151.192,101.224,147.089,99.857z"/>
</g>
<g id="Plants">
	<g>
		<g>
			<g>
				<path style="fill:#263238;" d="M336.529,462.358c0.175,0.095,0.397,0.04,0.507-0.131c9.108-14.198,10.162-32.428,2.752-47.575
					c-0.093-0.19-0.323-0.27-0.515-0.176c-0.191,0.093-0.27,0.324-0.176,0.514c7.293,14.907,6.255,32.848-2.709,46.821
					c-0.115,0.179-0.063,0.417,0.116,0.532C336.512,462.349,336.521,462.354,336.529,462.358z"/>
			</g>
			<g>
				<g>
					<path style="fill:#263238;" d="M336.342,445.868c4.618,0.91,4.397,8.505,4.205,8.548c-0.284,0.757-0.589,1.509-0.914,2.256
						c0.065-1.083-1.277-3.384-4.065-5.575C332.884,448.823,331.975,444.838,336.342,445.868z"/>
				</g>
				<g>
					<path style="fill:#263238;" d="M349.542,449.108c4.497,1.055,0.899,6.307-2.82,6.258c-3.644,0.074-6.223,0.614-7.027,1.334
						c0.375-0.724,0.731-1.456,1.067-2.196C340.895,454.63,345.247,448.267,349.542,449.108z"/>
				</g>
			</g>
			<g>
				<g>
					<path style="fill:#263238;" d="M337.427,438.972c4.7,0.13,5.777,7.575,5.601,7.642c-0.149,0.783-0.318,1.563-0.506,2.342
						c-0.126-1.062-1.845-3.078-4.967-4.753C334.519,442.435,332.948,438.692,337.427,438.972z"/>
				</g>
				<g>
					<path style="fill:#263238;" d="M350.982,439.948c4.608,0.288,1.953,6.015-1.713,6.575c-3.575,0.672-6.019,1.621-6.682,2.45
						c0.242-0.764,0.465-1.534,0.668-2.308C343.401,446.773,346.604,439.846,350.982,439.948z"/>
				</g>
			</g>
			<g>
				<g>
					<path style="fill:#263238;" d="M337.342,432.023c4.655-0.652,6.961,6.479,6.801,6.568c-0.015,0.791-0.05,1.583-0.104,2.374
						c-0.304-1.016-2.339-2.704-5.696-3.825C335.052,435.915,332.879,432.498,337.342,432.023z"/>
				</g>
				<g>
					<path style="fill:#263238;" d="M350.87,430.717c4.591-0.484,2.929,5.59-0.59,6.746c-3.412,1.255-5.66,2.589-6.173,3.509
						c0.109-0.787,0.199-1.577,0.269-2.369C344.535,438.69,346.534,431.354,350.87,430.717z"/>
				</g>
			</g>
			<g>
				<g>
					<path style="fill:#263238;" d="M336.094,425.174c4.482-1.419,7.95,5.242,7.805,5.35c0.117,0.782,0.215,1.567,0.294,2.355
						c-0.469-0.949-2.757-2.27-6.255-2.815C334.491,429.409,331.775,426.392,336.094,425.174z"/>
				</g>
				<g>
					<path style="fill:#263238;" d="M349.213,421.62c4.447-1.244,3.827,5.041,0.549,6.766c-3.154,1.809-5.148,3.498-5.501,4.489
						c-0.024-0.792-0.067-1.585-0.13-2.377C344.304,430.562,345.048,422.981,349.213,421.62z"/>
				</g>
			</g>
			<g>
				<g>
					<path style="fill:#263238;" d="M333.693,418.579c4.183-2.152,8.744,3.887,8.615,4.014c0.248,0.755,0.477,1.517,0.687,2.283
						c-0.622-0.86-3.1-1.787-6.642-1.743C332.843,423.06,329.643,420.512,333.693,418.579z"/>
				</g>
				<g>
					<path style="fill:#263238;" d="M346.022,412.86c4.176-1.975,4.647,4.378,1.704,6.634c-2.804,2.321-4.485,4.327-4.666,5.367
						c-0.157-0.78-0.333-1.558-0.529-2.332C342.718,422.568,342.155,414.913,346.022,412.86z"/>
				</g>
			</g>
			<g>
				<path style="fill:#263238;" d="M340.942,418.165c0.117,0.045-0.52-6.804-2.403-10.066c-1.756-3.258-4.617-2.711-5.4-1.297
					c-0.81,1.409,0.507,3.628,1.973,5.221C336.688,413.481,341.007,418.071,340.942,418.165z"/>
				<path style="fill:#263238;" d="M340.82,418.391c0.01,0.005,0.02,0.01,0.031,0.014c0.102,0.039,0.22,0.008,0.29-0.075
					c0.005-0.006,0.009-0.013,0.013-0.021c0.041-0.059,0.071-0.104,0.039-0.198c0.101-1.267-0.815-7.337-2.433-10.139
					c-0.864-1.604-2.148-2.533-3.523-2.54c-0.989-0.005-1.901,0.484-2.323,1.247c-1.095,1.905,1.261,4.706,2.009,5.519
					c1.536,1.423,5.466,5.603,5.777,6.055C340.721,418.311,340.764,418.361,340.82,418.391z M336.54,406.291
					c0.576,0.311,1.21,0.887,1.772,1.93c1.486,2.573,2.176,7.352,2.345,9.176c-0.357-0.404-0.929-1.017-1.829-1.968
					c-1.159-1.225-2.698-2.813-3.543-3.595c-1.404-1.527-2.659-3.629-1.925-4.905c0.335-0.605,1.069-0.991,1.874-0.986
					C335.561,405.945,336.027,406.013,336.54,406.291z"/>
			</g>
		</g>
		<g>
			<g>
				<path style="fill:#263238;" d="M341.835,465.883c0.147,0.19,0.418,0.237,0.622,0.102c16.941-11.228,26.963-30.815,26.153-51.116
					c-0.01-0.255-0.225-0.455-0.482-0.445c-0.256,0.01-0.455,0.226-0.445,0.482c0.796,19.979-9.066,39.255-25.739,50.306
					c-0.213,0.142-0.272,0.429-0.13,0.643C341.821,465.865,341.828,465.874,341.835,465.883z"/>
			</g>
			<g>
				<g>
					<path style="fill:#263238;" d="M349.642,447.61c4.649,3.248,0.715,11.514,0.483,11.468c-0.681,0.696-1.382,1.377-2.103,2.043
						c0.598-1.162,0.237-4.351-1.773-8.122C344.393,449.189,345.328,444.353,349.642,447.61z"/>
				</g>
				<g>
					<path style="fill:#263238;" d="M362.621,457.597c4.446,3.349-2.074,7.391-6.15,5.529c-4.054-1.69-7.16-2.347-8.395-1.944
						c0.766-0.616,1.514-1.251,2.244-1.902C350.404,459.483,358.295,454.583,362.621,457.597z"/>
				</g>
			</g>
			<g>
				<g>
					<path style="fill:#263238;" d="M354.189,440.535c5.119,2.427,2.689,11.16,2.462,11.148c-0.544,0.79-1.11,1.569-1.696,2.336
						c0.377-1.232-0.539-4.291-3.167-7.654C349.301,442.94,349.387,438.05,354.189,440.535z"/>
				</g>
				<g>
					<path style="fill:#263238;" d="M368.661,448.199c4.941,2.557-0.769,7.581-5.084,6.417c-4.269-0.996-7.423-1.138-8.558-0.546
						c0.638-0.725,1.258-1.466,1.858-2.22C356.986,452.039,363.883,445.958,368.661,448.199z"/>
				</g>
			</g>
			<g>
				<g>
					<path style="fill:#263238;" d="M357.473,432.832c5.449,1.543,4.526,10.527,4.306,10.547c-0.401,0.865-0.824,1.721-1.268,2.568
						c0.159-1.268-1.264-4.118-4.422-6.986C353.057,436.011,352.321,431.187,357.473,432.832z"/>
				</g>
				<g>
					<path style="fill:#263238;" d="M373.022,437.967c5.297,1.697,0.513,7.586-3.929,7.15c-4.371-0.274-7.498,0.104-8.512,0.869
						c0.503-0.815,0.985-1.642,1.447-2.481C362.163,443.678,367.933,436.562,373.022,437.967z"/>
				</g>
			</g>
			<g>
				<g>
					<path style="fill:#263238;" d="M359.426,424.674c5.631,0.614,6.218,9.642,6.005,9.692c-0.251,0.919-0.524,1.832-0.82,2.739
						c-0.056-1.274-1.936-3.843-5.528-6.143C355.6,428.565,354.072,423.919,359.426,424.674z"/>
				</g>
				<g>
					<path style="fill:#263238;" d="M375.616,427.131c5.507,0.789,1.77,7.418-2.683,7.727c-4.356,0.461-7.376,1.354-8.246,2.276
						c0.359-0.885,0.696-1.78,1.012-2.684C365.859,434.605,370.363,426.608,375.616,427.131z"/>
				</g>
			</g>
			<g>
				<g>
					<path style="fill:#263238;" d="M359.982,416.236c5.658-0.34,7.752,8.535,7.548,8.612c-0.094,0.953-0.211,1.904-0.352,2.85
						c-0.268-1.25-2.55-3.477-6.476-5.15C356.869,420.764,354.579,416.399,359.982,416.236z"/>
				</g>
				<g>
					<path style="fill:#263238;" d="M376.356,415.922c5.564-0.148,2.996,7.086-1.345,8.142c-4.219,1.197-7.048,2.591-7.753,3.649
						c0.206-0.936,0.39-1.879,0.55-2.828C367.995,425.021,371.094,416.306,376.356,415.922z"/>
				</g>
			</g>
			<g>
				<path style="fill:#263238;" d="M368.176,419.302c0.107,0.106,2.733-7.755,2.241-12.266c-0.353-4.445-3.773-5.233-5.323-4.054
					c-1.577,1.159-1.204,4.246-0.361,6.715C365.762,412.07,368.294,419.231,368.176,419.302z"/>
				<path style="fill:#263238;" d="M367.932,419.492c0.008,0.011,0.017,0.021,0.027,0.03c0.093,0.092,0.239,0.116,0.356,0.059
					c0.008-0.004,0.016-0.01,0.025-0.017c0.074-0.045,0.129-0.081,0.139-0.199c0.727-1.348,2.667-8.485,2.245-12.361
					c-0.173-2.189-1.138-3.837-2.649-4.512c-1.088-0.487-2.331-0.39-3.168,0.246c-2.133,1.568-0.897,5.801-0.467,7.061
					c1.002,2.315,3.304,8.834,3.427,9.483C367.862,419.356,367.885,419.432,367.932,419.492z M369.094,404.072
					c0.483,0.623,0.903,1.566,1.016,2.989c0.387,3.559-1.174,9.163-1.874,11.257c-0.197-0.619-0.531-1.573-1.06-3.058
					c-0.682-1.914-1.608-4.413-2.159-5.685c-0.806-2.366-1.168-5.293,0.261-6.343c0.663-0.504,1.66-0.572,2.545-0.177
					C368.182,403.216,368.663,403.517,369.094,404.072z"/>
			</g>
		</g>
	</g>
	<g>
		<g>
			<g>
				<path style="fill:#263238;" d="M385.685,464.276c0.097,0.046,0.219,0.019,0.28-0.063c5.033-6.846,5.615-15.635,1.521-22.938
					c-0.051-0.092-0.179-0.13-0.284-0.085c-0.105,0.045-0.149,0.156-0.098,0.248c4.03,7.187,3.456,15.837-1.497,22.574
					c-0.063,0.086-0.035,0.201,0.064,0.256C385.676,464.272,385.68,464.274,385.685,464.276z"/>
			</g>
			<g>
				<g>
					<path style="fill:#263238;" d="M385.581,456.326c2.552,0.439,2.43,4.1,2.324,4.121c-0.157,0.365-0.325,0.728-0.505,1.088
						c0.036-0.522-0.706-1.632-2.246-2.688C383.671,457.751,383.168,455.829,385.581,456.326z"/>
				</g>
				<g>
					<path style="fill:#263238;" d="M392.875,457.888c2.485,0.509,0.497,3.041-1.558,3.017c-2.014,0.036-3.439,0.296-3.883,0.643
						c0.207-0.349,0.404-0.702,0.59-1.059C388.097,460.55,390.503,457.483,392.875,457.888z"/>
				</g>
			</g>
			<g>
				<g>
					<path style="fill:#263238;" d="M386.181,453.001c2.597,0.063,3.193,3.652,3.095,3.685c-0.082,0.377-0.176,0.754-0.28,1.129
						c-0.069-0.512-1.02-1.484-2.745-2.292C384.574,454.671,383.706,452.866,386.181,453.001z"/>
				</g>
				<g>
					<path style="fill:#263238;" d="M393.672,453.472c2.546,0.139,1.079,2.9-0.947,3.17c-1.976,0.324-3.326,0.781-3.693,1.181
						c0.134-0.369,0.257-0.74,0.369-1.113C389.482,456.762,391.252,453.422,393.672,453.472z"/>
				</g>
			</g>
			<g>
				<g>
					<path style="fill:#263238;" d="M386.134,449.65c2.572-0.314,3.847,3.124,3.758,3.167c-0.008,0.381-0.027,0.763-0.057,1.145
						c-0.168-0.49-1.292-1.304-3.148-1.844C384.869,451.527,383.668,449.88,386.134,449.65z"/>
				</g>
				<g>
					<path style="fill:#263238;" d="M393.609,449.021c2.537-0.233,1.619,2.695-0.326,3.252c-1.885,0.605-3.128,1.248-3.411,1.692
						c0.06-0.379,0.11-0.76,0.148-1.142C390.109,452.865,391.214,449.328,393.609,449.021z"/>
				</g>
			</g>
			<g>
				<g>
					<path style="fill:#263238;" d="M385.445,446.348c2.477-0.684,4.393,2.527,4.313,2.58c0.065,0.377,0.119,0.756,0.162,1.135
						c-0.259-0.457-1.523-1.095-3.456-1.357C384.559,448.39,383.058,446.936,385.445,446.348z"/>
				</g>
				<g>
					<path style="fill:#263238;" d="M392.694,444.635c2.457-0.6,2.115,2.43,0.303,3.262c-1.743,0.872-2.845,1.686-3.04,2.164
						c-0.013-0.382-0.037-0.764-0.072-1.146C389.981,448.946,390.392,445.291,392.694,444.635z"/>
				</g>
			</g>
			<g>
				<g>
					<path style="fill:#263238;" d="M384.117,443.169c2.312-1.038,4.832,1.874,4.761,1.935c0.137,0.364,0.263,0.731,0.379,1.101
						c-0.344-0.415-1.713-0.862-3.67-0.84C383.648,445.329,381.88,444.1,384.117,443.169z"/>
				</g>
				<g>
					<path style="fill:#263238;" d="M390.931,440.411c2.308-0.952,2.568,2.111,0.942,3.198c-1.549,1.119-2.478,2.086-2.579,2.587
						c-0.086-0.376-0.184-0.751-0.292-1.124C389.105,445.092,388.793,441.401,390.931,440.411z"/>
				</g>
			</g>
			<g>
				<path style="fill:#263238;" d="M388.123,442.969c0.065,0.022-0.288-3.281-1.328-4.853c-0.97-1.571-2.551-1.307-2.984-0.625
					c-0.448,0.679,0.28,1.749,1.09,2.517C385.772,440.711,388.159,442.924,388.123,442.969z"/>
				<path style="fill:#263238;" d="M388.056,443.078c0.005,0.003,0.011,0.005,0.017,0.007c0.056,0.019,0.122,0.004,0.161-0.036
					c0.003-0.003,0.005-0.006,0.007-0.01c0.023-0.028,0.039-0.05,0.021-0.095c0.056-0.611-0.45-3.537-1.344-4.889
					c-0.477-0.774-1.187-1.221-1.947-1.225c-0.547-0.003-1.05,0.233-1.284,0.601c-0.605,0.919,0.697,2.269,1.11,2.661
					c0.849,0.686,3.021,2.702,3.192,2.919C388.002,443.039,388.025,443.063,388.056,443.078z M385.691,437.244
					c0.318,0.15,0.668,0.428,0.979,0.93c0.821,1.241,1.202,3.545,1.296,4.424c-0.197-0.195-0.514-0.49-1.011-0.949
					c-0.64-0.591-1.491-1.356-1.958-1.733c-0.776-0.736-1.469-1.749-1.064-2.365c0.185-0.292,0.591-0.478,1.035-0.475
					C385.15,437.078,385.408,437.11,385.691,437.244z"/>
			</g>
		</g>
		<g>
			<g>
				<path style="fill:#263238;" d="M388.617,465.976c0.081,0.092,0.231,0.114,0.344,0.049c9.361-5.414,14.899-14.857,14.452-24.645
					c-0.006-0.123-0.125-0.219-0.266-0.214c-0.141,0.005-0.251,0.109-0.246,0.232c0.44,9.633-5.01,18.927-14.223,24.254
					c-0.118,0.068-0.15,0.207-0.072,0.31C388.609,465.967,388.613,465.971,388.617,465.976z"/>
			</g>
			<g>
				<g>
					<path style="fill:#263238;" d="M392.931,457.166c2.569,1.566,0.395,5.551,0.267,5.529c-0.376,0.336-0.764,0.664-1.162,0.985
						c0.331-0.561,0.131-2.098-0.979-3.916C390.031,457.927,390.547,455.595,392.931,457.166z"/>
				</g>
				<g>
					<path style="fill:#263238;" d="M400.103,461.981c2.457,1.615-1.146,3.563-3.399,2.666c-2.24-0.815-3.956-1.132-4.639-0.937
						c0.423-0.297,0.836-0.603,1.24-0.917C393.352,462.89,397.712,460.528,400.103,461.981z"/>
				</g>
			</g>
			<g>
				<g>
					<path style="fill:#263238;" d="M395.444,453.754c2.829,1.17,1.486,5.381,1.361,5.375c-0.301,0.381-0.613,0.757-0.937,1.126
						c0.208-0.594-0.298-2.069-1.75-3.69C392.742,454.914,392.79,452.556,395.444,453.754z"/>
				</g>
				<g>
					<path style="fill:#263238;" d="M403.44,457.449c2.73,1.233-0.425,3.655-2.809,3.094c-2.359-0.48-4.102-0.549-4.729-0.263
						c0.353-0.35,0.695-0.707,1.027-1.071C396.989,459.301,400.8,456.369,403.44,457.449z"/>
				</g>
			</g>
			<g>
				<g>
					<path style="fill:#263238;" d="M397.258,450.04c3.011,0.744,2.501,5.075,2.38,5.085c-0.221,0.417-0.455,0.83-0.701,1.238
						c0.088-0.612-0.699-1.985-2.443-3.368C394.818,451.573,394.411,449.247,397.258,450.04z"/>
				</g>
				<g>
					<path style="fill:#263238;" d="M405.85,452.516c2.927,0.818,0.284,3.658-2.171,3.448c-2.416-0.132-4.143,0.05-4.704,0.419
						c0.278-0.393,0.544-0.792,0.8-1.196C399.85,455.27,403.038,451.839,405.85,452.516z"/>
				</g>
			</g>
			<g>
				<g>
					<path style="fill:#263238;" d="M398.337,446.108c3.112,0.296,3.436,4.649,3.318,4.673c-0.139,0.443-0.29,0.883-0.453,1.321
						c-0.031-0.614-1.07-1.853-3.055-2.962C396.223,447.983,395.379,445.743,398.337,446.108z"/>
				</g>
				<g>
					<path style="fill:#263238;" d="M407.284,447.292c3.043,0.381,0.978,3.576-1.482,3.725c-2.407,0.222-4.076,0.653-4.557,1.097
						c0.198-0.427,0.385-0.858,0.559-1.294C401.892,450.895,404.381,447.04,407.284,447.292z"/>
				</g>
			</g>
			<g>
				<g>
					<path style="fill:#263238;" d="M398.645,442.039c3.127-0.164,4.284,4.115,4.171,4.152c-0.052,0.46-0.117,0.918-0.195,1.374
						c-0.148-0.603-1.409-1.676-3.578-2.483C396.924,444.222,395.659,442.118,398.645,442.039z"/>
				</g>
				<g>
					<path style="fill:#263238;" d="M407.693,441.888c3.075-0.072,1.656,3.416-0.743,3.925c-2.331,0.577-3.894,1.249-4.284,1.759
						c0.114-0.451,0.216-0.906,0.304-1.364C403.072,446.274,404.785,442.073,407.693,441.888z"/>
				</g>
			</g>
			<g>
				<path style="fill:#263238;" d="M403.173,443.517c0.059,0.051,1.51-3.739,1.239-5.914c-0.195-2.143-2.085-2.523-2.941-1.955
					c-0.872,0.559-0.665,2.047-0.2,3.237C401.839,440.031,403.238,443.483,403.173,443.517z"/>
				<path style="fill:#263238;" d="M403.038,443.609c0.005,0.005,0.01,0.01,0.015,0.015c0.052,0.044,0.132,0.056,0.197,0.028
					c0.004-0.002,0.009-0.005,0.014-0.008c0.041-0.021,0.072-0.039,0.077-0.096c0.402-0.65,1.474-4.091,1.241-5.96
					c-0.096-1.055-0.629-1.85-1.464-2.176c-0.601-0.235-1.288-0.188-1.75,0.118c-1.179,0.756-0.496,2.797-0.258,3.404
					c0.554,1.116,1.826,4.259,1.894,4.572C402.999,443.543,403.012,443.58,403.038,443.609z M403.68,436.174
					c0.267,0.3,0.499,0.755,0.561,1.441c0.214,1.716-0.648,4.418-1.035,5.427c-0.109-0.299-0.293-0.758-0.586-1.475
					c-0.377-0.923-0.888-2.128-1.193-2.741c-0.446-1.141-0.646-2.552,0.144-3.058c0.366-0.243,0.918-0.276,1.406-0.085
					C403.176,435.761,403.442,435.907,403.68,436.174z"/>
			</g>
		</g>
	</g>
	<g>
		<g>
			<g>
				<path style="fill:#263238;" d="M47.99,460.639c-0.097,0.046-0.219,0.019-0.28-0.063c-5.033-6.846-5.616-15.635-1.521-22.938
					c0.051-0.092,0.179-0.13,0.284-0.085c0.105,0.045,0.149,0.156,0.097,0.248c-4.03,7.187-3.456,15.837,1.497,22.574
					c0.063,0.086,0.035,0.201-0.064,0.256C47.999,460.634,47.994,460.636,47.99,460.639z"/>
			</g>
			<g>
				<g>
					<path style="fill:#263238;" d="M48.093,452.688c-2.552,0.439-2.43,4.101-2.324,4.121c0.157,0.365,0.325,0.727,0.505,1.088
						c-0.036-0.522,0.706-1.632,2.246-2.688C50.004,454.113,50.506,452.191,48.093,452.688z"/>
				</g>
				<g>
					<path style="fill:#263238;" d="M40.799,454.25c-2.485,0.509-0.497,3.041,1.558,3.017c2.014,0.036,3.439,0.296,3.883,0.643
						c-0.207-0.349-0.404-0.702-0.59-1.059C45.577,456.912,43.172,453.845,40.799,454.25z"/>
				</g>
			</g>
			<g>
				<g>
					<path style="fill:#263238;" d="M47.493,449.363c-2.597,0.063-3.193,3.652-3.095,3.685c0.082,0.377,0.175,0.754,0.28,1.129
						c0.069-0.512,1.02-1.484,2.745-2.291C49.1,451.033,49.969,449.228,47.493,449.363z"/>
				</g>
				<g>
					<path style="fill:#263238;" d="M40.003,449.834c-2.547,0.139-1.079,2.9,0.947,3.17c1.976,0.324,3.326,0.781,3.693,1.181
						c-0.134-0.369-0.257-0.74-0.369-1.113C44.192,453.124,42.422,449.784,40.003,449.834z"/>
				</g>
			</g>
			<g>
				<g>
					<path style="fill:#263238;" d="M47.541,446.013c-2.572-0.314-3.847,3.124-3.758,3.167c0.008,0.381,0.027,0.763,0.057,1.145
						c0.168-0.49,1.292-1.304,3.148-1.844C48.806,447.889,50.007,446.242,47.541,446.013z"/>
				</g>
				<g>
					<path style="fill:#263238;" d="M40.065,445.383c-2.537-0.233-1.619,2.695,0.326,3.252c1.885,0.605,3.128,1.248,3.411,1.692
						c-0.06-0.38-0.11-0.76-0.149-1.142C43.566,449.227,42.461,445.69,40.065,445.383z"/>
				</g>
			</g>
			<g>
				<g>
					<path style="fill:#263238;" d="M48.23,442.711c-2.477-0.684-4.393,2.527-4.313,2.58c-0.065,0.377-0.119,0.756-0.162,1.135
						c0.259-0.458,1.523-1.095,3.456-1.357C49.116,444.752,50.616,443.298,48.23,442.711z"/>
				</g>
				<g>
					<path style="fill:#263238;" d="M40.981,440.997c-2.457-0.6-2.115,2.43-0.303,3.262c1.743,0.872,2.845,1.686,3.04,2.164
						c0.013-0.382,0.037-0.764,0.072-1.146C43.693,445.308,43.282,441.653,40.981,440.997z"/>
				</g>
			</g>
			<g>
				<g>
					<path style="fill:#263238;" d="M49.557,439.531c-2.312-1.038-4.832,1.874-4.761,1.935c-0.137,0.364-0.263,0.731-0.379,1.101
						c0.344-0.415,1.713-0.862,3.67-0.84C50.026,441.691,51.794,440.463,49.557,439.531z"/>
				</g>
				<g>
					<path style="fill:#263238;" d="M42.744,436.773c-2.307-0.952-2.568,2.111-0.941,3.198c1.549,1.119,2.478,2.086,2.578,2.587
						c0.087-0.376,0.184-0.751,0.292-1.124C44.569,441.454,44.881,437.763,42.744,436.773z"/>
				</g>
			</g>
			<g>
				<path style="fill:#263238;" d="M45.551,439.331c-0.065,0.022,0.287-3.28,1.328-4.853c0.97-1.571,2.551-1.307,2.984-0.625
					c0.447,0.679-0.28,1.749-1.09,2.517C47.902,437.073,45.515,439.286,45.551,439.331z"/>
				<path style="fill:#263238;" d="M45.619,439.44c-0.005,0.003-0.011,0.005-0.017,0.007c-0.056,0.019-0.122,0.004-0.16-0.036
					c-0.003-0.003-0.005-0.006-0.007-0.01c-0.023-0.028-0.039-0.05-0.021-0.095c-0.056-0.611,0.45-3.538,1.344-4.889
					c0.477-0.773,1.187-1.221,1.947-1.225c0.547-0.003,1.05,0.233,1.284,0.601c0.605,0.918-0.697,2.269-1.11,2.661
					c-0.849,0.686-3.021,2.702-3.192,2.919C45.673,439.402,45.649,439.426,45.619,439.44z M47.983,433.606
					c-0.318,0.15-0.668,0.428-0.979,0.93c-0.821,1.24-1.202,3.545-1.296,4.424c0.197-0.195,0.514-0.49,1.01-0.949
					c0.64-0.591,1.491-1.356,1.958-1.733c0.776-0.736,1.469-1.749,1.064-2.365c-0.185-0.292-0.591-0.478-1.035-0.475
					C48.524,433.44,48.267,433.473,47.983,433.606z"/>
			</g>
		</g>
		<g>
			<g>
				<path style="fill:#263238;" d="M45.058,462.338c-0.081,0.091-0.231,0.114-0.344,0.049c-9.361-5.414-14.899-14.857-14.452-24.645
					c0.005-0.123,0.125-0.219,0.266-0.214c0.141,0.005,0.251,0.109,0.246,0.232c-0.44,9.633,5.01,18.926,14.223,24.254
					c0.118,0.068,0.15,0.207,0.072,0.31C45.065,462.329,45.062,462.333,45.058,462.338z"/>
			</g>
			<g>
				<g>
					<path style="fill:#263238;" d="M40.743,453.528c-2.569,1.566-0.395,5.551-0.267,5.529c0.376,0.336,0.764,0.664,1.162,0.985
						c-0.331-0.56-0.131-2.098,0.979-3.916C43.644,454.289,43.127,451.957,40.743,453.528z"/>
				</g>
				<g>
					<path style="fill:#263238;" d="M33.572,458.343c-2.457,1.614,1.146,3.563,3.399,2.666c2.24-0.815,3.956-1.132,4.639-0.937
						c-0.423-0.297-0.836-0.603-1.24-0.917C40.322,459.253,35.962,456.89,33.572,458.343z"/>
				</g>
			</g>
			<g>
				<g>
					<path style="fill:#263238;" d="M38.231,450.117c-2.829,1.17-1.486,5.38-1.361,5.375c0.301,0.381,0.613,0.757,0.937,1.126
						c-0.208-0.594,0.298-2.069,1.75-3.69C40.932,451.276,40.884,448.919,38.231,450.117z"/>
				</g>
				<g>
					<path style="fill:#263238;" d="M30.234,453.812c-2.73,1.233,0.425,3.655,2.809,3.094c2.359-0.48,4.102-0.549,4.729-0.263
						c-0.353-0.35-0.695-0.707-1.027-1.07C36.685,455.663,32.874,452.731,30.234,453.812z"/>
				</g>
			</g>
			<g>
				<g>
					<path style="fill:#263238;" d="M36.416,446.403c-3.011,0.744-2.501,5.075-2.38,5.085c0.222,0.417,0.455,0.83,0.701,1.238
						c-0.088-0.611,0.699-1.985,2.443-3.368C38.856,447.935,39.263,445.61,36.416,446.403z"/>
				</g>
				<g>
					<path style="fill:#263238;" d="M27.824,448.878c-2.927,0.818-0.284,3.658,2.171,3.448c2.416-0.132,4.143,0.05,4.703,0.419
						c-0.278-0.393-0.544-0.792-0.8-1.196C33.824,451.632,30.636,448.201,27.824,448.878z"/>
				</g>
			</g>
			<g>
				<g>
					<path style="fill:#263238;" d="M35.337,442.47c-3.112,0.296-3.436,4.649-3.318,4.673c0.139,0.443,0.29,0.883,0.453,1.321
						c0.031-0.614,1.07-1.853,3.055-2.962C37.451,444.345,38.296,442.105,35.337,442.47z"/>
				</g>
				<g>
					<path style="fill:#263238;" d="M26.39,443.654c-3.043,0.38-0.978,3.576,1.483,3.725c2.407,0.222,4.076,0.653,4.557,1.097
						c-0.198-0.427-0.385-0.858-0.559-1.294C31.782,447.258,29.293,443.402,26.39,443.654z"/>
				</g>
			</g>
			<g>
				<g>
					<path style="fill:#263238;" d="M35.029,438.401c-3.127-0.164-4.283,4.115-4.171,4.152c0.052,0.46,0.117,0.918,0.195,1.374
						c0.148-0.603,1.409-1.676,3.579-2.483C36.75,440.584,38.015,438.48,35.029,438.401z"/>
				</g>
				<g>
					<path style="fill:#263238;" d="M25.982,438.25c-3.074-0.072-1.656,3.416,0.743,3.925c2.331,0.577,3.894,1.249,4.284,1.759
						c-0.114-0.451-0.215-0.906-0.304-1.363C30.602,442.637,28.889,438.435,25.982,438.25z"/>
				</g>
			</g>
			<g>
				<path style="fill:#263238;" d="M30.502,439.88c-0.059,0.051-1.51-3.739-1.239-5.914c0.195-2.143,2.085-2.523,2.941-1.954
					c0.872,0.559,0.666,2.047,0.2,3.237C31.836,436.393,30.437,439.845,30.502,439.88z"/>
				<path style="fill:#263238;" d="M30.637,439.971c-0.005,0.005-0.01,0.01-0.015,0.015c-0.051,0.044-0.132,0.056-0.197,0.028
					c-0.004-0.002-0.009-0.005-0.014-0.008c-0.041-0.022-0.071-0.039-0.077-0.096c-0.402-0.65-1.474-4.091-1.241-5.96
					c0.096-1.055,0.629-1.85,1.464-2.176c0.601-0.235,1.288-0.188,1.75,0.118c1.179,0.756,0.496,2.797,0.258,3.404
					c-0.554,1.116-1.826,4.259-1.894,4.572C30.675,439.906,30.663,439.942,30.637,439.971z M29.995,432.537
					c-0.267,0.301-0.499,0.755-0.561,1.441c-0.214,1.716,0.649,4.418,1.035,5.427c0.109-0.299,0.293-0.758,0.586-1.475
					c0.377-0.923,0.888-2.128,1.193-2.741c0.445-1.141,0.646-2.552-0.144-3.058c-0.367-0.243-0.918-0.276-1.406-0.085
					C30.499,432.124,30.233,432.269,29.995,432.537z"/>
			</g>
		</g>
	</g>
</g>
<g id="Tree">
	<g>
		<path style="fill:#92E3A9;" d="M372.178,248.5c-2.296-2.419-5.123-7.322-7.138-11.311c-0.398-1.148-0.823-2.283-1.308-3.395
			c-0.393-0.902-0.828-1.781-1.285-2.646c0.006-0.038,0.019-0.062,0.049-0.054c0.701,0.2,5.504,1.064,3.3-3.604
			c-2.204-4.668-11.479-9.332-11.479-9.332s2.367-2.103,0.165-3.235c-2.202-1.133-8.507-2.93-9.741-3.029
			c-1.234-0.099-13.713-7.697-17.315-7.461s-0.599,2.102-0.599,2.102s-3.837-1.599-7.005-1.997
			c-3.169-0.398-4.469-0.264-4.469-0.264s-8.238-0.329-13.739,3.91c-5.501,4.239-5.632,8.242-8.198,11.045
			c-2.566,2.803-14.875,0.809-20.142,5.115c-5.267,4.306-1.762,8.84-2.695,10.341c-0.933,1.501-9.835,7.043-5.195,12.911
			c3.568,4.512,16.291,5.048,21.431,5.824c0.682,0.313,1.39,0.607,2.126,0.878c-1.205,1.69-8.177,0.46-0.603,4.892
			c6.864,4.016,14.41,2.005,18.794,4.149c3.326,2.338,5.697,4.728,6.514,6.969c1.973,5.411,3.447,10.638,3.447,10.638
			s9.75-6.405,15.418-8.694c1.594-0.305,3.311-0.37,4.831,0.151c4.37,1.498,15.116,11.631,18.417,9.795
			c3.301-1.836,1.565-4.604,1.565-4.604s7.306,3.598,9.206,1.362c1.9-2.236,0.931-5.037,0.931-5.037s8.004-1.506,10.968-9.245
			C381.388,256.933,376.45,253.001,372.178,248.5z"/>
		<g>
			<path style="fill:#92E3A9;" d="M446.797,113.568c-9.486-4.779-22.906-15.876-32.922-25.122c-2.304-2.801-4.684-5.549-7.229-8.184
				c-2.066-2.139-4.244-4.183-6.48-6.173c-0.016-0.108,0.004-0.183,0.106-0.183c2.406,0,18.45-1.368,7.219-12.309
				c-11.23-10.941-44.92-16.412-44.92-16.412s5.615-7.522-2.407-8.89c-8.021-1.368-29.68-1.368-33.69-0.684
				c-4.011,0.684-50.536-10.258-61.766-6.838c-11.23,3.419,0,6.154,0,6.154s-13.637-1.368-24.065,0
				c-10.428,1.368-14.439,2.735-14.439,2.735s-26.471,5.471-40.108,21.199c-13.637,15.728-10.428,26.67-16.043,36.243
				c-5.615,9.574-46.525,13.677-59.359,29.405c-12.834,15.728,2.407,25.302,0.802,30.089c-1.604,4.787-24.867,26.67-4.813,38.979
				c15.422,9.466,56.329,1.094,73.36-0.774c2.449,0.322,4.966,0.569,7.55,0.736c-2.298,5.508-25.561,7.56,2.515,13.714
				c25.445,5.578,47.596-5.695,63.466-3.275c12.686,3.764,22.381,8.406,27.007,13.845c11.168,13.131,20.585,26.15,20.585,26.15
				s25.175-24.876,41.109-35.452c4.786-2.057,10.182-3.558,15.483-3.32c15.241,0.684,58.557,19.831,67.381,12.309
				c8.824-7.522,0.802-13.677,0.802-13.677s26.471,4.103,30.482-3.419c4.011-7.522-1.604-14.361-1.604-14.361
				s24.065-10.258,26.471-33.508C483.696,129.296,464.445,122.458,446.797,113.568z"/>
			<path style="opacity:0.3;fill:#FFFFFF;" d="M446.797,113.568c-9.486-4.779-22.906-15.876-32.922-25.122
				c-2.304-2.801-4.684-5.549-7.229-8.184c-2.066-2.139-4.244-4.183-6.48-6.173c-0.016-0.108,0.004-0.183,0.106-0.183
				c2.406,0,18.449-1.368,7.219-12.309s-44.92-16.412-44.92-16.412s5.615-7.522-2.407-8.89c-8.021-1.368-29.68-1.368-33.69-0.684
				c-4.011,0.684-50.536-10.258-61.766-6.838c-11.23,3.419,0,6.154,0,6.154s-13.637-1.368-24.065,0
				c-10.428,1.368-14.439,2.735-14.439,2.735s-26.471,5.471-40.108,21.199c-13.637,15.728-10.428,26.67-16.043,36.243
				c-5.615,9.574-46.525,13.677-59.359,29.405c-12.834,15.728,2.406,25.302,0.802,30.089c-1.604,4.787-24.867,26.67-4.813,38.979
				c0.528,0.324,1.091,0.623,1.676,0.906c8.734,0.174,21.201-4.367,38.261-20.513c40.765-38.581,55.324-40.037,55.324-40.037
				s-37.853,3.64-29.118-5.096c8.735-8.735,42.221-18.927,51.685-19.655c9.463-0.728,38.581-0.728,38.581-0.728
				s-22.567-10.919-12.375-13.831c10.191-2.912,29.118-0.728,38.581,2.184c9.463,2.912,22.566,11.647,22.566,11.647
				S357,93.896,355.544,98.991c-1.456,5.096-8.008,10.919-8.008,10.919s47.317,4.368,44.405,14.559
				c-2.912,10.191-8.007,4.368-2.912,10.191c5.096,5.824,13.103,20.383,36.398,29.846c23.294,9.463,53.14,6.551,42.221,0
				c-10.919-6.552-42.949-18.927-12.375-18.927c9.186,0,18.102,2.505,26.091,5.998C483.135,129.113,464.194,122.332,446.797,113.568
				z"/>
		</g>
		<path style="fill:#263238;stroke:#263238;stroke-linecap:round;stroke-linejoin:round;stroke-miterlimit:10;" d="M309.266,286.324
			c-1.302-31.512-2.424-57.801-2.424-57.801l6.654-20.754c0,0,13.997-24.013,22.125-31.844c8.128-7.83,29.349-32.366,29.349-32.366
			s-18.061,15.139-22.577,19.837c-4.515,4.698-11.288,7.308-11.288,7.308s2.709-9.396,3.612-10.963
			c0.903-1.566,6.773-30.8,6.773-30.8s-8.579,27.668-14.449,40.196c-5.87,12.529-25.737,40.718-25.737,40.718l-3.161-12.529
			c0,0-0.903-20.359-0.452-22.447c0.452-2.088,13.997-39.152,13.997-39.152l-18.513,29.234l-7.676-54.813l0.903,60.555
			c0,0-3.161-2.61-4.967-3.654c-1.806-1.044-24.383-18.271-26.64-21.403c-2.258-3.132-13.998-18.271-13.998-18.271l9.031,20.359
			l-23.028-9.918c0,0,52.829,33.41,55.087,43.328c2.258,9.919,2.972,29.628,2.972,29.628s0.512,96.104,0.046,114.929
			c-0.465,18.825-5.583,83.367-6.048,100.041c-0.465,16.673,0.948,40.208,0.948,40.208h45.109c0,0-10.7-48.276-12.096-89.153
			c-0.6-17.579-1.79-47.459-2.951-75.811l27.475-54.95L309.266,286.324z"/>
	</g>
</g>
<g id="Floor">
	<polygon style="fill:#92E3A9;" points="37.881,459.783 49.209,459.783 46.849,455.063 54.401,460.727 54.873,453.174 
		59.121,458.366 61.953,450.814 64.785,458.366 75.17,451.758 72.81,460.254 80.834,456.007 82.25,460.254 90.746,456.951 
		91.69,461.199 269.637,461.199 269.637,457.422 275.301,460.727 278.133,454.118 280.493,458.366 288.989,444.678 289.933,457.895 
		296.069,450.342 296.541,456.478 300.317,451.286 300.317,458.839 304.094,447.982 310.23,459.783 306.453,441.846 317.31,461.671 
		319.67,445.622 322.03,459.783 329.582,439.486 328.638,458.839 346.102,448.926 342.326,457.895 347.518,458.366 362.622,461.199 
		367.814,455.534 368.758,460.727 414.071,460.727 356.486,467.335 385.279,471.111 330.998,472.999 333.358,476.303 
		311.646,476.303 280.965,479.135 299.373,472.999 240.844,477.719 209.22,478.663 183.731,478.663 196.948,473.943 
		170.515,473.943 180.427,471.111 129.451,472.055 144.083,474.415 81.778,470.639 95.938,465.919 20.889,464.503 	"/>
</g>
<g id="Character">
	<g>
		<g>
			<path style="fill:#7D7D7D;stroke:#263238;stroke-linecap:round;stroke-linejoin:round;stroke-miterlimit:10;" d="M249.08,304.868
				c0,0-14.846,6.455-19.203,14.523c-4.357,8.069-2.098,13.878,2.905,18.074c5.003,4.196,5.809,5.487,2.743,9.682
				c-3.066,4.196-3.712,10.328,0,14.039c3.712,3.711,10.65,6.132,10.328,9.037c-0.323,2.905-6.455,1.936-4.841,9.682
				c1.614,7.746,7.746,8.875,19.526,4.841s20.817-14.362,23.076-25.981c2.259-11.619-5.487-25.658-16.46-35.502
				S249.08,304.868,249.08,304.868z"/>
			<path style="fill:none;stroke:#263238;stroke-linecap:round;stroke-linejoin:round;stroke-miterlimit:10;" d="M245.499,364.087
				c3.609,0.669,6.168-1.333,6.168-1.333"/>
			<path style="fill:none;stroke:#263238;stroke-linecap:round;stroke-linejoin:round;stroke-miterlimit:10;" d="M237.393,320.868
				c-2.587,3.103-5.147,7.514-2.924,11.127c3.875,6.297,9.446,8.583,9.93,12.11c0.485,3.527-10.899,10.415-4.602,16.712
				c0.49,0.49,0.975,0.915,1.454,1.283"/>
			<path style="fill:none;stroke:#263238;stroke-linecap:round;stroke-linejoin:round;stroke-miterlimit:10;" d="M241.251,316.978
				c0,0-0.988,0.808-2.252,2.11"/>
		</g>
		<path style="fill:#263238;stroke:#263238;stroke-linecap:round;stroke-linejoin:round;stroke-miterlimit:10;" d="M215.003,407.248
			c0,0-19.141-6.626-30.429-10.307c-11.288-3.681-13.251-4.417-16.196-1.963c-2.945,2.454-28.957,29.202-33.865,33.128
			s-7.607,6.626-7.607,6.626l3.681,6.38c0,0,11.288-5.153,25.521-11.779c14.233-6.626,21.349-13.251,21.349-13.251
			s20.122,14.478,28.466,19.141c8.343,4.663,18.159,10.061,18.159,10.061s6.871-4.663,10.307-7.853
			c3.436-3.19,3.926-15.951,3.926-15.951L215.003,407.248z"/>
		<path style="fill:#263238;stroke:#263238;stroke-linecap:round;stroke-linejoin:round;stroke-miterlimit:10;" d="M221.217,435.656
			c0,0-5.645,1.752-32.121,1.752c-26.475,0-26.281,0.389-35.819,2.531c-9.539,2.141-28.811,4.088-32.315,4.088s-7.397,0-7.397,0
			l-0.195,12.07c0,0,14.795,2.336,29.201,3.893c14.406,1.557,31.926-1.168,39.713-1.363c7.787-0.195,25.112,4.477,47.5,5.84
			s33.483-3.504,35.041-4.088C266.381,459.795,221.217,435.656,221.217,435.656z"/>
		<path style="fill:#7D7D7D;stroke:#263238;stroke-linecap:round;stroke-linejoin:round;stroke-miterlimit:10;" d="M120.18,441.957
			l-0.352,16.186c0.104,0.371-8.334-0.64-15.834-1.232c-8.658-0.683-9.149-2.111-9.677-3.343
			c-0.528-1.232-1.583-11.964-1.583-11.964s-4.926-10.732-4.574-15.658c0.352-4.926,5.63-15.482,6.686-13.723
			c1.056,1.759,6.686,15.482,6.686,15.482s7.213,8.797,11.436,10.908C117.189,440.726,120.18,441.957,120.18,441.957z"/>
		<path style="fill:none;stroke:#263238;stroke-linecap:round;stroke-linejoin:round;stroke-miterlimit:10;" d="M93.457,418.094
			c-1.527,3.41-3.562,8.203-3.562,9.53c0,2.123,5.212,15.635,5.984,19.11c0.772,3.475,0.965,6.949,2.895,8.493"/>
		<path style="fill:none;stroke:#263238;stroke-linecap:round;stroke-linejoin:round;stroke-miterlimit:10;" d="M95.107,414.498
			c0,0-0.174,0.368-0.459,0.983"/>
		<g>
			<path style="fill:#92E3A9;stroke:#263238;stroke-linecap:round;stroke-linejoin:round;stroke-miterlimit:10;" d="
				M236.608,410.348c0,0-4.095-0.215-13.578-2.802c-9.483-2.586-15.517-6.034-15.948-4.095c-0.431,1.94,8.405,14.224,13.146,19.397
				c4.741,5.172,10.56,6.681,10.56,6.681s-6.681,2.155-12.715,5.388c-6.035,3.233-9.914,3.879-7.974,5.603
				c1.94,1.724,25,17.672,37.5,22.845c12.5,5.172,22.845,5.819,22.845,5.819s10.129,0.647,13.578-3.233
				c3.448-3.879,12.716-15.948,12.716-19.612c0-3.664-1.94-5.172-3.017-6.681c-1.078-1.509-4.741-23.492-4.741-27.155
				c0-3.664-0.605-8.835,2.843-11.637s7.681-14.477,8.543-19.65c0.862-5.172,1.5-13.327-2.99-16.659
				c-4.491-3.332-14.503,3.26-17.448,3.334c-2.946,0.074-26.724,12.5-31.681,22.414
				C243.289,400.219,236.608,410.348,236.608,410.348z"/>
			<path style="fill:none;stroke:#263238;stroke-linecap:round;stroke-linejoin:round;stroke-miterlimit:10;" d="M250.539,405.043
				c3.901-3.242,9.741-8.187,14.852-12.889c8.608-7.92,14.806-14.806,14.806-14.806"/>
			<path style="fill:none;stroke:#263238;stroke-linecap:round;stroke-linejoin:round;stroke-miterlimit:10;" d="M246.109,408.681
				c0,0,0.943-0.76,2.495-2.037"/>
			<path style="fill:none;stroke:#263238;stroke-linecap:round;stroke-linejoin:round;stroke-miterlimit:10;" d="M248.414,439.603
				c0.94,0.766,1.96,1.51,3.065,2.211"/>
			<path style="fill:none;stroke:#263238;stroke-linecap:round;stroke-linejoin:round;stroke-miterlimit:10;" d="M239.194,427.805
				c0,0,2.058,5.017,7.069,9.883"/>
		</g>
		<path style="fill:#FFFFFF;stroke:#263238;stroke-linecap:round;stroke-linejoin:round;stroke-miterlimit:10;" d="M252.63,366.673
			c0,0-0.807-1.452,4.034-4.518c4.841-3.066,12.103-9.198,12.103-9.198l3.873,6.455c0,0-10.489,8.068-13.717,8.875
			C255.697,369.094,252.63,366.673,252.63,366.673z"/>
		<g>
			<path style="fill:#FFFFFF;stroke:#263238;stroke-linecap:round;stroke-linejoin:round;stroke-miterlimit:10;" d="
				M243.594,317.133c0,0-3.066,8.391-2.421,12.264c0.645,3.873,4.034,8.875,4.518,11.296c0.484,2.421-1.775,5.648-0.807,6.939
				c0.968,1.291,4.518,0.968,4.518,0.968s2.743,2.582,4.68,4.196c1.936,1.614,7.423,4.68,8.714,4.196
				c1.291-0.484,2.905-1.936,2.905-1.936l2.743,3.066l9.037-7.584c0,0,0-5.648-5.971-10.005
				c-5.971-4.357-19.203-13.717-22.43-17.912c-3.227-4.196-4.68-8.553-4.68-8.553L243.594,317.133z"/>
			<path style="fill:none;stroke:#263238;stroke-width:2;stroke-linecap:round;stroke-linejoin:round;stroke-miterlimit:10;" d="
				M246.821,336.174c0,0,0.161-3.227,4.034-2.421"/>
			<path style="fill:none;stroke:#263238;stroke-linecap:round;stroke-linejoin:round;stroke-miterlimit:10;" d="M249.08,338.595
				l0.968,1.614c0,0,2.421-0.323,3.227-1.452"/>
			<polygon style="fill:#263238;stroke:#263238;stroke-linecap:round;stroke-linejoin:round;stroke-miterlimit:10;" points="
				265.702,355.055 271.188,348.116 268.445,358.121 			"/>
		</g>
		<path style="fill:#FFFFFF;stroke:#263238;stroke-linecap:round;stroke-linejoin:round;stroke-miterlimit:10;" d="M257.472,371.837
			c0,0-2.259,3.873-8.069,12.103c-5.809,8.23-8.553,17.105-8.068,18.88c0.484,1.775,5.971,2.098,6.616,1.614
			c0.646-0.484,7.262-13.878,18.235-24.206c10.973-10.328,14.201-15.492,14.039-16.298
			C280.064,363.123,257.472,371.837,257.472,371.837z"/>
		<path style="fill:#FFFFFF;stroke:#263238;stroke-linecap:round;stroke-linejoin:round;stroke-miterlimit:10;" d="M278.611,347.954
			c0,0-6.939,8.23-10.166,10.166c-3.227,1.936-13.394,7.907-14.523,7.907c-1.13,0-2.098,1.13-1.13,2.582s3.227,5.325,3.389,6.132
			c0.161,0.807,1.775,3.066,4.196,2.421c2.421-0.646,14.685-6.132,20.01-10.973c5.325-4.841,8.069-9.844,6.293-13.717
			C284.905,348.6,279.741,345.372,278.611,347.954z"/>
		<g>
			<path style="fill:#7D7D7D;stroke:#263238;stroke-linecap:round;stroke-linejoin:round;stroke-miterlimit:10;" d="
				M243.594,317.133c0,0,4.841,17.105,15.007,22.269c10.166,5.164,15.976,8.069,16.783,12.587c0.807,4.518-5.164,5.164-3.55,11.619
				c1.614,6.455,10.166,15.008,28.24,10.489c18.073-4.518,15.653-17.912,12.91-27.272c-2.743-9.359-7.906-12.748-15.813-17.588
				c-5.986-3.665-8.797-10.856-11.581-16.944c-2.83-6.19-8.061-13.017-14.847-14.982c-8.254-2.391-22.767,3.84-25.858,12.399
				C242.787,315.519,243.594,317.133,243.594,317.133z"/>
			<path style="fill:none;stroke:#263238;stroke-linecap:round;stroke-linejoin:round;stroke-miterlimit:10;" d="M304.988,353.622
				c0.413,0.882,0.72,1.896,0.932,3.077"/>
			<path style="fill:none;stroke:#263238;stroke-linecap:round;stroke-linejoin:round;stroke-miterlimit:10;" d="M252.635,326.908
				c0,0,3.633,9.93,23.736,15.743c14.818,4.285,22.925,4.753,26.842,8.486"/>
			<path style="fill:none;stroke:#263238;stroke-linecap:round;stroke-linejoin:round;stroke-miterlimit:10;" d="M261.63,316.337
				c0.714,1.263,1.435,2.754,2.146,4.516c5.086,12.595,16.954,18.892,29.549,21.556c12.595,2.664,19.376,7.024,18.65,14.29"/>
			<path style="fill:none;stroke:#263238;stroke-linecap:round;stroke-linejoin:round;stroke-miterlimit:10;" d="M253.119,309.47
				c0,0,3.318-0.721,7.171,4.74"/>
		</g>
		<g>
			<g>
				<path style="fill:#FFFFFF;stroke:#263238;stroke-linecap:round;stroke-linejoin:round;stroke-miterlimit:10;" d="
					M207.376,362.085c0,0,4.14,0.637,7.324,2.76c3.184,2.123,4.989,4.246,4.989,4.246l-3.821,5.095L207.376,362.085z"/>
				<polygon style="fill:#92E3A9;stroke:#263238;stroke-linecap:round;stroke-linejoin:round;stroke-miterlimit:10;" points="
					214.807,374.822 207.376,362.085 215.868,374.185 				"/>
				<path style="fill:#FFFFFF;stroke:#263238;stroke-linecap:round;stroke-linejoin:round;stroke-miterlimit:10;" d="
					M207.376,362.085c0,0,3.821,1.911,5.413,4.14c1.592,2.229,3.078,7.218,3.078,7.218L207.376,362.085z"/>
			</g>
			<polygon style="fill:#92E3A9;stroke:#263238;stroke-linecap:round;stroke-linejoin:round;stroke-miterlimit:10;" points="
				214.807,374.822 235.186,397.75 252.382,388.515 233.488,365.482 			"/>
			<path style="fill:#FFFFFF;stroke:#263238;stroke-linecap:round;stroke-linejoin:round;stroke-miterlimit:10;" d="
				M215.868,374.185c0,0,0.955-2.972,3.078-5.095c2.123-2.123,14.223-6.05,14.223-6.05l18.681,23.776l0.106,0.955l-18.469-22.29
				L215.868,374.185z"/>
		</g>
		<path style="fill:#FFFFFF;stroke:#263238;stroke-linecap:round;stroke-linejoin:round;stroke-miterlimit:10;" d="M240.387,400.085
			c0,0-3.078-2.441-3.609-3.715c-0.531-1.274-2.654-6.369-3.503-7.324c-0.849-0.955-2.866-3.397-3.927-5.413
			c-1.062-2.017-2.229-2.229-2.866-0.743c-0.637,1.486,0.212,3.609,1.274,5.307s2.017,3.397,2.017,3.397s-2.76-2.441-4.352-3.927
			c-1.592-1.486-4.776-5.413-5.52-5.732c-0.743-0.318-1.698,0.849-0.743,3.078c0.955,2.229,4.564,8.279,6.156,10.827
			c1.592,2.548,4.564,4.883,6.262,5.838c1.698,0.955,6.05,4.033,6.05,4.033L240.387,400.085z"/>
		<g>
			<path style="fill:#92E3A9;stroke:#263238;stroke-linecap:round;stroke-linejoin:round;stroke-miterlimit:10;" d="M289.1,358.928
				c0,0-4.196,1.291-6.293,8.875c-2.098,7.584-4.518,17.428-4.518,17.428s-3.227,1.614-3.873,3.55
				c-0.646,1.936,0.646,4.196,0.968,5.325c0.323,1.13-2.421,1.614-4.196,3.389c-1.775,1.775-2.259,3.55-2.421,4.034
				c-0.161,0.484-0.968,0.323-2.421,0.323c-1.452,0-3.712,0.807-12.264,0.161c-8.553-0.646-12.264-3.55-13.717-2.905
				c-1.452,0.646-5.325,7.746-5.809,11.296c-0.484,3.55,0,4.196,0.807,4.68c0.807,0.484,2.905,0.646,2.905,0.646
				s12.426,4.196,27.272,7.262c14.846,3.066,17.912,1.452,21.14-0.968c3.227-2.421,4.518-4.357,4.518-4.357s5.164-10.65,6.132-12.91
				c0.968-2.259,4.357-10.328,7.1-15.492c2.743-5.164,8.553-11.78,1.13-23.56C298.137,353.925,289.1,358.928,289.1,358.928z"/>
			<path style="fill:none;stroke:#263238;stroke-linecap:round;stroke-linejoin:round;stroke-miterlimit:10;" d="M270.208,403.026
				c0,0,0,6.025,5.112,9.129"/>
			<path style="fill:none;stroke:#263238;stroke-linecap:round;stroke-linejoin:round;stroke-miterlimit:10;" d="M278.059,394.81
				c0,0-3.469-2.556-0.73-2.556s6.391,6.938,6.391,6.938"/>
			<path style="fill:none;stroke:#263238;stroke-linecap:round;stroke-linejoin:round;stroke-miterlimit:10;" d="M243.24,401.149
				c0,0-5.167,5.346-4.62,12.284"/>
		</g>
		<g>
			<path style="fill:#7D7D7D;stroke:#263238;stroke-linecap:round;stroke-linejoin:round;stroke-miterlimit:10;" d="
				M128.625,428.586l10.38,12.14c0,0-6.334,7.213-9.149,10.38c-2.815,3.167-8.093,11.26-10.38,11.436
				c-2.287,0.176-9.501-4.398-11.788-5.63c-2.287-1.232-11.084-7.389-13.723-13.371c-2.639-5.982-4.926-12.843-1.408-12.491
				c3.519,0.352,7.917,4.926,13.195,6.51c5.278,1.583,4.75,1.759,9.149-0.176C119.3,435.448,128.625,428.586,128.625,428.586z"/>
			<path style="fill:none;stroke:#263238;stroke-linecap:round;stroke-linejoin:round;stroke-miterlimit:10;" d="M113.338,440.962
				c-1.349,0.277-2.234-0.076-3.175-0.598"/>
			<path style="fill:none;stroke:#263238;stroke-linecap:round;stroke-linejoin:round;stroke-miterlimit:10;" d="M128.694,431.292
				c0,0-5.984,4.247-10.617,7.335c-1.046,0.697-1.934,1.217-2.703,1.594"/>
			
				<line style="fill:none;stroke:#263238;stroke-linecap:round;stroke-linejoin:round;stroke-miterlimit:10;" x1="132.507" y1="441.165" x2="134.292" y2="442.873"/>
			
				<line style="fill:none;stroke:#263238;stroke-linecap:round;stroke-linejoin:round;stroke-miterlimit:10;" x1="125.219" y1="434.187" x2="130.612" y2="439.35"/>
			<path style="fill:none;stroke:#263238;stroke-linecap:round;stroke-linejoin:round;stroke-miterlimit:10;" d="M118.914,459.955
				c1.446,0.59,2.252,0.87,2.252,0.87"/>
			<path style="fill:none;stroke:#263238;stroke-linecap:round;stroke-linejoin:round;stroke-miterlimit:10;" d="M92.79,433.415
				c0,0,1.737,6.949,4.247,11.196c2.509,4.247,6.177,7.721,12.933,11.196c3.051,1.569,5.63,2.745,7.541,3.562"/>
		</g>
	</g>
</g>
</svg>
